<?xml version="1.0" standalone="no"?>
<!DOCTYPE svg PUBLIC "-//W3C//DTD SVG 1.1//EN" "http://www.w3.org/Graphics/SVG/1.1/DTD/svg11.dtd" >
<svg xmlns="http://www.w3.org/2000/svg" xmlns:xlink="http://www.w3.org/1999/xlink" version="1.1">
<metadata>
Created by FontForge 20170731 at Sat Dec  3 13:05:37 2016
 By Aleksey,,,
Copyright 2016 The Faustina Project Authors (omnibus.type@gmail.com)
</metadata>
<defs>
<font id="Faustina-Regular" horiz-adv-x="0" >
  <font-face 
    font-family="Faustina"
    font-weight="400"
    font-stretch="normal"
    units-per-em="1000"
    panose-1="0 0 5 0 0 0 0 0 0 0"
    ascent="800"
    descent="-200"
    x-height="494"
    cap-height="648"
    bbox="-693 -187.229 1227 1011"
    underline-thickness="50"
    underline-position="-150"
    unicode-range="U+000D-FB02"
  />
<missing-glyph horiz-adv-x="183" 
 />
    <glyph glyph-name="f_f" unicode="ff" horiz-adv-x="600" 
d="M15 41l69 14v382h-61v47l60 12q4 57 31.5 104t71.5 74t95 27q26 0 41 -12.5t15 -35.5q0 -14 -8.5 -28.5t-19.5 -19.5l-30 8q-9 2 -32 8t-32 7.5t-17 1.5q-16 0 -32 -9v-127h207l10 2q4 57 31.5 104t71.5 74t95 27q26 0 41 -12.5t15 -35.5q0 -14 -8.5 -28.5t-19.5 -19.5
l-30 8q-9 2 -32 8t-32 7.5t-17 1.5q-16 0 -32 -9v-127h127v-31l-13 -26h-114v-380l104 -16v-41h-255v41l69 14v382h-218v-380l104 -16v-41h-255v41z" />
    <glyph glyph-name="fi" unicode="fi" horiz-adv-x="572" 
d="M96 55v382h-61v47l60 12q3 66 38.5 112.5t86 69.5t97.5 23q59 0 86.5 -13t27.5 -47q0 -19 -12.5 -33.5t-33.5 -14.5q-11 0 -23 3.5t-15 4.5q-24 8 -45.5 12t-53.5 4q-26 0 -45 -4.5t-25 -11.5v-107h263l28 -11v-428l78 -14v-41h-241v41l81 14v357l-83 25h-126v-380
l93 -16v-41h-244v41z" />
    <glyph glyph-name="fl" unicode="fl" horiz-adv-x="590" 
d="M96 55v382h-61v47l60 12q0 99 60.5 152t171.5 53q47 0 82 -8t55 -18t20 -11v-609l79 -14v-41h-241v41l80 14v558q-21 8 -55 12.5t-69 4.5q-25 0 -54 -4t-46 -14v-118h127v-31l-13 -26h-114v-380l104 -16v-41h-255v41z" />
    <glyph glyph-name=".notdef" horiz-adv-x="183" 
 />
    <glyph glyph-name=".null" 
 />
    <glyph glyph-name="nonmarkingreturn" unicode="&#xd;" horiz-adv-x="201" 
 />
    <glyph glyph-name="NULL" 
 />
    <glyph glyph-name="NULL" 
 />
    <glyph glyph-name="space" unicode=" " horiz-adv-x="201" 
 />
    <glyph glyph-name="exclam" unicode="!" horiz-adv-x="201" 
d="M48.5 672.5q13.5 4.5 36.5 4.5q31 0 41.5 -15t10.5 -41l-24 -461h-44l-34 507q0 1 13.5 5.5zM49.5 5.5q-14.5 16.5 -14.5 42.5t16.5 44.5t41.5 18.5t39.5 -15.5t14.5 -42.5q0 -26 -16 -45t-43 -19q-24 0 -38.5 16.5z" />
    <glyph glyph-name="quotedbl" unicode="&#x22;" horiz-adv-x="334" 
d="M112 718q22 0 28.5 -11t6.5 -27q-3 -26 -4 -35l-23 -151h-40l-21 211q30 13 53 13zM245 718q22 0 28.5 -11t6.5 -27q-3 -26 -4 -35l-23 -151h-40l-21 211q30 13 53 13z" />
    <glyph glyph-name="numbersign" unicode="#" horiz-adv-x="530" 
d="M106 124h-108v59h119l26 136h-122v59h134l27 142h60l-27 -142h134l27 142h60l-27 -142h102v-59h-114l-26 -136h117v-59h-128l-30 -156h-60l30 156h-134l-30 -156h-60zM311 183l26 136h-134l-26 -136h134z" />
    <glyph glyph-name="dollar" unicode="$" horiz-adv-x="484" 
d="M402 60.5q-46 -50.5 -122 -61.5l-5 -116h-53l-5 114q-48 4 -92.5 19t-65.5 34v143h50l14 -100q21 -17 54 -28t71 -11q114 0 114 104q0 37 -14.5 60t-42 39.5t-79.5 37.5q-50 21 -83.5 41t-58 55t-24.5 88q0 69 44.5 115.5t120.5 56.5l4 109h54l4 -108q36 -2 76.5 -9.5
t60.5 -14.5v-151h-49l-19 94q-41 23 -100 23q-56 0 -82.5 -22t-26.5 -68q0 -35 15 -57t39.5 -36t72.5 -34q60 -26 95 -47t57 -55.5t22 -86.5q0 -77 -46 -127.5z" />
    <glyph glyph-name="percent" unicode="%" horiz-adv-x="684" 
d="M125 -45l-52 33l469 679l49 -32zM47 388.5q-32 40.5 -32 113.5t38 115.5t113 42.5q76 0 108 -40t32 -116q0 -156 -150 -156q-77 0 -109 40.5zM223 423.5q16 24.5 16 80.5q0 61 -17.5 83t-61.5 22q-42 0 -60 -25t-18 -80t16 -80t63 -25q46 0 62 24.5zM410 32.5
q-32 40.5 -32 113.5t38 115.5t113 42.5q76 0 108 -40t32 -116q0 -156 -150 -156q-77 0 -109 40.5zM586 67.5q16 24.5 16 80.5q0 61 -17.5 83t-61.5 22q-42 0 -60 -25t-18 -80t16 -80t63 -25q46 0 62 24.5z" />
    <glyph glyph-name="ampersand" unicode="&#x26;" horiz-adv-x="611" 
d="M273 -10q-99 0 -164 40.5t-65 138.5q0 69 40 112.5t86 65.5q-40 43 -59 78.5t-19 75.5q0 69 48 114t135 45q44 0 83.5 -9t62.5 -19v-148h-49l-20 102q-2 1 -12 5t-29 7.5t-45 3.5q-53 0 -75 -22.5t-22 -67.5q0 -33 14 -54t63 -72l218 -226q14 34 14 77q0 31 -3.5 53
t-7.5 32l-83 16v45h136q19 -55 19 -145q0 -65 -33 -122l55 -56l77 -17v-43h-86q-41 0 -71 30l-25 25q-73 -65 -183 -65zM153.5 266.5q-21.5 -32.5 -21.5 -83.5q0 -68 33.5 -99.5t120.5 -31.5q80 0 131 43l-216 221q-26 -17 -47.5 -49.5z" />
    <glyph glyph-name="quotesingle" unicode="'" horiz-adv-x="207" 
d="M112 718q22 0 28.5 -11t6.5 -27q-3 -26 -4 -35l-23 -151h-40l-21 211q30 13 53 13z" />
    <glyph glyph-name="parenleft" unicode="(" horiz-adv-x="258" 
d="M80.5 -9q-43.5 119 -43.5 288q0 381 202 420l18 -41q-59 -16 -87.5 -61.5t-37.5 -118.5t-9 -199q0 -133 10.5 -210t39.5 -120t85 -58l-18 -42q-116 23 -159.5 142z" />
    <glyph glyph-name="parenright" unicode=")" horiz-adv-x="258" 
d="M85 -51q29 43 39.5 120t10.5 210q0 126 -9 199t-37.5 118.5t-87.5 61.5l18 41q202 -39 202 -420q0 -169 -43.5 -288t-159.5 -142l-18 42q56 15 85 58z" />
    <glyph glyph-name="asterisk" unicode="*" horiz-adv-x="384" 
d="M209 564l-38 -14l-36 78q-17 36 -17 52q0 32 49 32h19zM234 531l-25 33l62 58l14 14t19.5 15.5t20.5 5.5q14 0 23 -12t19 -44zM171 550v-41l-84 -10q-30 -3 -37 -3q-15 0 -27 7t-12 25q0 16 12 46zM329 480q15 -8 23.5 -17t8.5 -21q0 -11 -9.5 -22.5t-32.5 -26.5
l-108 104l23 34l75 -40q5 -3 20 -11zM171 509l40 -12l-15 -83q-1 -4 -4 -23t-12 -31.5t-24 -12.5t-50 27z" />
    <glyph glyph-name="plus" unicode="+" horiz-adv-x="530" 
d="M231 69v171h-166v59h166v170h67v-170h167v-59h-167v-171h-67z" />
    <glyph glyph-name="comma" unicode="," horiz-adv-x="184" 
d="M22 -115q18 32 29 62t11 50q0 19 -9.5 35.5t-22.5 26.5q23 50 66 50q26 0 41.5 -18t15.5 -45q0 -44 -34.5 -95.5t-62.5 -79.5z" />
    <glyph glyph-name="hyphen" unicode="-" horiz-adv-x="313" 
d="M41 297l215 17v-77h-215v60z" />
    <glyph glyph-name="period" unicode="." horiz-adv-x="191" 
d="M52.5 6.5q-15.5 17.5 -15.5 45.5t17.5 47.5t44.5 19.5q26 0 41.5 -16.5t15.5 -44.5q0 -29 -16.5 -49t-45.5 -20q-26 0 -41.5 17.5z" />
    <glyph glyph-name="slash" unicode="/" horiz-adv-x="350" 
d="M338 695l60 -27l-363 -835l-62 27z" />
    <glyph glyph-name="zero" unicode="0" horiz-adv-x="592" 
d="M103 78q-55 86 -55 249q0 159 63 246.5t196 87.5q130 0 184.5 -85.5t54.5 -248.5q0 -159 -62.5 -247t-194.5 -88q-131 0 -186 86zM392 82q34 31 47 90.5t13 154.5t-13 154.5t-47 90t-95 30.5t-95 -30.5t-47 -90t-13 -154.5t13 -154.5t47 -90.5t95 -31t95 31z" />
    <glyph glyph-name="one" unicode="1" horiz-adv-x="390" 
d="M55 0v49l114 11v519h-125v49l166 30h44v-598l117 -11v-49h-316z" />
    <glyph glyph-name="two" unicode="2" horiz-adv-x="486" 
d="M29 55l186 195q72 75 102 123.5t30 102.5q0 62 -27 89.5t-99 27.5t-110 -19l-16 -95h-50v144q29 13 74 25t102 12q112 0 165.5 -42t53.5 -136q0 -42 -18 -81t-57.5 -86t-112.5 -119l-115 -114v-6h259l20 87h50v-163h-437v55z" />
    <glyph glyph-name="three" unicode="3" horiz-adv-x="442" 
d="M96 4q-49 14 -76 32l7 129h52l10 -80q52 -31 105 -31q72 0 107 30.5t35 100.5t-41 96.5t-117 26.5h-52l-15 28v36h50q60 0 105 29.5t45 84.5q0 56 -26 81.5t-94 25.5q-27 0 -48 -3.5t-32.5 -7.5t-14.5 -5l-9 -85h-51l-8 137q74 31 173 31q107 0 150 -39t43 -109
q0 -58 -31.5 -97t-77.5 -57l-3 -1q60 -14 104.5 -52t44.5 -112q0 -100 -64 -151.5t-174 -51.5q-48 0 -97 14z" />
    <glyph glyph-name="four" unicode="4" horiz-adv-x="482" 
d="M206 0v44l83 15v122h-268l-25 47l324 448l51 -22v-410h92v-63h-92v-122l83 -15v-44h-248zM86 244h203v298l-9 -17l-197 -275z" />
    <glyph glyph-name="five" unicode="5" horiz-adv-x="441" 
d="M20 32l7 136h54l9 -96q22 -10 46 -17t65 -7q72 0 103.5 39.5t31.5 112.5t-43 109.5t-147 36.5h-101v302h351v-76h-293v-163h61q138 0 201.5 -47t63.5 -147q0 -103 -61 -164t-170 -61t-178 42z" />
    <glyph glyph-name="six" unicode="6" horiz-adv-x="512" 
d="M96 54.5q-51 64.5 -51 199.5q0 122 46 211t134 138.5t211 53.5v-40q-139 -14 -214 -84t-79 -189q35 24 76 37t83 13q78 0 126.5 -50t48.5 -130q0 -67 -27.5 -117.5t-78.5 -78.5t-118 -28q-106 0 -157 64.5zM357 85.5q29 37.5 29 114.5q0 60 -32.5 92.5t-91.5 32.5
q-53 0 -120 -20v-26q0 -87 12 -137t39 -72t74 -22q61 0 90 37.5z" />
    <glyph glyph-name="seven" unicode="7" horiz-adv-x="433" 
d="M89 0v41l277 514v17h-274l-8 -79h-54l-9 155h417v-76l-274 -572h-75z" />
    <glyph glyph-name="eight" unicode="8" horiz-adv-x="482" 
d="M93 30q-51 40 -51 114q0 56 34 103.5t88 78.5q-51 28 -78.5 66.5t-27.5 91.5q0 52 25.5 92t70 62t97.5 22q87 0 133 -42t46 -112q0 -50 -28 -91.5t-74 -67.5q61 -32 92.5 -71t31.5 -97q0 -49 -22.5 -92t-70 -70t-119.5 -27q-96 0 -147 40zM336 422q15 30 15 71
q0 55 -25.5 78t-83.5 23q-104 0 -104 -89q0 -42 25 -68t84 -52q13 -6 23.5 -11t18.5 -8q32 26 47 56zM369 166q0 45 -34 73.5t-115 60.5l-18 7q-37 -29 -55 -65t-18 -74q0 -61 29 -90.5t91 -29.5q120 0 120 118z" />
    <glyph glyph-name="nine" unicode="9" horiz-adv-x="485" 
d="M100 -3q-20 2 -24 3v40q108 0 169 26t88 83.5t29 157.5q0 -2 -21 -14.5t-55.5 -23.5t-79.5 -11q-81 0 -131.5 49t-50.5 134q0 73 28.5 122t76 73t105.5 24q76 0 125 -30t73 -98t24 -181q0 -180 -79.5 -268t-222.5 -88q-34 0 -54 2zM331.5 337.5q29.5 11.5 30.5 12.5
q0 84 -7.5 135t-36 84t-88.5 33q-65 0 -89.5 -37.5t-24.5 -114.5q0 -67 39 -95.5t96 -28.5q51 0 80.5 11.5z" />
    <glyph glyph-name="colon" unicode=":" horiz-adv-x="221" 
d="M67.5 339.5q-15.5 17.5 -15.5 45.5t17.5 47.5t44.5 19.5q26 0 41.5 -16.5t15.5 -44.5q0 -29 -16.5 -49t-45.5 -20q-26 0 -41.5 17.5zM67.5 6.5q-15.5 17.5 -15.5 45.5t17.5 47.5t44.5 19.5q26 0 41.5 -16.5t15.5 -44.5q0 -29 -16.5 -49t-45.5 -20q-26 0 -41.5 17.5z" />
    <glyph glyph-name="semicolon" unicode=";" horiz-adv-x="226" 
d="M72.5 339.5q-15.5 17.5 -15.5 45.5t17.5 47.5t44.5 19.5q26 0 41.5 -16.5t15.5 -44.5q0 -29 -16.5 -49t-45.5 -20q-26 0 -41.5 17.5zM47 -115q18 32 29 62t11 50q0 19 -9.5 35.5t-22.5 26.5q23 50 66 50q26 0 41.5 -18t15.5 -45q0 -44 -34.5 -95.5t-62.5 -79.5z" />
    <glyph glyph-name="less" unicode="&#x3c;" horiz-adv-x="530" 
d="M32 278l435 224l32 -66l-383 -187l383 -184l-31 -65l-436 216v62z" />
    <glyph glyph-name="equal" unicode="=" horiz-adv-x="530" 
d="M65 317v60h400v-60h-400zM65 158v60h400v-60h-400z" />
    <glyph glyph-name="greater" unicode="&#x3e;" horiz-adv-x="530" 
d="M31 65l383 184l-383 187l32 66l435 -224v-62l-436 -216z" />
    <glyph glyph-name="question" unicode="?" horiz-adv-x="361" 
d="M176 368q43 16 61 40.5t18 73.5q0 42 -11.5 61.5t-34.5 25t-70 5.5h-93q-2 3 -6.5 14.5t-4.5 22.5q0 27 15.5 39.5t65.5 12.5q99 0 157 -57.5t58 -152.5q0 -58 -32 -96.5t-84 -54.5l-53 -17l-21 -122h-49l-6 172zM71.5 5.5q-14.5 16.5 -14.5 42.5t16.5 44.5t41.5 18.5
t39.5 -15.5t14.5 -42.5q0 -26 -16 -45t-43 -19q-24 0 -38.5 16.5z" />
    <glyph glyph-name="at" unicode="@" horiz-adv-x="762" 
d="M192 -62.5q-79 45.5 -122.5 127.5t-43.5 187q0 96 51 183t140 140.5t197 53.5q99 0 172.5 -44t113 -116t39.5 -154q0 -122 -52.5 -190t-142.5 -68q-34 0 -64 17.5t-40 55.5q0 -1 -22 -19t-51.5 -33t-57.5 -15q-49 0 -73 36t-24 100q0 48 18 104t58 96t101 40
q19 0 39.5 -5.5t35.5 -11t19 -7.5l31 35h34l-43 -262q-3 -18 -3 -29q0 -24 14 -37t38 -13q50 0 82 45t32 141q0 94 -35 156.5t-94.5 92t-134.5 29.5q-73 0 -142 -30t-115 -100.5t-46 -184.5q0 -152 79 -230.5t214 -78.5q70 0 122.5 19.5t54.5 19.5l15 -27q0 -3 -29 -21
t-76 -33t-106 -15q-104 0 -183 45.5zM375 137q22 9 37.5 18.5t19.5 12.5l33 197q-2 1 -12.5 5t-30 8t-45.5 4q-17 0 -34 -5t-22 -10q-14 -16 -26 -59t-12 -82q0 -54 11.5 -76t38.5 -22q20 0 42 9z" />
    <glyph glyph-name="A" unicode="A" horiz-adv-x="608" 
d="M-9 41l63 16l221 596h48l230 -596l64 -16v-41h-239v41l71 16v18l-43 111h-241l-39 -111v-18l76 -16v-41h-211v41zM385 243l-97 257l-4 11l-2 5l-6 -18l-91 -255h200z" />
    <glyph glyph-name="B" unicode="B" horiz-adv-x="600" 
d="M59 43l83 17v528l-83 17v43h262q94 0 149 -42t55 -114q0 -56 -27.5 -91t-87.5 -56q64 -13 106.5 -60.5t42.5 -106.5q0 -84 -59 -131t-164 -47h-277v43zM279 357q76 0 115.5 34.5t39.5 99.5q0 99 -133 99q-36 0 -73 -5v-228h51zM424 87.5q36 32.5 36 93.5q0 64 -38.5 92.5
t-125.5 28.5h-68v-241q38 -6 92 -6q68 0 104 32.5z" />
    <glyph glyph-name="C" unicode="C" horiz-adv-x="612" 
d="M557 184v-152q-45 -19 -91.5 -31t-125.5 -12q-295 0 -295 327q0 92 38 171t109 126t163 47q126 0 198 -29v-157h-49l-21 110q-4 1 -22 5t-48 7.5t-65 3.5q-73 0 -117.5 -29t-64.5 -90.5t-20 -161.5q0 -125 54.5 -199.5t151.5 -74.5q44 0 74 8t46 17.5t16 11.5l20 102h49z
" />
    <glyph glyph-name="D" unicode="D" horiz-adv-x="703" 
d="M55 43l83 17v527l-83 18v43h296q148 0 227.5 -80t79.5 -228q0 -168 -88 -254t-260 -86h-255v43zM456 80.5q52 29.5 76.5 92t24.5 164.5q0 131 -57.5 192t-179.5 61q-60 0 -96 -7v-521q14 -5 41.5 -8t53.5 -3q85 0 137 29.5z" />
    <glyph glyph-name="E" unicode="E" horiz-adv-x="572" 
d="M138 60v528l-83 17v43h458v-164h-49l-21 109h-121l-98 -6v-229h158l15 59h42v-171h-42l-15 59h-158v-238q19 -4 49 -7t58 -3h120l22 107h49v-164h-467v43z" />
    <glyph glyph-name="F" unicode="F" horiz-adv-x="517" 
d="M55 43l83 17v528l-83 17v43h462v-164h-50l-21 109h-124l-98 -6v-249h167l14 60h42v-172h-42l-14 59h-167v-222l114 -14v-49h-283v43z" />
    <glyph glyph-name="G" unicode="G" horiz-adv-x="645" 
d="M413 278v43h197v-50l-41 -8v-263h-41l-32 27h-14q-57 -38 -153 -38q-140 0 -212 79.5t-72 247.5q0 93 37.5 171.5t108.5 125.5t168 47q72 0 126.5 -9.5t72.5 -20.5v-156h-48l-29 110q-4 1 -20.5 5t-46.5 8t-68 4q-109 0 -154.5 -67.5t-45.5 -207.5q0 -141 48.5 -211
t159.5 -70q45 0 71.5 7.5t59.5 24.5v183z" />
    <glyph glyph-name="H" unicode="H" horiz-adv-x="753" 
d="M55 44l83 15v530l-83 15v44h252v-44l-83 -15v-229h305v229l-82 15v44h251v-44l-82 -15v-530l82 -15v-44h-251v44l82 15v246h-305v-246l83 -15v-44h-252v44z" />
    <glyph glyph-name="I" unicode="I" horiz-adv-x="369" 
d="M59 44l82 15v530l-82 15v44h251v-44l-82 -15v-530l82 -15v-44h-251v44z" />
    <glyph glyph-name="J" unicode="J" horiz-adv-x="400" 
d="M58 157l29 -110q4 -2 18 -6t32 -4q58 0 58 62v488l-95 17v44h255v-44l-73 -15v-478q0 -66 -37.5 -95.5t-109.5 -29.5q-33 0 -60.5 6t-44 12.5t-20.5 8.5v144h48z" />
    <glyph glyph-name="K" unicode="K" horiz-adv-x="600" 
d="M138 59v530l-83 15v44h252v-44l-83 -15v-230h31l184 223v11l-58 12v43h204v-44l-57 -12l-196 -234l209 -298l64 -15v-45h-94q-25 0 -37 5.5t-24 23.5l-193 283h-33v-253l83 -15v-44h-252v44z" />
    <glyph glyph-name="L" unicode="L" horiz-adv-x="523" 
d="M55 43l83 17v528l-83 17v43h260v-47l-91 -15v-523l98 -8h113l22 107h49v-162h-451v43z" />
    <glyph glyph-name="M" unicode="M" horiz-adv-x="885" 
d="M55 0v42l73 16v534l-64 12v44h205l154 -458l15 -56l15 56l151 458h222v-44l-83 -15v-530l83 -15v-44h-252v44l82 15v522h-15l-8 -24l-188 -557h-48l-196 581h-12v-523l73 -16v-42h-207z" />
    <glyph glyph-name="N" unicode="N" horiz-adv-x="727" 
d="M55 0v42l70 16v532l-65 14v44h153l315 -499l13 -20h9v461l-69 16v42h199v-42l-69 -16v-590h-92l-325 516h-9v-458l70 -16v-42h-200z" />
    <glyph glyph-name="O" unicode="O" horiz-adv-x="696" 
d="M122 73.5q-77 86.5 -77 239.5q0 97 38 176t110.5 125t172.5 46q89 0 153 -40t98 -112.5t34 -169.5q0 -101 -32.5 -180t-101.5 -125t-173 -46q-145 0 -222 86.5zM505.5 114.5q44.5 70.5 44.5 204.5q0 112 -24.5 173.5t-67.5 84.5t-106 23q-67 0 -110 -18.5t-69.5 -79.5
t-26.5 -183q0 -147 54 -211t164 -64q97 0 141.5 70.5z" />
    <glyph glyph-name="P" unicode="P" horiz-adv-x="565" 
d="M55 43l83 17v528l-83 17v43h249q243 0 243 -164q0 -109 -64 -166.5t-174 -57.5q-24 0 -36 2l-5 39q91 0 139 35.5t48 117.5q0 137 -152 137q-25 0 -48.5 -2t-30.5 -3v-523l111 -17v-46h-280v43z" />
    <glyph glyph-name="Q" unicode="Q" horiz-adv-x="702" 
d="M355 -22.5q-18 8.5 -48 13.5q-126 6 -194 93t-68 234q0 91 40.5 169.5t113.5 125.5t167 47q89 0 153 -39t98 -110.5t34 -167.5q0 -65 -19 -132t-65.5 -123t-123.5 -81l148 -93h105v-35q-4 -3 -20 -11t-39.5 -16t-45.5 -8q-40 0 -72 21l-129 92q-17 12 -35 20.5z
M505.5 118q44.5 73 44.5 206q0 112 -25 172.5t-68 82.5t-105 22q-66 0 -109 -18.5t-70 -79t-27 -179.5q0 -140 58 -209.5t166 -69.5q91 0 135.5 73z" />
    <glyph glyph-name="R" unicode="R" horiz-adv-x="611" 
d="M55 43l83 17v528l-83 17v43h284q89 0 144 -40t55 -120q0 -59 -20.5 -97t-50 -59t-70.5 -39l141 -231l68 -19v-43h-104q-17 0 -32 7.5t-23 22.5l-137 243h-86v-213l83 -17v-43h-252v43zM287 328q69 0 113 39.5t44 102.5q0 73 -39.5 97t-99.5 24q-41 0 -81 -5v-258h63z" />
    <glyph glyph-name="S" unicode="S" horiz-adv-x="514" 
d="M137.5 6.5q-55.5 16.5 -79.5 37.5v143h54l15 -100q22 -16 55.5 -27.5t61.5 -11.5q75 0 107 25t32 89q0 35 -18 58.5t-45.5 38.5t-71.5 31q-65 23 -100.5 41t-62 53t-26.5 93q0 83 58 133t156 50q46 0 98 -8.5t71 -16.5v-151h-49l-19 94q-3 2 -17 7.5t-37 10.5t-50 5
q-71 0 -97.5 -25t-26.5 -71q0 -38 21.5 -62t49.5 -37t88 -36q51 -19 85 -39.5t56.5 -56.5t22.5 -90q0 -67 -32 -110.5t-82 -63.5t-105 -20q-57 0 -112.5 16.5z" />
    <glyph glyph-name="T" unicode="T" horiz-adv-x="541" 
d="M145 44l82 15v531h-142l-21 -106h-49v164h511v-164h-49l-20 106h-143v-531l82 -15v-44h-251v44z" />
    <glyph glyph-name="U" unicode="U" horiz-adv-x="732" 
d="M45 604v44h251v-44l-82 -15v-311q0 -91 14.5 -138.5t52 -67t109.5 -19.5q90 0 125 54.5t35 170.5v309l-82 16v45h229v-45l-82 -16v-309q0 -101 -21.5 -163.5t-77 -95t-157.5 -32.5q-93 0 -143 32t-69.5 94t-19.5 165v311z" />
    <glyph glyph-name="V" unicode="V" horiz-adv-x="602" 
d="M283 -5l-231 596l-61 16v41h240v-41l-75 -16v-15l152 -421l12 -34l14 38l146 414v18l-80 16v41h211v-41l-59 -16l-220 -596h-49z" />
    <glyph glyph-name="W" unicode="W" horiz-adv-x="945" 
d="M256 -5l-195 596l-61 16v41h240v-41l-75 -16v-18l126 -421l10 -32h3l11 33l127 362l-28 76l-74 16v41h253v-41l-75 -16v-18l152 -420l11 -31h5l9 31l119 420v18l-80 16v41h211v-41l-59 -16l-184 -596h-59l-160 410l-6 16h-7l-7 -19l-148 -407h-59z" />
    <glyph glyph-name="X" unicode="X" horiz-adv-x="593" 
d="M5 45l63 13l183 265l-180 259l-63 21v45h242v-45l-60 -13v-19l122 -177l128 180v18l-69 13v43h221v-42l-66 -14l-180 -250l191 -283l71 -14v-45h-252v45l70 14v12l-140 201l-138 -198v-18l65 -13v-43h-208v45z" />
    <glyph glyph-name="Y" unicode="Y" horiz-adv-x="584" 
d="M179 44l82 15v173l-200 359l-62 16v41h241v-41l-75 -16v-18l145 -274h14l142 274v18l-79 16v41h211v-41l-60 -16l-190 -347v-185l82 -15v-44h-251v44z" />
    <glyph glyph-name="Z" unicode="Z" horiz-adv-x="559" 
d="M35 59l360 511v19h-272l-29 -104h-49v163h470v-66l-370 -511v-12h301l29 104h49v-163h-489v59z" />
    <glyph glyph-name="bracketleft" unicode="[" horiz-adv-x="252" 
d="M70 699h158v-43l-88 -12v-740l88 -12v-43h-158v850z" />
    <glyph glyph-name="backslash" unicode="\" horiz-adv-x="350" 
d="M-54 668l60 27l365 -835l-62 -27z" />
    <glyph glyph-name="bracketright" unicode="]" horiz-adv-x="252" 
d="M24 -108l88 12v740l-88 12v43h158v-850h-158v43z" />
    <glyph glyph-name="asciicircum" unicode="^" horiz-adv-x="530" 
d="M235 649h62l190 -387h-74l-147 311l-149 -311h-73z" />
    <glyph glyph-name="underscore" unicode="_" horiz-adv-x="450" 
d="M0 -1h450v-59h-450v59z" />
    <glyph glyph-name="grave" unicode="`" horiz-adv-x="202" 
d="M23 700.5q14 16.5 28 16.5q10 0 18.5 -7.5t23.5 -23.5l109 -121l-28 -30l-174 120q9 29 23 45.5z" />
    <glyph glyph-name="a" unicode="a" horiz-adv-x="480" 
d="M73 28q-35 35 -35 89q0 126 179 151l90 13v75q0 84 -98 84q-22 0 -39.5 -3.5l-22.5 -4.5l-15 -92q0 -1 -9 -4t-23 -3q-18 0 -32 13t-14 33q0 38 37 66.5t86.5 43.5t80.5 15q63 0 97 -32.5t34 -82.5v-321l71 -14v-38q-4 -2 -18 -6.5t-36 -9t-46 -4.5q-44 0 -48 46h-4
q-13 -14 -49.5 -31.5t-78.5 -17.5q-72 0 -107 35zM260 60q20 4 32 8.5t15 5.5v159q-95 -7 -138 -30.5t-43 -70.5q0 -32 24.5 -54t67.5 -22q22 0 42 4z" />
    <glyph glyph-name="b" unicode="b" horiz-adv-x="518" 
d="M195 5q-29 14 -46 30h-8l-28 -38h-41v623l-82 13v39l137 27l27 -14v-233q20 19 55 35.5t84 16.5q84 0 134.5 -56.5t50.5 -171.5q0 -91 -28.5 -155t-76.5 -97t-106 -33q-43 0 -72 14zM354 95.5q34 46.5 34 152.5q0 98 -30 142t-101 44q-49 0 -103 -15v-350q17 -7 45 -13.5
t56 -6.5q65 0 99 46.5z" />
    <glyph glyph-name="c" unicode="c" horiz-adv-x="439" 
d="M377 34q-22 -16 -57.5 -29.5t-80.5 -13.5q-62 0 -110.5 28t-76 83t-27.5 132q0 73 26 134.5t77.5 98.5t122.5 37q72 0 112.5 -36.5t40.5 -88.5q0 -17 -13 -31.5t-33 -14.5q-16 0 -24 3t-8 4l-16 94q-2 1 -10 4t-22.5 5.5t-32.5 2.5q-73 0 -102.5 -48t-29.5 -152
q0 -99 40 -142t121 -43q28 0 53 4.5t40 9.5t19 7l13 -30q0 -2 -22 -18z" />
    <glyph glyph-name="d" unicode="d" horiz-adv-x="538" 
d="M92.5 47.5q-52.5 56.5 -52.5 170.5q0 100 32.5 164t81.5 93t99 29q65 0 110 -39v155l-82 23v39l136 17l28 -14v-615l71 -15v-39l-136 -20l-13 52l-4 1q-20 -21 -56 -39.5t-83 -18.5q-79 0 -131.5 56.5zM314 69q29 8 49 18v338q-16 6 -41.5 11t-52.5 5q-67 0 -103.5 -42.5
t-36.5 -147.5q0 -99 28 -144.5t98 -45.5q30 0 59 8z" />
    <glyph glyph-name="e" unicode="e" horiz-adv-x="459" 
d="M80 59q-55 68 -55 174q0 79 28.5 140.5t79.5 96t115 34.5q82 0 123 -53t41 -129q0 -53 -10 -71t-38 -18h-251q0 -76 37.5 -124t119.5 -48q35 0 61.5 5.5t41 11t17.5 7.5l14 -28q0 -2 -22.5 -19.5t-59 -32t-82.5 -14.5q-105 0 -160 68zM328 287q3 18 3 40q0 60 -21.5 89.5
t-76.5 29.5q-60 0 -89 -42t-30 -125z" />
    <glyph glyph-name="f" unicode="f" horiz-adv-x="300" 
d="M15 41l69 14v382h-61v47l60 12q4 59 32 105.5t72 73t94 26.5q27 0 41.5 -13.5t14.5 -34.5q0 -17 -9.5 -30.5t-18.5 -17.5q-50 13 -74 19t-37 6q-19 0 -32 -9v-127h127v-31l-13 -26h-114v-380l104 -16v-41h-255v41z" />
    <glyph glyph-name="g" unicode="g" horiz-adv-x="461" 
d="M76.5 -138.5q-54.5 27.5 -54.5 83.5q0 45 33.5 74.5t80.5 53.5q-9 8 -14.5 22t-5.5 30q0 18 13 35t32 30q-62 13 -92 52t-30 91q0 48 25.5 87t70 61.5t97.5 22.5q66 0 107 -31q1 1 27 21.5t61 20.5q44 0 44 -43q0 -23 -18 -44l-37 8q-8 1 -20.5 3.5t-25.5 2.5
q15 -21 22.5 -46.5t7.5 -49.5q0 -48 -25.5 -84.5t-68.5 -56.5t-93 -20h-13v-56l106 -21q73 -14 110 -39.5t37 -76.5q0 -48 -32 -83.5t-86.5 -55t-120.5 -19.5q-83 0 -137.5 27.5zM294.5 265.5q24.5 22.5 24.5 80.5q0 49 -22.5 74.5t-73.5 25.5q-54 0 -77.5 -25.5
t-23.5 -79.5q0 -51 25 -74.5t74 -23.5t73.5 22.5zM339 -91.5q37 22.5 37 59.5q0 23 -14.5 39t-54.5 24l-138 26q-26 -18 -45 -46t-19 -53q0 -39 30.5 -55.5t100.5 -16.5q66 0 103 22.5z" />
    <glyph glyph-name="h" unicode="h" horiz-adv-x="575" 
d="M24 41l81 14v567l-80 14v41l139 22l23 -9v-237q34 22 78.5 36.5t78.5 14.5q57 0 94 -33t37 -104v-312l80 -14v-41h-240v41l78 14v298q0 45 -26 63t-79 18q-20 0 -49 -4t-52 -9v-366l79 -14v-41h-242v41z" />
    <glyph glyph-name="i" unicode="i" horiz-adv-x="293" 
d="M98.5 585q-15.5 17 -15.5 45q0 27 17.5 46.5t43.5 19.5t41 -16t15 -44t-16.5 -48t-44.5 -20q-25 0 -40.5 17zM28 41l80 14v356l-80 14v41l139 28l23 -9v-430l78 -14v-41h-240v41z" />
    <glyph glyph-name="j" unicode="j" horiz-adv-x="259" 
d="M81.5 585q-15.5 17 -15.5 45q0 27 17.5 46.5t43.5 19.5t41 -16t15 -44t-16.5 -48t-44.5 -20q-25 0 -40.5 17zM13.5 -160.5q-26.5 4.5 -26.5 5.5v38l108 26v502l-80 14v41l139 28l23 -9v-568q0 -39 -27.5 -60.5t-79.5 -21.5q-30 0 -56.5 4.5z" />
    <glyph glyph-name="k" unicode="k" horiz-adv-x="489" 
d="M99 55v567l-80 14v41l139 22l23 -9v-395h56l106 132v14l-59 13v40h192v-41l-60 -16l-116 -148l133 -230l82 -18v-41h-162v18q0 15 -7 25l-113 199h-52v-187l78 -14v-41h-240v41z" />
    <glyph glyph-name="l" unicode="l" horiz-adv-x="283" 
d="M19 41l80 14v567l-80 14v41l139 22l23 -9v-635l78 -14v-41h-240v41z" />
    <glyph glyph-name="m" unicode="m" horiz-adv-x="848" 
d="M26 41l80 14v357l-80 16v38l135 28l27 -41q34 22 76.5 36.5t74.5 14.5q34 0 65 -15t47 -39q29 22 79 38t89 16q55 0 92 -36.5t37 -91.5v-321l80 -14v-41h-240v41l78 14v298q0 44 -22.5 62.5t-75.5 18.5q-19 0 -48.5 -4t-52.5 -9v-25v-341l63 -15v-40h-210v40l65 15v298
q0 44 -22 62.5t-75 18.5q-18 0 -46 -4t-54 -10v-365l79 -14v-41h-241v41z" />
    <glyph glyph-name="n" unicode="n" horiz-adv-x="576" 
d="M26 41l80 14v356l-80 14v41l149 28l8 -33l2 -6q91 49 160 49q62 0 96.5 -36t34.5 -101v-312l80 -14v-41h-240v41l78 14v298q0 43 -25 62t-80 19q-26 0 -55 -3.5t-46 -8.5v-367l78 -14v-41h-240v41z" />
    <glyph glyph-name="o" unicode="o" horiz-adv-x="497" 
d="M79.5 58q-54.5 67 -54.5 182q0 71 28 131.5t80 96.5t121 36q105 0 160 -64.5t55 -176.5q0 -77 -27 -139t-79.5 -97.5t-126.5 -35.5q-102 0 -156.5 67zM351 98q28 49 28 147q0 105 -29.5 153t-101.5 48q-54 0 -83 -23t-39.5 -65.5t-10.5 -112.5q0 -96 31.5 -146t108.5 -50
q68 0 96 49z" />
    <glyph glyph-name="p" unicode="p" horiz-adv-x="540" 
d="M25 -123l69 14v520l-80 14v41l149 28l11 -41l1 -3q29 25 67 39.5t73 14.5q90 0 137.5 -58.5t47.5 -169.5q0 -84 -27 -146.5t-76.5 -96t-115.5 -33.5q-28 0 -56 9t-49 25v-143l87 -12v-44h-238v42zM377.5 103.5q32.5 45.5 32.5 144.5q0 100 -30.5 143t-100.5 43
q-51 0 -103 -15v-336q19 -11 46 -18t53 -7q70 0 102.5 45.5z" />
    <glyph glyph-name="q" unicode="q" horiz-adv-x="518" 
d="M290 -123l74 14v159q-23 -23 -59.5 -36.5t-75.5 -13.5q-91 0 -140 57t-49 161q0 82 28 147t78 102t113 37q31 0 60 -10t51 -28h5l40 28h31v-603l64 -14v-42h-220v42zM312.5 70q28.5 8 51.5 21v334q-18 7 -44.5 11.5t-50.5 4.5q-68 0 -104 -48.5t-36 -141.5
q0 -100 31 -144.5t100 -44.5q24 0 52.5 8z" />
    <glyph glyph-name="r" unicode="r" horiz-adv-x="359" 
d="M99 55v361l-78 14v41l144 27l16 -55q5 5 24 19.5t44 28t45 13.5t32 -13.5t12 -35.5q0 -16 -6.5 -28t-14 -18.5t-9.5 -7.5l-46 12q-10 3 -18 4t-18 1q-14 0 -29 -3.5t-16 -3.5v-355l92 -13v-43h-243v41z" />
    <glyph glyph-name="s" unicode="s" horiz-adv-x="413" 
d="M83 152l14 -78q15 -11 39.5 -19.5t55.5 -8.5q58 0 80.5 23t22.5 64q0 26 -14.5 42t-36 24.5t-59.5 18.5q-48 12 -78.5 25t-52 42t-21.5 78q0 68 51 104.5t131 36.5q43 0 85 -9t58 -18l-14 -125h-41l-14 80q0 1 -29 8t-53 7q-54 0 -75.5 -17.5t-21.5 -55.5q0 -23 14 -37.5
t34.5 -22.5t57.5 -18q49 -13 80.5 -27t54 -43.5t22.5 -79.5q0 -83 -51.5 -119t-133.5 -36q-49 0 -95 13t-63 26l12 122h41z" />
    <glyph glyph-name="t" unicode="t" horiz-adv-x="343" 
d="M13 442v42l78 21l24 104h58v-114h141v-28l-14 -25h-127v-328q0 -30 11.5 -40t38.5 -10q24 0 48.5 5.5t31.5 7.5l10 -32q2 0 -17.5 -13.5t-45.5 -24.5t-51 -11q-60 0 -84 28.5t-24 82.5v335h-78z" />
    <glyph glyph-name="u" unicode="u" horiz-adv-x="557" 
d="M128.5 27q-38.5 36 -38.5 102v295l-83 14v38l137 28l28 -14v-318q0 -65 24 -90.5t85 -25.5q21 0 48.5 8t48.5 20v340l-82 14v38l137 28l28 -14v-419l71 -16v-38l-139 -20l-15 50l-1 -1q-22 -25 -61 -40t-79 -15q-70 0 -108.5 36z" />
    <glyph glyph-name="v" unicode="v" horiz-adv-x="457" 
d="M34 438l-56 12v44h219v-42l-64 -14v-14l102 -274l10 -38l10 47l100 264v14l-63 15v42h185v-43l-53 -15l-174 -441h-36z" />
    <glyph glyph-name="w" unicode="w" horiz-adv-x="726" 
d="M204 -5l-163 441l-58 15v43h218v-45l-66 -11v-12l83 -251l10 -46l11 56l98 309h87l95 -319l9 -46l11 56l76 238v15l-63 11v45h184v-42l-58 -19l-144 -438h-41l-126 398l-125 -398h-38z" />
    <glyph glyph-name="x" unicode="x" horiz-adv-x="493" 
d="M-5 0v40l66 16l138 187l-135 194l-59 14v43h219v-45l-55 -8v-14l86 -121l88 119v14l-55 10v45h182v-42l-55 -15l-129 -177l144 -205l68 -15v-40h-225v40l51 9v14l-93 134l-97 -131v-14l64 -11v-41h-203z" />
    <glyph glyph-name="y" unicode="y" horiz-adv-x="455" 
d="M475 494v-42l-54 -16l-212 -545q-22 -57 -103 -57q-17 0 -38.5 3t-36.5 7v38l114 29l54 118l-163 406l-58 16v43h219v-45l-66 -9v-15l103 -270l8 -34l12 44l100 260v12l-64 11v46h185z" />
    <glyph glyph-name="z" unicode="z" horiz-adv-x="434" 
d="M19 0v50l274 378v13h-195l-14 -83h-41l-14 136h360v-74l-256 -352v-16h209l14 85h41l14 -137h-392z" />
    <glyph glyph-name="braceleft" unicode="{" horiz-adv-x="207" 
d="M72 -93.5q-35 40.5 -35 100.5l2 15l28 218l-61 27v34l61 27l-28 198l-2 15q0 60 34.5 100.5t92.5 57.5l18 -41q-29 -16 -43 -28.5t-19.5 -30t-5.5 -49.5l15 -200q0 -34 -18.5 -49t-32.5 -18q16 -5 33.5 -19.5t17.5 -47.5l-16 -218q0 -31 6 -48.5t19.5 -30t43.5 -28.5
l-17 -42q-58 17 -93 57.5z" />
    <glyph glyph-name="bar" unicode="|" horiz-adv-x="361" 
d="M150 699h60v-855h-60v855z" />
    <glyph glyph-name="braceright" unicode="}" horiz-adv-x="207" 
d="M25 -109q30 16 43.5 28.5t19.5 30t6 48.5l-16 218q0 33 17.5 48t33.5 19q-14 2 -32.5 17.5t-18.5 49.5l15 200q0 32 -5.5 49.5t-19.5 30t-43 28.5l18 41q58 -17 92.5 -57.5t34.5 -100.5l-1 -11l-29 -202l60 -27v-34l-60 -27l28 -217l2 -16q0 -60 -35 -100.5t-93 -57.5z
" />
    <glyph glyph-name="asciitilde" unicode="~" horiz-adv-x="530" 
d="M305.5 234.5q-25.5 5.5 -34.5 7.5l-101 23l-75 -33l-21 26l35 46q23 31 59 31q25 0 91 -14l101 -23l76 35l20 -28l-36 -47q-23 -29 -61 -29q-28 0 -53.5 5.5z" />
    <glyph glyph-name="uni00A0" unicode="&#xa0;" horiz-adv-x="201" 
 />
    <glyph glyph-name="exclamdown" unicode="&#xa1;" horiz-adv-x="201" 
d="M55.5 415.5q-14.5 15.5 -14.5 42.5q0 26 16 45t43 19q24 0 38.5 -16.5t14.5 -42.5t-16.5 -44.5t-41.5 -18.5t-39.5 15.5zM61.5 -151q-10.5 15 -10.5 41l24 461h44l34 -507q0 -1 -13.5 -5.5t-36.5 -4.5q-31 0 -41.5 15z" />
    <glyph glyph-name="cent" unicode="&#xa2;" horiz-adv-x="500" 
d="M120 136.5q-50 65.5 -50 177.5q0 103 47 181.5t141 96.5l4 111h56l4 -106q29 -1 54.5 -6t41.5 -9.5t20 -6.5v-135h-50l-15 80q-7 2 -31 6t-48 4q-76 0 -105 -49.5t-29 -154.5q0 -97 37 -148t105 -51q37 0 67 4t47.5 8.5t21.5 6.5v-35q-4 -3 -19.5 -13.5t-41.5 -22
t-55 -15.5l-4 -111h-55l-4 111q-89 11 -139 76.5z" />
    <glyph glyph-name="sterling" unicode="&#xa3;" horiz-adv-x="516" 
d="M87 103.5q21 38.5 21 70.5v140h-69v57h69v95q0 90 49.5 141t142.5 51q37 0 80.5 -7t69.5 -18v-141h-49l-23 92q-10 6 -34.5 9.5t-49.5 3.5q-58 0 -81.5 -29t-23.5 -102v-95h129v-57h-129v-140q0 -35 -14 -61.5t-38 -36.5v-5h265l22 107h49v-178h-435v43q28 22 49 60.5z
" />
    <glyph glyph-name="currency" unicode="&#xa4;" horiz-adv-x="530" 
d="M59 326q0 68 40 122l-85 89l37 37l90 -86q54 39 119 39q70 0 124 -43l95 90l37 -37l-92 -96q37 -51 37 -115q0 -65 -39 -119l94 -97l-37 -37l-97 93q-54 -41 -122 -41q-65 0 -117 36l-92 -88l-37 37l87 91q-42 55 -42 125zM149 262.5q18 -29.5 47.5 -47t63.5 -17.5
t63.5 17.5t47.5 47t18 63.5t-18 63.5t-47.5 47.5t-63.5 18t-63.5 -18t-47.5 -47.5t-18 -63.5t18 -63.5z" />
    <glyph glyph-name="yen" unicode="&#xa5;" horiz-adv-x="550" 
d="M387 648h211v-41l-60 -16l-124 -226l115 -4v-46l-145 -5l-34 -63l179 -6v-45l-181 -6v-131l82 -15v-44h-251v44l82 15v131l-175 6v45l167 6l-35 63l-132 5v46l101 4l-126 226l-62 16v41h241v-41l-75 -16v-18l145 -274h14l142 274v18l-79 16v41z" />
    <glyph glyph-name="brokenbar" unicode="&#xa6;" horiz-adv-x="361" 
d="M150 699h60v-365h-60v365zM150 209h60v-365h-60v365z" />
    <glyph glyph-name="section" unicode="&#xa7;" horiz-adv-x="551" 
d="M267 339q-59 37 -92 62.5t-54.5 58.5t-21.5 75q0 76 49 118.5t145 42.5q46 0 92.5 -8t66.5 -17v-147h-49l-19 94q-3 1 -15 4t-33.5 6t-48.5 3q-56 0 -78.5 -18.5t-22.5 -67.5q0 -25 14 -45.5t39 -40.5t78 -56l33 -23l149 -106l-43 -62l-139 94zM155 35l19 -107
q15 -12 42.5 -24t63.5 -12q61 0 89.5 23t28.5 74q0 37 -32 67t-99 75l-35 24l-149 101l43 62l174 -111q93 -58 136 -104t43 -103q0 -80 -57 -123t-139 -43q-55 0 -107 14t-75 34v153h54z" />
    <glyph glyph-name="dieresis" unicode="&#xa8;" horiz-adv-x="317" 
d="M14 590.5q-14 15.5 -14 40.5t15.5 42.5t39.5 17.5q23 0 37 -14.5t14 -39.5q0 -26 -15 -44t-40 -18q-23 0 -37 15.5zM225 590.5q-14 15.5 -14 40.5t15.5 42.5t39.5 17.5q23 0 37 -14.5t14 -39.5q0 -26 -15 -44t-40 -18q-23 0 -37 15.5z" />
    <glyph glyph-name="copyright" unicode="&#xa9;" horiz-adv-x="647" 
d="M42 488.5q44 74.5 118.5 118.5t163.5 44t163.5 -44t118.5 -118.5t44 -163.5t-44 -163.5t-118.5 -118.5t-163.5 -44t-163.5 44t-118.5 118.5t-44 163.5t44 163.5zM459 88.5q61 36.5 96 99t35 136.5t-35 136.5t-96 99t-135 36.5t-134.5 -36.5t-94.5 -99t-34 -136.5
t34 -136.5t94.5 -99t134.5 -36.5t135 36.5zM438 270v-93q-49 -22 -119 -22q-156 0 -156 168q0 47 20 86t57 62.5t87 23.5q32 0 61.5 -4t46.5 -11v-94h-33l-10 52q-4 1 -19.5 3.5t-39.5 2.5q-36 0 -57.5 -10.5t-31.5 -36.5t-10 -75q0 -64 25 -90.5t75 -26.5q23 0 37 2.5
t19.5 5.5t6.5 4l10 53h31z" />
    <glyph glyph-name="ordfeminine" unicode="&#xaa;" horiz-adv-x="376" 
d="M50 378q-27 23 -27 63t31 67.5t84 34.5l79 11v47q0 58 -69 58q-17 0 -39 -5l-15 -60q-10 -5 -28 -5q-33 0 -33 32q0 19 23 39t58 33.5t68 13.5q48 0 77 -21.5t29 -57.5v-216l51 -15v-26q-17 -6 -37.5 -10t-36.5 -4q-19 0 -32 8t-16 22l-2 -1q-16 -14 -41.5 -22.5
t-50.5 -8.5q-46 0 -73 23zM189 408q17 3 28 8v100q-64 -4 -92 -19t-28 -46q0 -22 16.5 -34t45.5 -12q13 0 30 3z" />
    <glyph glyph-name="guillemotleft" unicode="&#xab;" horiz-adv-x="379" 
d="M68.5 197q-13.5 15 -21.5 27.5t-8 20.5q0 13 39 58l102 114l25 -16l-84 -156l84 -158l-25 -16l-93 104q-5 7 -18.5 22zM219.5 197q-13.5 15 -21.5 27.5t-8 20.5q0 13 39 58l102 114l25 -16l-84 -156l84 -158l-25 -16l-93 104q-5 7 -18.5 22z" />
    <glyph glyph-name="logicalnot" unicode="&#xac;" horiz-adv-x="530" 
d="M40 364h422v-242h-53v182h-369v60z" />
    <glyph glyph-name="uni00AD" unicode="&#xad;" horiz-adv-x="313" 
d="M41 297l215 17v-77h-215v60z" />
    <glyph glyph-name="registered" unicode="&#xae;" horiz-adv-x="691" 
d="M194 266.5q-63 36.5 -99.5 99.5t-36.5 137t36.5 137t99.5 99.5t137 36.5t137 -36.5t99.5 -99.5t36.5 -137t-36.5 -137t-99.5 -99.5t-137 -36.5t-137 36.5zM439.5 311.5q49.5 29.5 78 80t28.5 111.5t-28.5 111.5t-78 80t-108.5 29.5q-60 0 -109 -29.5t-77.5 -80
t-28.5 -111.5t28.5 -111.5t77.5 -80t109 -29.5q59 0 108.5 29.5zM188 382l37 7v225l-37 6v28h160q43 0 68.5 -20t25.5 -54q0 -32 -17 -57t-46 -35l62 -90l36 -9v-25h-71q-17 0 -24 13l-65 101h-28v-83l37 -7v-24h-138v24zM317 505q57 0 57 64q0 25 -11.5 35t-39.5 10
q-18 0 -34 -3v-106h28z" />
    <glyph glyph-name="macron" unicode="&#xaf;" horiz-adv-x="343" 
d="M10 663h332l-10 -57h-332z" />
    <glyph glyph-name="degree" unicode="&#xb0;" horiz-adv-x="238" 
d="M50 639q28 28 68 28q41 0 69 -28t28 -69q0 -40 -28 -68t-69 -28q-40 0 -68 28t-28 68q0 41 28 69zM81 532q15 -15 37 -15t37.5 15t15.5 37q0 23 -15 38t-38 15q-22 0 -37 -15.5t-15 -37.5t15 -37z" />
    <glyph glyph-name="plusminus" unicode="&#xb1;" horiz-adv-x="530" 
d="M230 125v171h-166v59h166v170h67v-170h167v-59h-167v-171h-67zM64 -1v59h400v-59h-400z" />
    <glyph glyph-name="uni00B2" unicode="&#xb2;" horiz-adv-x="343" 
d="M125 483q44 41 65.5 68.5t21.5 53.5q0 29 -15 39.5t-47 10.5q-18 0 -33 -4t-19 -6l-10 -55h-40v85q16 11 46 21.5t62 10.5q62 0 96.5 -21t34.5 -71q0 -38 -23.5 -70.5t-85.5 -85.5l-53 -45v-4h132l11 54h39v-103h-271v37z" />
    <glyph glyph-name="uni00B3" unicode="&#xb3;" horiz-adv-x="343" 
d="M93 460l5 -46q22 -11 60 -11q75 0 75 54q0 34 -19.5 48t-57.5 14h-27l-8 21v24h26q32 0 54.5 12.5t22.5 37.5q0 45 -65 45q-20 0 -37.5 -4.5t-17.5 -5.5l-8 -54h-41l-3 84q16 9 46.5 18.5t65.5 9.5q59 0 91 -23t32 -63q0 -28 -18 -47.5t-43 -26.5q74 -17 74 -83
q0 -53 -40.5 -81t-100.5 -28q-28 0 -60 7.5t-50 16.5l4 81h40z" />
    <glyph glyph-name="acute" unicode="&#xb4;" horiz-adv-x="202" 
d="M109 686q15 16 23.5 23.5t18.5 7.5q14 0 28 -16.5t23 -45.5l-174 -120l-28 30z" />
    <glyph glyph-name="uni00B5" unicode="&#xb5;" horiz-adv-x="530" 
d="M72 -149v643l54 10l28 -14v-322q0 -64 23.5 -87.5t85.5 -23.5q19 0 46.5 6.5t50.5 16.5v414l55 10l28 -14v-423l80 -13v-38q-23 -9 -54 -14.5t-55 -5.5q-20 0 -35 12.5t-19 34.5l-2 -1q-32 -22 -73.5 -36.5t-73.5 -14.5q-45 0 -75 15q6 -21 7 -34l11 -125l-54 -10z" />
    <glyph glyph-name="paragraph" unicode="&#xb6;" horiz-adv-x="640" 
d="M195 226.5q-52 30.5 -82.5 82.5t-30.5 113t30.5 113t82.5 82.5t113 30.5h284v-41l-78 -14h-141v-650h-65v253q-61 0 -113 30.5zM363 -109q37 4 55.5 14.5t24.5 27t6 46.5v569h65v-590q0 -49 -32.5 -86t-102.5 -37h-149v41z" />
    <glyph glyph-name="periodcentered" unicode="&#xb7;" horiz-adv-x="191" 
d="M52.5 215.5q-15.5 17.5 -15.5 45.5t17.5 47.5t44.5 19.5q26 0 41.5 -16.5t15.5 -44.5q0 -29 -16.5 -49t-45.5 -20q-26 0 -41.5 17.5z" />
    <glyph glyph-name="cedilla" unicode="&#xb8;" horiz-adv-x="159" 
d="M16.5 -183q-16.5 4 -35.5 12l16 37q28 -11 54 -11q59 0 59 30q0 15 -7 20.5t-24 8.5l-37 8l-19 19l25 59h41v-29l17 -4q36 -9 54 -21t18 -42q0 -48 -35.5 -69.5t-87.5 -21.5q-22 0 -38.5 4z" />
    <glyph glyph-name="uni00B9" unicode="&#xb9;" horiz-adv-x="343" 
d="M56 401l91 4v245h-95v41l109 10h54v-296l91 -4v-40h-250v40z" />
    <glyph glyph-name="ordmasculine" unicode="&#xba;" horiz-adv-x="386" 
d="M70 400.5q-40 45.5 -40 124.5q0 48 20.5 90t58.5 67t88 25q73 0 115 -45t42 -121q0 -50 -19.5 -92.5t-57.5 -68t-92 -25.5q-75 0 -115 45.5zM263 437.5q18 29.5 18 91.5q0 66 -19.5 93t-68.5 27q-54 0 -72 -29t-18 -91q0 -66 20.5 -93.5t74.5 -27.5q47 0 65 29.5z" />
    <glyph glyph-name="guillemotright" unicode="&#xbb;" horiz-adv-x="379" 
d="M23 401l25 16l102 -114q39 -45 39 -58q0 -9 -9.5 -22.5t-21.5 -27t-17 -20.5l-93 -104l-25 16l84 158zM174 401l25 16l102 -114q39 -45 39 -58q0 -9 -9.5 -22.5t-21.5 -27t-17 -20.5l-93 -104l-25 16l84 158z" />
    <glyph glyph-name="onequarter" unicode="&#xbc;" horiz-adv-x="747" 
d="M561 690l49 -32l-484 -703l-52 33zM34 351l61 4v245h-65v41l79 10h54v-296l61 -4v-40h-190v40zM502 40l61 4v51h-145l-19 34l170 231l62 -22v-200h53v-43h-53v-51l61 -4v-40h-190v40zM563 138v141l-100 -138l1 -3h99z" />
    <glyph glyph-name="onehalf" unicode="&#xbd;" horiz-adv-x="719" 
d="M108 -44l-52 33l487 702l49 -32zM34 311v40l61 4v245h-65v41l79 10h54v-296l61 -4v-40h-190zM407 37l89 85q44 41 65.5 68.5t21.5 53.5q0 29 -15 39.5t-47 10.5q-18 0 -33 -4t-19 -6l-10 -55h-40v85q16 11 46 21.5t62 10.5q62 0 96.5 -21t34.5 -71q0 -38 -23.5 -70.5
t-85.5 -85.5l-53 -45v-4h132l11 54h39v-103h-271v37z" />
    <glyph glyph-name="threequarters" unicode="&#xbe;" horiz-adv-x="679" 
d="M135 -45l-52 33l487 702l49 -32zM80 312.5q-32 7.5 -50 16.5l4 81h40l5 -46q22 -11 60 -11q75 0 75 54q0 34 -19.5 48t-57.5 14h-27l-8 21v24h26q32 0 54.5 12.5t22.5 37.5q0 45 -65 45q-20 0 -37.5 -4.5t-17.5 -5.5l-8 -54h-41l-3 84q16 9 46.5 18.5t65.5 9.5
q59 0 91 -23t32 -63q0 -28 -18 -47.5t-43 -26.5q74 -17 74 -83q0 -53 -40.5 -81t-100.5 -28q-28 0 -60 7.5zM461 0v40l61 4v51h-145l-19 34l170 231l62 -22v-200h53v-43h-53v-51l61 -4v-40h-190zM423 138h99v141l-100 -138z" />
    <glyph glyph-name="questiondown" unicode="&#xbf;" horiz-adv-x="362" 
d="M201.5 407.5q-14.5 15.5 -14.5 42.5q0 26 16 45t43 19q24 0 38.5 -16.5t14.5 -42.5t-16.5 -44.5t-41.5 -18.5t-39.5 15.5zM89 -102.5q-58 57.5 -58 152.5q0 58 32 96.5t84 54.5l53 17l21 122h49l6 -172l-90 -33q-43 -16 -61 -40.5t-18 -73.5q0 -42 11.5 -61.5t34.5 -25
t70 -5.5h93q2 -3 6.5 -14.5t4.5 -22.5q0 -27 -15.5 -39.5t-65.5 -12.5q-99 0 -157 57.5z" />
    <glyph glyph-name="Agrave" unicode="&#xc0;" horiz-adv-x="608" 
d="M179 818q12 18 27 18q7 0 18.5 -6.5t23.5 -15.5l131 -98l-22 -35l-193 86q3 33 15 51zM-9 41l63 16l221 596h48l230 -596l64 -16v-41h-239v41l71 16v18l-43 111h-241l-39 -111v-18l76 -16v-41h-211v41zM385 243l-97 257l-4 11l-2 5l-6 -18l-91 -255h200z" />
    <glyph glyph-name="Aacute" unicode="&#xc1;" horiz-adv-x="608" 
d="M340 814q12 9 23.5 15.5t18.5 6.5q15 0 27 -18t15 -51l-193 -86l-22 35zM-9 41l63 16l221 596h48l230 -596l64 -16v-41h-239v41l71 16v18l-43 111h-241l-39 -111v-18l76 -16v-41h-211v41zM385 243l-97 257l-4 11l-2 5l-6 -18l-91 -255h200z" />
    <glyph glyph-name="Acircumflex" unicode="&#xc2;" horiz-adv-x="608" 
d="M221 780l29 23q16 14 28 22.5t19 8.5q9 0 20 -7.5t35 -28.5q8 -6 22 -18l74 -61l-33 -41l-122 65l-126 -63l-25 36zM-9 41l63 16l221 596h48l230 -596l64 -16v-41h-239v41l71 16v18l-43 111h-241l-39 -111v-18l76 -16v-41h-211v41zM385 243l-97 257l-4 11l-2 5l-6 -18
l-91 -255h200z" />
    <glyph glyph-name="Atilde" unicode="&#xc3;" horiz-adv-x="608" 
d="M161 777q21 29 61 29q23 0 70 -15l79 -25l80 36l23 -26l-37 -49q-21 -29 -61 -29q-23 0 -70 15l-79 25l-80 -36l-23 26zM-9 41l63 16l221 596h48l230 -596l64 -16v-41h-239v41l71 16v18l-43 111h-241l-39 -111v-18l76 -16v-41h-211v41zM385 243l-97 257l-4 11l-2 5
l-6 -18l-91 -255h200z" />
    <glyph glyph-name="Adieresis" unicode="&#xc4;" horiz-adv-x="608" 
d="M154 701.5q-14 15.5 -14 40.5t15.5 42.5t39.5 17.5q23 0 37 -14.5t14 -39.5q0 -26 -15 -44t-40 -18q-23 0 -37 15.5zM365 701.5q-14 15.5 -14 40.5t15.5 42.5t39.5 17.5q23 0 37 -14.5t14 -39.5q0 -26 -15 -44t-40 -18q-23 0 -37 15.5zM-9 41l63 16l221 596h48l230 -596
l64 -16v-41h-239v41l71 16v18l-43 111h-241l-39 -111v-18l76 -16v-41h-211v41zM385 243l-97 257l-4 11l-2 5l-6 -18l-91 -255h200z" />
    <glyph glyph-name="Aring" unicode="&#xc5;" horiz-adv-x="608" 
d="M617 41v-41h-239v41l71 16v18l-43 111h-241l-39 -111v-18l76 -16v-41h-211v41l63 16l219 589q-35 5 -50 25.5t-15 59.5q0 44 26 67t67 23q40 0 64.5 -20t24.5 -63q0 -39 -15.5 -61.5t-49.5 -28.5l228 -591zM264.5 700.5q8.5 -10.5 35.5 -10.5q24 0 33 9.5t9 33.5t-8 34.5
t-34 10.5q-24 0 -34 -9.5t-10 -33.5t8.5 -34.5zM185 243h200l-97 257l-4 11l-2 5l-6 -18z" />
    <glyph glyph-name="AE" unicode="&#xc6;" horiz-adv-x="793" 
d="M54 57l280 591h378v-164h-49l-21 109h-94l-94 -6l21 -259h142l17 49h42v-155h-42l-17 49h-137l19 -204q16 -4 45 -7t58 -3h100l22 107h49v-164h-447v43l83 17l-18 211h-170l-93 -196v-18l74 -16v-41h-211v41zM386 328l-21 255l-115 -255h136z" />
    <glyph glyph-name="Ccedilla" unicode="&#xc7;" horiz-adv-x="612" 
d="M327 -145q59 0 59 30q0 15 -7 20.5t-24 8.5l-37 8l-19 19l20 49q-274 10 -274 326q0 92 38 171t109 126t163 47q126 0 198 -29v-157h-49l-21 110q-4 1 -22 5t-48 7.5t-65 3.5q-73 0 -117.5 -29t-64.5 -90.5t-20 -161.5q0 -125 54.5 -199.5t151.5 -74.5q44 0 74 8t46 17.5
t16 11.5l20 102h49v-152q-39 -18 -81.5 -29t-110.5 -14v-18l17 -4q36 -9 54 -21t18 -42q0 -48 -35.5 -69.5t-87.5 -21.5q-22 0 -38.5 4t-35.5 12l16 37q28 -11 54 -11z" />
    <glyph glyph-name="Egrave" unicode="&#xc8;" horiz-adv-x="572" 
d="M209 818q12 18 27 18q7 0 18.5 -6.5t23.5 -15.5l131 -98l-22 -35l-193 86q3 33 15 51zM138 60v528l-83 17v43h458v-164h-49l-21 109h-121l-98 -6v-229h158l15 59h42v-171h-42l-15 59h-158v-238q19 -4 49 -7t58 -3h120l22 107h49v-164h-467v43z" />
    <glyph glyph-name="Eacute" unicode="&#xc9;" horiz-adv-x="572" 
d="M342 814q12 9 23.5 15.5t18.5 6.5q15 0 27 -18t15 -51l-193 -86l-22 35zM138 60v528l-83 17v43h458v-164h-49l-21 109h-121l-98 -6v-229h158l15 59h42v-171h-42l-15 59h-158v-238q19 -4 49 -7t58 -3h120l22 107h49v-164h-467v43z" />
    <glyph glyph-name="Ecircumflex" unicode="&#xca;" horiz-adv-x="572" 
d="M228 780l29 23q16 14 28 22.5t19 8.5q9 0 20 -7.5t35 -28.5q8 -6 22 -18l74 -61l-33 -41l-122 65l-126 -63l-25 36zM138 60v528l-83 17v43h458v-164h-49l-21 109h-121l-98 -6v-229h158l15 59h42v-171h-42l-15 59h-158v-238q19 -4 49 -7t58 -3h120l22 107h49v-164h-467v43
z" />
    <glyph glyph-name="Edieresis" unicode="&#xcb;" horiz-adv-x="572" 
d="M167 708.5q-14 15.5 -14 40.5t15.5 42.5t39.5 17.5q23 0 37 -14.5t14 -39.5q0 -26 -15 -44t-40 -18q-23 0 -37 15.5zM378 708.5q-14 15.5 -14 40.5t15.5 42.5t39.5 17.5q23 0 37 -14.5t14 -39.5q0 -26 -15 -44t-40 -18q-23 0 -37 15.5zM138 60v528l-83 17v43h458v-164
h-49l-21 109h-121l-98 -6v-229h158l15 59h42v-171h-42l-15 59h-158v-238q19 -4 49 -7t58 -3h120l22 107h49v-164h-467v43z" />
    <glyph glyph-name="Igrave" unicode="&#xcc;" horiz-adv-x="369" 
d="M90 818q12 18 27 18q7 0 18.5 -6.5t23.5 -15.5l131 -98l-22 -35l-193 86q3 33 15 51zM59 44l82 15v530l-82 15v44h251v-44l-82 -15v-530l82 -15v-44h-251v44z" />
    <glyph glyph-name="Iacute" unicode="&#xcd;" horiz-adv-x="369" 
d="M215 814q12 9 23.5 15.5t18.5 6.5q15 0 27 -18t15 -51l-193 -86l-22 35zM59 44l82 15v530l-82 15v44h251v-44l-82 -15v-530l82 -15v-44h-251v44z" />
    <glyph glyph-name="Icircumflex" unicode="&#xce;" horiz-adv-x="369" 
d="M106 780l29 23q16 14 28 22.5t19 8.5q9 0 20 -7.5t35 -28.5q8 -6 22 -18l74 -61l-33 -41l-122 65l-126 -63l-25 36zM59 44l82 15v530l-82 15v44h251v-44l-82 -15v-530l82 -15v-44h-251v44z" />
    <glyph glyph-name="Idieresis" unicode="&#xcf;" horiz-adv-x="369" 
d="M40 708.5q-14 15.5 -14 40.5t15.5 42.5t39.5 17.5q23 0 37 -14.5t14 -39.5q0 -26 -15 -44t-40 -18q-23 0 -37 15.5zM251 708.5q-14 15.5 -14 40.5t15.5 42.5t39.5 17.5q23 0 37 -14.5t14 -39.5q0 -26 -15 -44t-40 -18q-23 0 -37 15.5zM59 0v44l82 15v530l-82 15v44h251
v-44l-82 -15v-530l82 -15v-44h-251z" />
    <glyph glyph-name="Eth" unicode="&#xd0;" horiz-adv-x="712" 
d="M142 60v245h-85v57h85v225l-83 18v43h308q142 0 218.5 -82.5t76.5 -235.5q0 -99 -40 -173.5t-113 -115.5t-169 -41h-281v43zM329 51q83 0 134 28t74.5 88.5t23.5 159.5q0 137 -54 200t-171 63q-59 0 -108 -7v-221h176v-57h-176v-243q39 -11 101 -11z" />
    <glyph glyph-name="Ntilde" unicode="&#xd1;" horiz-adv-x="727" 
d="M378 713l-79 25l-80 -36l-23 26l37 49q21 29 61 29q23 0 70 -15l79 -25l80 36l23 -26l-37 -49q-21 -29 -61 -29q-23 0 -70 15zM55 0v42l70 16v532l-65 14v44h153l314 -497l14 -22h9v461l-69 16v42h199v-42l-69 -16v-590h-92l-317 503l-8 13h-9v-458l70 -16v-42h-200z" />
    <glyph glyph-name="Ograve" unicode="&#xd2;" horiz-adv-x="696" 
d="M238 767q3 33 15 51t27 18q7 0 18.5 -6.5t23.5 -15.5l131 -98l-22 -35zM122 73.5q-77 86.5 -77 239.5q0 97 38 176t110.5 125t172.5 46q89 0 153 -40t98 -112.5t34 -169.5q0 -101 -32.5 -180t-101.5 -125t-173 -46q-145 0 -222 86.5zM505.5 114.5q44.5 70.5 44.5 204.5
q0 112 -24.5 173.5t-67.5 84.5t-106 23q-67 0 -110 -18.5t-69.5 -79.5t-26.5 -183q0 -147 54 -211t164 -64q97 0 141.5 70.5z" />
    <glyph glyph-name="Oacute" unicode="&#xd3;" horiz-adv-x="696" 
d="M250 716l131 98q12 9 23.5 15.5t18.5 6.5q15 0 27 -18t15 -51l-193 -86zM122 73.5q-77 86.5 -77 239.5q0 97 38 176t110.5 125t172.5 46q89 0 153 -40t98 -112.5t34 -169.5q0 -101 -32.5 -180t-101.5 -125t-173 -46q-145 0 -222 86.5zM505.5 114.5q44.5 70.5 44.5 204.5
q0 112 -24.5 173.5t-67.5 84.5t-106 23q-67 0 -110 -18.5t-69.5 -79.5t-26.5 -183q0 -147 54 -211t164 -64q97 0 141.5 70.5z" />
    <glyph glyph-name="Ocircumflex" unicode="&#xd4;" horiz-adv-x="696" 
d="M276 780l29 23q16 14 28 22.5t19 8.5q9 0 20 -7.5t35 -28.5q8 -6 22 -18l74 -61l-33 -41l-122 65l-126 -63l-25 36zM122 73.5q-77 86.5 -77 239.5q0 97 38 176t110.5 125t172.5 46q89 0 153 -40t98 -112.5t34 -169.5q0 -101 -32.5 -180t-101.5 -125t-173 -46
q-145 0 -222 86.5zM505.5 114.5q44.5 70.5 44.5 204.5q0 112 -24.5 173.5t-67.5 84.5t-106 23q-67 0 -110 -18.5t-69.5 -79.5t-26.5 -183q0 -147 54 -211t164 -64q97 0 141.5 70.5z" />
    <glyph glyph-name="Otilde" unicode="&#xd5;" horiz-adv-x="696" 
d="M364 713l-79 25l-80 -36l-23 26l37 49q21 29 61 29q23 0 70 -15l79 -25l80 36l23 -26l-37 -49q-21 -29 -61 -29q-23 0 -70 15zM122 73.5q-77 86.5 -77 239.5q0 97 38 176t110.5 125t172.5 46q89 0 153 -40t98 -112.5t34 -169.5q0 -101 -32.5 -180t-101.5 -125t-173 -46
q-145 0 -222 86.5zM505.5 114.5q44.5 70.5 44.5 204.5q0 112 -24.5 173.5t-67.5 84.5t-106 23q-67 0 -110 -18.5t-69.5 -79.5t-26.5 -183q0 -147 54 -211t164 -64q97 0 141.5 70.5z" />
    <glyph glyph-name="Odieresis" unicode="&#xd6;" horiz-adv-x="696" 
d="M209 708.5q-14 15.5 -14 40.5t15.5 42.5t39.5 17.5q23 0 37 -14.5t14 -39.5q0 -26 -15 -44t-40 -18q-23 0 -37 15.5zM420 708.5q-14 15.5 -14 40.5t15.5 42.5t39.5 17.5q23 0 37 -14.5t14 -39.5q0 -26 -15 -44t-40 -18q-23 0 -37 15.5zM122 73.5q-77 86.5 -77 239.5
q0 97 38 176t110.5 125t172.5 46q89 0 153 -40t98 -112.5t34 -169.5q0 -101 -32.5 -180t-101.5 -125t-173 -46q-145 0 -222 86.5zM505.5 114.5q44.5 70.5 44.5 204.5q0 112 -24.5 173.5t-67.5 84.5t-106 23q-67 0 -110 -18.5t-69.5 -79.5t-26.5 -183q0 -147 54 -211t164 -64
q97 0 141.5 70.5z" />
    <glyph glyph-name="multiply" unicode="&#xd7;" horiz-adv-x="530" 
d="M86 138l132 133l-132 133l46 46l131 -133l132 133l50 -49l-132 -132l131 -133l-46 -46l-132 133l-133 -133z" />
    <glyph glyph-name="Oslash" unicode="&#xd8;" horiz-adv-x="696" 
d="M79 139q-34 73 -34 174q0 97 38 176t110.5 125t172.5 46q39 0 81 -10l31 70l60 -27l-29 -67q68 -38 105 -113t37 -175q0 -101 -32.5 -180t-101.5 -125t-173 -46q-53 0 -103 13l-31 -72l-62 27l31 72q-66 39 -100 112zM352 600q-67 0 -110 -18.5t-69.5 -79.5t-26.5 -183
q0 -155 63 -221l213 494q-28 8 -70 8zM364 44q97 0 141.5 70.5t44.5 204.5q0 95 -17.5 153t-51.5 88l-215 -500q41 -16 98 -16z" />
    <glyph glyph-name="Ugrave" unicode="&#xd9;" horiz-adv-x="732" 
d="M245 767q3 33 15 51t27 18q7 0 18.5 -6.5t23.5 -15.5l131 -98l-22 -35zM216 19q-50 32 -69.5 94t-19.5 165v311l-82 15v44h251v-44l-82 -15v-311q0 -91 14.5 -138.5t52 -67t109.5 -19.5q90 0 125 54.5t35 170.5v309l-82 16v45h229v-45l-82 -16v-309q0 -101 -21.5 -163.5
t-77 -95t-157.5 -32.5q-93 0 -143 32z" />
    <glyph glyph-name="Uacute" unicode="&#xda;" horiz-adv-x="732" 
d="M297 716l131 98q12 9 23.5 15.5t18.5 6.5q15 0 27 -18t15 -51l-193 -86zM216 19q-50 32 -69.5 94t-19.5 165v311l-82 15v44h251v-44l-82 -15v-311q0 -91 14.5 -138.5t52 -67t109.5 -19.5q90 0 125 54.5t35 170.5v309l-82 16v45h229v-45l-82 -16v-309q0 -101 -21.5 -163.5
t-77 -95t-157.5 -32.5q-93 0 -143 32z" />
    <glyph glyph-name="Ucircumflex" unicode="&#xdb;" horiz-adv-x="732" 
d="M305 780l29 23q16 14 28 22.5t19 8.5q9 0 20 -7.5t35 -28.5q8 -6 22 -18l74 -61l-33 -41l-122 65l-126 -63l-25 36zM45 604v44h251v-44l-82 -15v-311q0 -91 14.5 -138.5t52 -67t109.5 -19.5q90 0 125 54.5t35 170.5v309l-82 16v45h229v-45l-82 -16v-309
q0 -101 -21.5 -163.5t-77 -95t-157.5 -32.5q-93 0 -143 32t-69.5 94t-19.5 165v311z" />
    <glyph glyph-name="Udieresis" unicode="&#xdc;" horiz-adv-x="732" 
d="M239 718.5q-14 15.5 -14 40.5t15.5 42.5t39.5 17.5q23 0 37 -14.5t14 -39.5q0 -26 -15 -44t-40 -18q-23 0 -37 15.5zM450 718.5q-14 15.5 -14 40.5t15.5 42.5t39.5 17.5q23 0 37 -14.5t14 -39.5q0 -26 -15 -44t-40 -18q-23 0 -37 15.5zM216 19q-50 32 -69.5 94t-19.5 165
v311l-82 15v44h251v-44l-82 -15v-311q0 -91 14.5 -138.5t52 -67t109.5 -19.5q90 0 125 54.5t35 170.5v309l-82 16v45h229v-45l-82 -16v-309q0 -101 -21.5 -163.5t-77 -95t-157.5 -32.5q-93 0 -143 32z" />
    <glyph glyph-name="Yacute" unicode="&#xdd;" horiz-adv-x="584" 
d="M222 716l131 98q12 9 23.5 15.5t18.5 6.5q15 0 27 -18t15 -51l-193 -86zM175 0v44l82 15v173l-200 359l-62 16v41h241v-41l-75 -16v-18l145 -274h14l142 274v18l-79 16v41h211v-41l-60 -16l-190 -347v-185l82 -15v-44h-251z" />
    <glyph glyph-name="Thorn" unicode="&#xde;" horiz-adv-x="561" 
d="M59 44l82 15v530l-82 15v44h251v-44l-82 -15v-79h89q112 0 165.5 -34t53.5 -119q0 -105 -57.5 -153t-172.5 -48h-78v-97l82 -15v-44h-251v44zM288 206q83 0 119.5 29t36.5 101q0 65 -32.5 91t-100.5 26h-83v-247h60z" />
    <glyph glyph-name="germandbls" unicode="&#xdf;" horiz-adv-x="604" 
d="M299.5 4q-39.5 13 -55.5 26l12 122h41l14 -78q28 -28 79 -28q48 0 68.5 23t20.5 58q0 24 -9.5 37.5t-29.5 22.5t-61 20q-40 12 -63.5 22.5t-41 35.5t-17.5 69q0 38 13 63.5t27.5 38.5t48.5 39q31 24 44.5 41.5t13.5 45.5q0 34 -24 54.5t-78 20.5q-62 0 -93 -28.5
t-31 -81.5v-527h-151v41l69 14v382h-61v47l60 12q0 97 59.5 151t153.5 54q79 0 129 -37t50 -103q0 -55 -38 -95q-16 -16 -47 -36q-34 -23 -51 -41t-17 -45q0 -20 11 -32.5t27 -19t48 -15.5q45 -13 73.5 -27.5t46 -41t17.5 -69.5q0 -74 -49 -111t-122 -37q-47 0 -86.5 13z
" />
    <glyph glyph-name="agrave" unicode="&#xe0;" horiz-adv-x="475" 
d="M118 655q9 29 23 45.5t28 16.5q10 0 18.5 -7.5t23.5 -23.5l109 -121l-28 -30zM68 28q-35 35 -35 89q0 126 179 151l90 13v75q0 84 -98 84q-22 0 -39.5 -3.5l-22.5 -4.5l-15 -92q0 -1 -9 -4t-23 -3q-18 0 -32 13t-14 33q0 38 37 66.5t86.5 43.5t80.5 15q63 0 97 -32.5
t34 -82.5v-321l71 -14v-38q-4 -2 -18 -6.5t-36 -9t-46 -4.5q-44 0 -48 46h-4q-13 -14 -49.5 -31.5t-78.5 -17.5q-72 0 -107 35zM255 60q20 4 32 8.5t15 5.5v159q-95 -7 -138 -30.5t-43 -70.5q0 -32 24.5 -54t67.5 -22q22 0 42 4z" />
    <glyph glyph-name="aacute" unicode="&#xe1;" horiz-adv-x="475" 
d="M138 565l109 121q15 16 23.5 23.5t18.5 7.5q14 0 28 -16.5t23 -45.5l-174 -120zM68 28q-35 35 -35 89q0 126 179 151l90 13v75q0 84 -98 84q-22 0 -39.5 -3.5l-22.5 -4.5l-15 -92q0 -1 -9 -4t-23 -3q-18 0 -32 13t-14 33q0 38 37 66.5t86.5 43.5t80.5 15q63 0 97 -32.5
t34 -82.5v-321l71 -14v-38q-4 -2 -18 -6.5t-36 -9t-46 -4.5q-44 0 -48 46h-4q-13 -14 -49.5 -31.5t-78.5 -17.5q-72 0 -107 35zM255 60q20 4 32 8.5t15 5.5v159q-95 -7 -138 -30.5t-43 -70.5q0 -32 24.5 -54t67.5 -22q22 0 42 4z" />
    <glyph glyph-name="acircumflex" unicode="&#xe2;" horiz-adv-x="475" 
d="M221 628l-115 -83l-28 32l106 106q27 27 46 27q17 0 38 -21l106 -110l-35 -35zM68 28q-35 35 -35 89q0 126 179 151l90 13v75q0 84 -98 84q-22 0 -39.5 -3.5l-22.5 -4.5l-15 -92q0 -1 -9 -4t-23 -3q-18 0 -32 13t-14 33q0 38 37 66.5t86.5 43.5t80.5 15q63 0 97 -32.5
t34 -82.5v-321l71 -14v-38q-4 -2 -18 -6.5t-36 -9t-46 -4.5q-44 0 -48 46h-4q-13 -14 -49.5 -31.5t-78.5 -17.5q-72 0 -107 35zM255 60q20 4 32 8.5t15 5.5v159q-95 -7 -138 -30.5t-43 -70.5q0 -32 24.5 -54t67.5 -22q22 0 42 4z" />
    <glyph glyph-name="atilde" unicode="&#xe3;" horiz-adv-x="475" 
d="M250.5 581q-24.5 7 -28.5 8l-84 25l-68 -34l-22 20l28 47q10 17 27 26.5t36 9.5q18 0 42.5 -7t28.5 -8l84 -25l68 34l22 -20l-28 -47q-10 -17 -27 -26.5t-36 -9.5q-18 0 -42.5 7zM68 28q-35 35 -35 89q0 126 179 151l90 13v75q0 84 -98 84q-22 0 -39.5 -3.5l-22.5 -4.5
l-15 -92q0 -1 -9 -4t-23 -3q-18 0 -32 13t-14 33q0 38 37 66.5t86.5 43.5t80.5 15q63 0 97 -32.5t34 -82.5v-321l71 -14v-38q-4 -2 -18 -6.5t-36 -9t-46 -4.5q-44 0 -48 46h-4q-13 -14 -49.5 -31.5t-78.5 -17.5q-72 0 -107 35zM255 60q20 4 32 8.5t15 5.5v159
q-95 -7 -138 -30.5t-43 -70.5q0 -32 24.5 -54t67.5 -22q22 0 42 4z" />
    <glyph glyph-name="adieresis" unicode="&#xe4;" horiz-adv-x="475" 
d="M71 590.5q-14 15.5 -14 40.5t15.5 42.5t39.5 17.5q23 0 37 -14.5t14 -39.5q0 -26 -15 -44t-40 -18q-23 0 -37 15.5zM282 590.5q-14 15.5 -14 40.5t15.5 42.5t39.5 17.5q23 0 37 -14.5t14 -39.5q0 -26 -15 -44t-40 -18q-23 0 -37 15.5zM68 28q-35 35 -35 89q0 126 179 151
l90 13v75q0 84 -98 84q-22 0 -39.5 -3.5l-22.5 -4.5l-15 -92q0 -1 -9 -4t-23 -3q-18 0 -32 13t-14 33q0 38 37 66.5t86.5 43.5t80.5 15q63 0 97 -32.5t34 -82.5v-321l71 -14v-38q-4 -2 -18 -6.5t-36 -9t-46 -4.5q-44 0 -48 46h-4q-13 -14 -49.5 -31.5t-78.5 -17.5
q-72 0 -107 35zM255 60q20 4 32 8.5t15 5.5v159q-95 -7 -138 -30.5t-43 -70.5q0 -32 24.5 -54t67.5 -22q22 0 42 4z" />
    <glyph glyph-name="aring" unicode="&#xe5;" horiz-adv-x="475" 
d="M152 558.5q-23 23.5 -23 63.5t25.5 67.5t71.5 27.5q43 0 66.5 -25t23.5 -64q0 -40 -26.5 -66.5t-70.5 -26.5t-67 23.5zM253.5 589q8.5 11 8.5 37q0 27 -9.5 36.5t-31.5 9.5q-23 0 -31 -10.5t-8 -35.5q0 -28 9 -38t32 -10q22 0 30.5 11zM68 28q-35 35 -35 89
q0 126 179 151l90 13v75q0 84 -98 84q-22 0 -39.5 -3.5l-22.5 -4.5l-15 -92q0 -1 -9 -4t-23 -3q-18 0 -32 13t-14 33q0 38 37 66.5t86.5 43.5t80.5 15q63 0 97 -32.5t34 -82.5v-321l71 -14v-38q-4 -2 -18 -6.5t-36 -9t-46 -4.5q-44 0 -48 46h-4q-13 -14 -49.5 -31.5
t-78.5 -17.5q-72 0 -107 35zM255 60q20 4 32 8.5t15 5.5v159q-95 -7 -138 -30.5t-43 -70.5q0 -32 24.5 -54t67.5 -22q22 0 42 4z" />
    <glyph glyph-name="ae" unicode="&#xe6;" horiz-adv-x="736" 
d="M313 350q0 43 -24.5 63.5t-72.5 20.5q-22 0 -39 -3t-22 -4l-22 -87q-2 -1 -9.5 -4t-20.5 -3q-43 0 -43 45q0 39 37.5 67.5t86.5 43.5t81 15q41 0 72.5 -18.5t46.5 -49.5q27 33 64 50.5t80 17.5q96 0 133.5 -61.5t37.5 -182.5q0 -25 -29 -27l-269 -10q0 -47 8 -81
t35 -57.5t81 -23.5q40 0 73 3.5t51.5 7.5t23.5 5l9 -33q0 -2 -21.5 -15.5t-56.5 -25.5t-81 -12q-107 0 -158 67q-33 -30 -75.5 -47.5t-102.5 -17.5q-72 0 -107 35t-35 89q0 64 48 104.5t131 44.5l89 5v79zM616 329q0 44 -10 67.5t-31.5 32t-60.5 8.5q-60 0 -86.5 -44
t-26.5 -118l212 12q3 18 3 42zM175.5 199q-42.5 -19 -42.5 -63q0 -34 22.5 -57.5t67.5 -23.5q22 0 42 6t32.5 12.5t15.5 8.5v137q-95 -1 -137.5 -20z" />
    <glyph glyph-name="ccedilla" unicode="&#xe7;" horiz-adv-x="454" 
d="M195.5 -183q-16.5 4 -35.5 12l16 37q28 -11 54 -11q59 0 59 30q0 15 -7 20.5t-24 8.5l-37 8l-19 19l22 52q-83 10 -133.5 72.5t-50.5 168.5q0 73 26 134.5t77.5 98.5t122.5 37q72 0 112.5 -36.5t40.5 -88.5q0 -17 -13 -31.5t-33 -14.5q-11 0 -20 2t-12 5l-16 94
q-11 5 -29 8.5t-36 3.5q-73 0 -102.5 -48t-29.5 -152q0 -99 40 -142t121 -43q28 0 53 4.5t40 9.5t19 7l13 -30q0 -2 -20 -16.5t-52.5 -28t-73.5 -15.5v-21l17 -4q36 -9 54 -21t18 -42q0 -48 -35.5 -69.5t-87.5 -21.5q-22 0 -38.5 4z" />
    <glyph glyph-name="egrave" unicode="&#xe8;" horiz-adv-x="471" 
d="M132 655q9 29 23 45.5t28 16.5q10 0 18.5 -7.5t23.5 -23.5l109 -121l-28 -30zM92 59q-55 68 -55 174q0 79 28.5 140.5t79.5 96t115 34.5q82 0 123 -53t41 -129q0 -53 -10 -71t-38 -18h-251q0 -76 37.5 -124t119.5 -48q35 0 61.5 5.5t41 11t17.5 7.5l14 -28
q0 -2 -22.5 -19.5t-59 -32t-82.5 -14.5q-105 0 -160 68zM340 287q3 18 3 40q0 60 -21.5 89.5t-76.5 29.5q-60 0 -89 -42t-30 -125z" />
    <glyph glyph-name="eacute" unicode="&#xe9;" horiz-adv-x="471" 
d="M155 565l109 121q15 16 23.5 23.5t18.5 7.5q14 0 28 -16.5t23 -45.5l-174 -120zM92 59q-55 68 -55 174q0 79 28.5 140.5t79.5 96t115 34.5q82 0 123 -53t41 -129q0 -53 -10 -71t-38 -18h-251q0 -76 37.5 -124t119.5 -48q35 0 61.5 5.5t41 11t17.5 7.5l14 -28
q0 -2 -22.5 -19.5t-59 -32t-82.5 -14.5q-105 0 -160 68zM340 287q3 18 3 40q0 60 -21.5 89.5t-76.5 29.5q-60 0 -89 -42t-30 -125z" />
    <glyph glyph-name="ecircumflex" unicode="&#xea;" horiz-adv-x="471" 
d="M230 628l-115 -83l-28 32l106 106q27 27 46 27q17 0 38 -21l106 -110l-35 -35zM92 59q-55 68 -55 174q0 79 28.5 140.5t79.5 96t115 34.5q82 0 123 -53t41 -129q0 -53 -10 -71t-38 -18h-251q0 -76 37.5 -124t119.5 -48q35 0 61.5 5.5t41 11t17.5 7.5l14 -28
q0 -2 -22.5 -19.5t-59 -32t-82.5 -14.5q-105 0 -160 68zM340 287q3 18 3 40q0 60 -21.5 89.5t-76.5 29.5q-60 0 -89 -42t-30 -125z" />
    <glyph glyph-name="edieresis" unicode="&#xeb;" horiz-adv-x="471" 
d="M103 590.5q-14 15.5 -14 40.5t15.5 42.5t39.5 17.5q23 0 37 -14.5t14 -39.5q0 -26 -15 -44t-40 -18q-23 0 -37 15.5zM314 590.5q-14 15.5 -14 40.5t15.5 42.5t39.5 17.5q23 0 37 -14.5t14 -39.5q0 -26 -15 -44t-40 -18q-23 0 -37 15.5zM92 59q-55 68 -55 174
q0 79 28.5 140.5t79.5 96t115 34.5q82 0 123 -53t41 -129q0 -53 -10 -71t-38 -18h-251q0 -76 37.5 -124t119.5 -48q35 0 61.5 5.5t41 11t17.5 7.5l14 -28q0 -2 -22.5 -19.5t-59 -32t-82.5 -14.5q-105 0 -160 68zM340 287q3 18 3 40q0 60 -21.5 89.5t-76.5 29.5
q-60 0 -89 -42t-30 -125z" />
    <glyph glyph-name="igrave" unicode="&#xec;" horiz-adv-x="293" 
d="M37 700.5q14 16.5 28 16.5q10 0 18.5 -7.5t23.5 -23.5l109 -121l-28 -30l-174 120q9 29 23 45.5zM28 41l80 14v356l-80 14v41l139 28l23 -9v-430l78 -14v-41h-240v41z" />
    <glyph glyph-name="iacute" unicode="&#xed;" horiz-adv-x="293" 
d="M38 565l109 121q15 16 23.5 23.5t18.5 7.5q14 0 28 -16.5t23 -45.5l-174 -120zM28 0v41l80 14v356l-80 14v41l139 28l23 -9v-430l78 -14v-41h-240z" />
    <glyph glyph-name="icircumflex" unicode="&#xee;" horiz-adv-x="293" 
d="M61 667q45 52 60 52q14 0 58 -52l70 -81l-32 -32l-99 78l-108 -76l-25 28zM28 41l80 14v356l-80 14v41l139 28l23 -9v-430l78 -14v-41h-240v41z" />
    <glyph glyph-name="idieresis" unicode="&#xef;" horiz-adv-x="293" 
d="M1 588.5q-14 15.5 -14 40.5t15.5 42.5t39.5 17.5q23 0 37 -14.5t14 -39.5q0 -26 -15 -44t-40 -18q-23 0 -37 15.5zM172 588.5q-14 15.5 -14 40.5t15.5 42.5t39.5 17.5q23 0 37 -14.5t14 -39.5q0 -26 -15 -44t-40 -18q-23 0 -37 15.5zM28 0v41l80 14v356l-80 14v41l139 28
l23 -9v-430l78 -14v-41h-240z" />
    <glyph glyph-name="eth" unicode="&#xf0;" horiz-adv-x="525" 
d="M95 57q-55 66 -55 181q0 108 63.5 172.5t173.5 64.5q50 0 106 -28q-20 104 -84 150l-102 -66l-27 39l81 53q-48 18 -134 18v40q0 1 22 4t56 3q64 0 118 -25l91 59l26 -41l-70 -45q59 -44 92 -125t33 -200q0 -159 -59.5 -239.5t-167.5 -80.5t-163 66zM367 105.5
q27 56.5 27 178.5q0 59 -4 104q-29 11 -56 17.5t-61 6.5q-80 0 -111.5 -38t-31.5 -121q0 -59 8.5 -102t38.5 -72.5t90 -29.5q73 0 100 56.5z" />
    <glyph glyph-name="ntilde" unicode="&#xf1;" horiz-adv-x="576" 
d="M312.5 588q-24.5 7 -28.5 8l-84 25l-68 -34l-22 20l28 47q10 17 27 26.5t36 9.5q18 0 42.5 -7t28.5 -8l84 -25l68 34l22 -20l-28 -47q-10 -17 -27 -26.5t-36 -9.5q-18 0 -42.5 7zM26 41l80 14v356l-80 14v41l149 28l8 -33l2 -6q91 49 160 49q62 0 96.5 -36t34.5 -101
v-312l80 -14v-41h-240v41l78 14v298q0 43 -25 62t-80 19q-26 0 -55 -3.5t-46 -8.5v-367l78 -14v-41h-240v41z" />
    <glyph glyph-name="ograve" unicode="&#xf2;" horiz-adv-x="521" 
d="M172 700.5q14 16.5 28 16.5q10 0 18.5 -7.5t23.5 -23.5l109 -121l-28 -30l-174 120q9 29 23 45.5zM94.5 58q-54.5 67 -54.5 182q0 71 28 131.5t80 96.5t121 36q105 0 160 -64.5t55 -176.5q0 -77 -27 -139t-79.5 -97.5t-126.5 -35.5q-102 0 -156.5 67zM366 98
q28 49 28 147q0 105 -29.5 153t-101.5 48q-54 0 -83 -23t-39.5 -65.5t-10.5 -112.5q0 -96 31.5 -146t108.5 -50q68 0 96 49z" />
    <glyph glyph-name="oacute" unicode="&#xf3;" horiz-adv-x="521" 
d="M290 686q15 16 23.5 23.5t18.5 7.5q14 0 28 -16.5t23 -45.5l-174 -120l-28 30zM94.5 58q-54.5 67 -54.5 182q0 71 28 131.5t80 96.5t121 36q105 0 160 -64.5t55 -176.5q0 -77 -27 -139t-79.5 -97.5t-126.5 -35.5q-102 0 -156.5 67zM366 98q28 49 28 147q0 105 -29.5 153
t-101.5 48q-54 0 -83 -23t-39.5 -65.5t-10.5 -112.5q0 -96 31.5 -146t108.5 -50q68 0 96 49z" />
    <glyph glyph-name="ocircumflex" unicode="&#xf4;" horiz-adv-x="521" 
d="M221 683q27 27 46 27q17 0 38 -21l106 -110l-35 -35l-118 84l-115 -83l-28 32zM94.5 58q-54.5 67 -54.5 182q0 71 28 131.5t80 96.5t121 36q105 0 160 -64.5t55 -176.5q0 -77 -27 -139t-79.5 -97.5t-126.5 -35.5q-102 0 -156.5 67zM366 98q28 49 28 147q0 105 -29.5 153
t-101.5 48q-54 0 -83 -23t-39.5 -65.5t-10.5 -112.5q0 -96 31.5 -146t108.5 -50q68 0 96 49z" />
    <glyph glyph-name="otilde" unicode="&#xf5;" horiz-adv-x="521" 
d="M148 673.5q17 9.5 36 9.5q18 0 42.5 -7t28.5 -8l84 -25l68 34l22 -20l-28 -47q-10 -17 -27 -26.5t-36 -9.5q-18 0 -42.5 7t-28.5 8l-84 25l-68 -34l-22 20l28 47q10 17 27 26.5zM94.5 58q-54.5 67 -54.5 182q0 71 28 131.5t80 96.5t121 36q105 0 160 -64.5t55 -176.5
q0 -77 -27 -139t-79.5 -97.5t-126.5 -35.5q-102 0 -156.5 67zM366 98q28 49 28 147q0 105 -29.5 153t-101.5 48q-54 0 -83 -23t-39.5 -65.5t-10.5 -112.5q0 -96 31.5 -146t108.5 -50q68 0 96 49z" />
    <glyph glyph-name="odieresis" unicode="&#xf6;" horiz-adv-x="521" 
d="M118 590.5q-14 15.5 -14 40.5t15.5 42.5t39.5 17.5q23 0 37 -14.5t14 -39.5q0 -26 -15 -44t-40 -18q-23 0 -37 15.5zM329 590.5q-14 15.5 -14 40.5t15.5 42.5t39.5 17.5q23 0 37 -14.5t14 -39.5q0 -26 -15 -44t-40 -18q-23 0 -37 15.5zM94.5 58q-54.5 67 -54.5 182
q0 71 28 131.5t80 96.5t121 36q105 0 160 -64.5t55 -176.5q0 -77 -27 -139t-79.5 -97.5t-126.5 -35.5q-102 0 -156.5 67zM366 98q28 49 28 147q0 105 -29.5 153t-101.5 48q-54 0 -83 -23t-39.5 -65.5t-10.5 -112.5q0 -96 31.5 -146t108.5 -50q68 0 96 49z" />
    <glyph glyph-name="divide" unicode="&#xf7;" horiz-adv-x="530" 
d="M222.5 388.5q-15.5 17.5 -15.5 45.5t17.5 47.5t44.5 19.5q26 0 41.5 -16.5t15.5 -44.5q0 -29 -16.5 -49t-45.5 -20q-26 0 -41.5 17.5zM67 239v63h395v-63h-395zM222.5 54.5q-15.5 17.5 -15.5 45.5t17.5 47.5t44.5 19.5q26 0 41.5 -16.5t15.5 -44.5q0 -29 -16.5 -49
t-45.5 -20q-26 0 -41.5 17.5z" />
    <glyph glyph-name="oslash" unicode="&#xf8;" horiz-adv-x="521" 
d="M99 -53l33 76q-45 31 -68.5 86t-23.5 131q0 71 28 131.5t80 96.5t121 36q39 0 70 -9l34 77l54 -24l-34 -78q45 -30 68 -83t23 -124q0 -77 -27 -139t-79.5 -97.5t-126.5 -35.5q-33 0 -63 8l-33 -76zM314 438q-24 8 -51 8q-54 0 -83 -23t-39.5 -65.5t-10.5 -112.5
q0 -103 34 -149zM366 98q28 49 28 147q0 110 -31 156l-150 -343q24 -9 57 -9q68 0 96 49z" />
    <glyph glyph-name="ugrave" unicode="&#xf9;" horiz-adv-x="557" 
d="M146 655q9 29 23 45.5t28 16.5q10 0 18.5 -7.5t23.5 -23.5l109 -121l-28 -30zM128.5 27q-38.5 36 -38.5 102v295l-83 14v38l137 28l28 -14v-318q0 -65 24 -90.5t85 -25.5q21 0 48.5 8t48.5 20v340l-82 14v38l137 28l28 -14v-419l71 -16v-38l-139 -20l-15 50l-1 -1
q-22 -25 -61 -40t-79 -15q-70 0 -108.5 36z" />
    <glyph glyph-name="uacute" unicode="&#xfa;" horiz-adv-x="557" 
d="M180 565l109 121q15 16 23.5 23.5t18.5 7.5q14 0 28 -16.5t23 -45.5l-174 -120zM128.5 27q-38.5 36 -38.5 102v295l-83 14v38l137 28l28 -14v-318q0 -65 24 -90.5t85 -25.5q21 0 48.5 8t48.5 20v340l-82 14v38l137 28l28 -14v-419l71 -16v-38l-139 -20l-15 50l-1 -1
q-22 -25 -61 -40t-79 -15q-70 0 -108.5 36z" />
    <glyph glyph-name="ucircumflex" unicode="&#xfb;" horiz-adv-x="557" 
d="M255 623l-115 -83l-28 32l106 106q27 27 46 27q17 0 38 -21l106 -110l-35 -35zM128.5 27q-38.5 36 -38.5 102v295l-83 14v38l137 28l28 -14v-318q0 -65 24 -90.5t85 -25.5q21 0 48.5 8t48.5 20v340l-82 14v38l137 28l28 -14v-419l71 -16v-38l-139 -20l-15 50l-1 -1
q-22 -25 -61 -40t-79 -15q-70 0 -108.5 36z" />
    <glyph glyph-name="udieresis" unicode="&#xfc;" horiz-adv-x="557" 
d="M122 590.5q-14 15.5 -14 40.5t15.5 42.5t39.5 17.5q23 0 37 -14.5t14 -39.5q0 -26 -15 -44t-40 -18q-23 0 -37 15.5zM333 590.5q-14 15.5 -14 40.5t15.5 42.5t39.5 17.5q23 0 37 -14.5t14 -39.5q0 -26 -15 -44t-40 -18q-23 0 -37 15.5zM128.5 27q-38.5 36 -38.5 102v295
l-83 14v38l137 28l28 -14v-318q0 -65 24 -90.5t85 -25.5q21 0 48.5 8t48.5 20v340l-82 14v38l137 28l28 -14v-419l71 -16v-38l-139 -20l-15 50l-1 -1q-22 -25 -61 -40t-79 -15q-70 0 -108.5 36z" />
    <glyph glyph-name="yacute" unicode="&#xfd;" horiz-adv-x="468" 
d="M198 535l-28 30l109 121q15 16 23.5 23.5t18.5 7.5q14 0 28 -16.5t23 -45.5zM475 494v-42l-54 -16l-212 -545q-22 -57 -103 -57q-17 0 -38.5 3t-36.5 7v38l114 29l54 118l-163 406l-58 16v43h219v-45l-66 -9v-15l103 -270l8 -34l12 44l100 260v12l-64 11v46h185z" />
    <glyph glyph-name="thorn" unicode="&#xfe;" horiz-adv-x="540" 
d="M25 -123l69 14v729l-82 13v39l137 27l27 -14v-232q28 23 66 37t73 14q88 0 136.5 -59.5t48.5 -168.5q0 -83 -26 -145.5t-74 -96.5t-111 -34q-33 0 -64 10t-49 27v-146l87 -12v-44h-238v42zM378.5 104q31.5 45 31.5 144q0 100 -30.5 144t-100.5 44q-51 0 -103 -15v-335
q20 -12 48 -19.5t53 -7.5q70 0 101.5 45z" />
    <glyph glyph-name="ydieresis" unicode="&#xff;" horiz-adv-x="468" 
d="M97 590.5q-14 15.5 -14 40.5t15.5 42.5t39.5 17.5q23 0 37 -14.5t14 -39.5q0 -26 -15 -44t-40 -18q-23 0 -37 15.5zM308 590.5q-14 15.5 -14 40.5t15.5 42.5t39.5 17.5q23 0 37 -14.5t14 -39.5q0 -26 -15 -44t-40 -18q-23 0 -37 15.5zM475 494v-42l-54 -16l-212 -545
q-22 -57 -103 -57q-17 0 -38.5 3t-36.5 7v38l114 29l54 118l-163 406l-58 16v43h219v-45l-66 -9v-15l103 -270l8 -34l12 44l100 260v12l-64 11v46h185z" />
    <glyph glyph-name="Amacron" unicode="&#x100;" horiz-adv-x="608" 
d="M138 781h332l-10 -58h-332zM-9 41l63 16l221 596h48l230 -596l64 -16v-41h-239v41l71 16v18l-43 111h-241l-39 -111v-18l76 -16v-41h-211v41zM385 243l-97 257l-4 11l-2 5l-6 -18l-91 -255h200z" />
    <glyph glyph-name="amacron" unicode="&#x101;" horiz-adv-x="475" 
d="M49 606l10 57h332l-10 -57h-332zM68 28q-35 35 -35 89q0 126 179 151l90 13v75q0 84 -98 84q-22 0 -39.5 -3.5l-22.5 -4.5l-15 -92q0 -1 -9 -4t-23 -3q-18 0 -32 13t-14 33q0 38 37 66.5t86.5 43.5t80.5 15q63 0 97 -32.5t34 -82.5v-321l71 -14v-38q-4 -2 -18 -6.5
t-36 -9t-46 -4.5q-44 0 -48 46h-4q-13 -14 -49.5 -31.5t-78.5 -17.5q-72 0 -107 35zM255 60q20 4 32 8.5t15 5.5v159q-95 -7 -138 -30.5t-43 -70.5q0 -32 24.5 -54t67.5 -22q22 0 42 4z" />
    <glyph glyph-name="Abreve" unicode="&#x102;" horiz-adv-x="608" 
d="M237.5 800q8.5 -17 27.5 -32t48 -15q35 0 58 15t34.5 32.5t11.5 20.5l31 -8q0 -7 -13 -37t-44 -57t-81 -27q-58 0 -89 26t-41.5 53t-10.5 37l60 13q0 -4 8.5 -21zM-9 41l63 16l221 596h48l230 -596l64 -16v-41h-239v41l71 16v18l-43 111h-241l-39 -111v-18l76 -16v-41
h-211v41zM385 243l-97 257l-4 11l-2 5l-6 -18l-91 -255h200z" />
    <glyph glyph-name="abreve" unicode="&#x103;" horiz-adv-x="475" 
d="M125 584q-34 31 -44.5 64t-10.5 45l51 13q0 -7 8 -28t32 -40.5t69 -19.5q44 0 68 20t32 41.5t8 28.5l34 -8q0 -14 -9.5 -48t-42.5 -66.5t-97 -32.5t-98 31zM68 28q-35 35 -35 89q0 126 179 151l90 13v75q0 84 -98 84q-22 0 -39.5 -3.5l-22.5 -4.5l-15 -92q0 -1 -9 -4
t-23 -3q-18 0 -32 13t-14 33q0 38 37 66.5t86.5 43.5t80.5 15q63 0 97 -32.5t34 -82.5v-321l71 -14v-38q-4 -2 -18 -6.5t-36 -9t-46 -4.5q-44 0 -48 46h-4q-13 -14 -49.5 -31.5t-78.5 -17.5q-72 0 -107 35zM255 60q20 4 32 8.5t15 5.5v159q-95 -7 -138 -30.5t-43 -70.5
q0 -32 24.5 -54t67.5 -22q22 0 42 4z" />
    <glyph glyph-name="Aogonek" unicode="&#x104;" horiz-adv-x="608" 
d="M368 -83q0 -44 43 -44q21 0 57 21l18 -30q0 -1 -15.5 -14.5t-38 -25t-47.5 -11.5q-37 0 -60 19t-23 55q0 65 76 114v40l71 16v18l-43 111h-241l-39 -111v-18l76 -16v-41h-211v41l63 16l221 596h48l230 -596l64 -16v-41h-194q-55 -45 -55 -83zM185 243h200l-97 257l-4 11
l-2 5l-6 -18z" />
    <glyph glyph-name="aogonek" unicode="&#x105;" horiz-adv-x="475" 
d="M287 -168q-23 19 -23 55q0 34 20 62.5t52 49.5q-14 4 -21 16t-8 27h-4q-13 -14 -49.5 -31.5t-78.5 -17.5q-72 0 -107 35t-35 89q0 126 179 151l90 13v75q0 84 -98 84q-22 0 -39.5 -3.5l-22.5 -4.5l-15 -92q0 -1 -9 -4t-23 -3q-18 0 -32 13t-14 33q0 38 37 66.5t86.5 43.5
t80.5 15q63 0 97 -32.5t34 -82.5v-321l71 -14v-38q0 -1 -23.5 -8.5t-48.5 -9.5q-53 -44 -53 -81q0 -44 43 -44q21 0 57 21l18 -30q0 -1 -15.5 -14.5t-38 -25t-47.5 -11.5q-37 0 -60 19zM255 60q20 4 32 8.5t15 5.5v159q-95 -7 -138 -30.5t-43 -70.5q0 -32 24.5 -54t67.5 -22
q22 0 42 4z" />
    <glyph glyph-name="Cacute" unicode="&#x106;" horiz-adv-x="612" 
d="M411 814q12 9 23.5 15.5t18.5 6.5q15 0 27 -18t15 -51l-193 -86l-22 35zM557 184v-152q-45 -19 -91.5 -31t-125.5 -12q-295 0 -295 327q0 92 38 171t109 126t163 47q126 0 198 -29v-157h-49l-21 110q-4 1 -22 5t-48 7.5t-65 3.5q-73 0 -117.5 -29t-64.5 -90.5t-20 -161.5
q0 -125 54.5 -199.5t151.5 -74.5q44 0 74 8t46 17.5t16 11.5l20 102h49z" />
    <glyph glyph-name="cacute" unicode="&#x107;" horiz-adv-x="454" 
d="M272 686q15 16 23.5 23.5t18.5 7.5q14 0 28 -16.5t23 -45.5l-174 -120l-28 30zM392 34q-22 -16 -57.5 -29.5t-80.5 -13.5q-62 0 -110.5 28t-76 83t-27.5 132q0 73 26 134.5t77.5 98.5t122.5 37q72 0 112.5 -36.5t40.5 -88.5q0 -17 -13 -31.5t-33 -14.5q-16 0 -24 3t-8 4
l-16 94q-2 1 -10 4t-22.5 5.5t-32.5 2.5q-73 0 -102.5 -48t-29.5 -152q0 -99 40 -142t121 -43q28 0 53 4.5t40 9.5t19 7l13 -30q0 -2 -22 -18z" />
    <glyph glyph-name="Ccircumflex" unicode="&#x108;" horiz-adv-x="612" 
d="M45 0zM557 184v-152q-45 -19 -91.5 -31t-125.5 -12q-295 0 -295 327q0 92 38 171t109 126t163 47q126 0 198 -29v-157h-49l-21 110q-4 1 -22 5t-48 7.5t-65 3.5q-73 0 -117.5 -29t-64.5 -90.5t-20 -161.5q0 -125 54.5 -199.5t151.5 -74.5q44 0 74 8t46 17.5t16 11.5
l20 102h49zM281 780l29 23q16 14 28 22.5t19 8.5q9 0 20 -7.5t35 -28.5q8 -6 22 -18l74 -61l-33 -41l-122 65l-126 -63l-25 36z" />
    <glyph glyph-name="ccircumflex" unicode="&#x109;" horiz-adv-x="439" 
d="M25 0zM377 34q-22 -16 -57.5 -29.5t-80.5 -13.5q-62 0 -110.5 28t-76 83t-27.5 132q0 73 26 134.5t77.5 98.5t122.5 37q72 0 112.5 -36.5t40.5 -88.5q0 -17 -13 -31.5t-33 -14.5q-16 0 -24 3t-8 4l-16 94q-2 1 -10 4t-22.5 5.5t-32.5 2.5q-73 0 -102.5 -48t-29.5 -152
q0 -99 40 -142t121 -43q28 0 53 4.5t40 9.5t19 7l13 -30q0 -2 -22 -18zM197 683q27 27 46 27q17 0 38 -21l106 -110l-35 -35l-118 84l-115 -83l-28 32z" />
    <glyph glyph-name="Cdotaccent" unicode="&#x10a;" horiz-adv-x="612" 
d="M45 0zM557 184v-152q-45 -19 -91.5 -31t-125.5 -12q-295 0 -295 327q0 92 38 171t109 126t163 47q126 0 198 -29v-157h-49l-21 110q-4 1 -22 5t-48 7.5t-65 3.5q-73 0 -117.5 -29t-64.5 -90.5t-20 -161.5q0 -125 54.5 -199.5t151.5 -74.5q44 0 74 8t46 17.5t16 11.5
l20 102h49zM311.5 711q-15.5 17 -15.5 45q0 27 17.5 46.5t43.5 19.5t41 -16t15 -44t-16.5 -48t-44.5 -20q-25 0 -40.5 17z" />
    <glyph glyph-name="cdotaccent" unicode="&#x10b;" horiz-adv-x="439" 
d="M25 0zM377 34q-22 -16 -57.5 -29.5t-80.5 -13.5q-62 0 -110.5 28t-76 83t-27.5 132q0 73 26 134.5t77.5 98.5t122.5 37q72 0 112.5 -36.5t40.5 -88.5q0 -17 -13 -31.5t-33 -14.5q-16 0 -24 3t-8 4l-16 94q-2 1 -10 4t-22.5 5.5t-32.5 2.5q-73 0 -102.5 -48t-29.5 -152
q0 -99 40 -142t121 -43q28 0 53 4.5t40 9.5t19 7l13 -30q0 -2 -22 -18zM195.5 585q-15.5 17 -15.5 45q0 27 17.5 46.5t43.5 19.5t41 -16t15 -44t-16.5 -48t-44.5 -20q-25 0 -40.5 17z" />
    <glyph glyph-name="Ccaron" unicode="&#x10c;" horiz-adv-x="612" 
d="M346 769l126 63l25 -36l-79 -64l-29 -23q-16 -14 -28 -22.5t-19 -8.5q-9 0 -20 7.5t-35 28.5q-8 6 -22 18l-74 61l33 41zM557 184v-152q-45 -19 -91.5 -31t-125.5 -12q-295 0 -295 327q0 92 38 171t109 126t163 47q126 0 198 -29v-157h-49l-21 110q-4 1 -22 5t-48 7.5
t-65 3.5q-73 0 -117.5 -29t-64.5 -90.5t-20 -161.5q0 -125 54.5 -199.5t151.5 -74.5q44 0 74 8t46 17.5t16 11.5l20 102h49z" />
    <glyph glyph-name="ccaron" unicode="&#x10d;" horiz-adv-x="454" 
d="M196 576l-96 97l34 35l120 -87l116 88l25 -33l-97 -100q-30 -32 -51 -32q-19 0 -51 32zM143.5 19q-48.5 28 -76 83t-27.5 132q0 73 26 134.5t77.5 98.5t122.5 37q72 0 112.5 -36.5t40.5 -88.5q0 -17 -13 -31.5t-33 -14.5q-16 0 -24 3t-8 4l-16 94q-2 1 -10 4t-22.5 5.5
t-32.5 2.5q-73 0 -102.5 -48t-29.5 -152q0 -99 40 -142t121 -43q28 0 53 4.5t40 9.5t19 7l13 -30q0 -2 -22 -18t-57.5 -29.5t-80.5 -13.5q-62 0 -110.5 28z" />
    <glyph glyph-name="Dcaron" unicode="&#x10e;" horiz-adv-x="707" 
d="M341 769l126 63l25 -36l-79 -64l-29 -23q-16 -14 -28 -22.5t-19 -8.5q-9 0 -20 7.5t-35 28.5q-8 6 -22 18l-74 61l33 41zM55 43l83 17v527l-83 18v43h296q148 0 227.5 -80t79.5 -228q0 -168 -88 -254t-260 -86h-255v43zM456 80.5q52 29.5 76.5 92t24.5 164.5
q0 131 -57.5 192t-179.5 61q-60 0 -96 -7v-521q14 -5 41.5 -8t53.5 -3q85 0 137 29.5z" />
    <glyph glyph-name="dcaron" unicode="&#x10f;" horiz-adv-x="545" 
d="M504.5 589.5q4.5 26.5 4.5 47.5q0 29 -25 59q16 23 45 23q25 0 37.5 -15.5t12.5 -38.5q0 -20 -12 -47.5t-25 -48.5t-17 -27h-32q7 21 11.5 47.5zM93.5 47.5q-52.5 56.5 -52.5 170.5q0 100 32.5 164t81.5 93t99 29q65 0 110 -39v155l-82 23v39l136 17l28 -14v-615l71 -15
v-39l-136 -20l-13 52l-4 1q-20 -21 -56 -39.5t-83 -18.5q-79 0 -131.5 56.5zM315 69q29 8 49 18v338q-16 6 -41.5 11t-52.5 5q-67 0 -103.5 -42.5t-36.5 -147.5q0 -99 28 -144.5t98 -45.5q30 0 59 8z" />
    <glyph glyph-name="Dcroat" unicode="&#x110;" horiz-adv-x="712" 
d="M57 0zM142 60v245h-85v57h85v225l-83 18v43h308q142 0 218.5 -82.5t76.5 -235.5q0 -99 -40 -173.5t-113 -115.5t-169 -41h-281v43zM329 51q83 0 134 28t74.5 88.5t23.5 159.5q0 137 -54 200t-171 63q-59 0 -108 -7v-221h176v-57h-176v-243q39 -11 101 -11z" />
    <glyph glyph-name="dcroat" unicode="&#x111;" horiz-adv-x="545" 
d="M93.5 47.5q-52.5 56.5 -52.5 170.5q0 100 32.5 164t81.5 93t99 29q65 0 110 -39v87h-181v48h181v30l-82 13v39l136 17l28 -14v-85h38v-48h-38v-482l71 -15v-39l-136 -20l-13 52l-4 1q-20 -21 -56 -39.5t-83 -18.5q-79 0 -131.5 56.5zM315 69q29 8 49 18v338
q-16 6 -41.5 11t-52.5 5q-67 0 -103.5 -42.5t-36.5 -147.5q0 -99 28 -144.5t98 -45.5q30 0 59 8z" />
    <glyph glyph-name="Emacron" unicode="&#x112;" horiz-adv-x="572" 
d="M145 781h332l-10 -58h-332zM138 60v528l-83 17v43h458v-164h-49l-21 109h-121l-98 -6v-229h158l15 59h42v-171h-42l-15 59h-158v-238q19 -4 49 -7t58 -3h120l22 107h49v-164h-467v43z" />
    <glyph glyph-name="emacron" unicode="&#x113;" horiz-adv-x="471" 
d="M79 606l10 57h332l-10 -57h-332zM92 59q-55 68 -55 174q0 79 28.5 140.5t79.5 96t115 34.5q82 0 123 -53t41 -129q0 -53 -10 -71t-38 -18h-251q0 -76 37.5 -124t119.5 -48q35 0 61.5 5.5t41 11t17.5 7.5l14 -28q0 -2 -22.5 -19.5t-59 -32t-82.5 -14.5q-105 0 -160 68z
M340 287q3 18 3 40q0 60 -21.5 89.5t-76.5 29.5q-60 0 -89 -42t-30 -125z" />
    <glyph glyph-name="Ebreve" unicode="&#x114;" horiz-adv-x="572" 
d="M55 0zM138 60v528l-83 17v43h458v-164h-49l-21 109h-121l-98 -6v-229h158l15 59h42v-171h-42l-15 59h-158v-238q19 -4 49 -7t58 -3h120l22 107h49v-164h-467v43zM248.5 800q8.5 -17 27.5 -32t48 -15q35 0 58 15t34.5 32.5t11.5 20.5l31 -8q0 -7 -13 -37t-44 -57t-81 -27
q-58 0 -89 26t-41.5 53t-10.5 37l60 13q0 -4 8.5 -21z" />
    <glyph glyph-name="ebreve" unicode="&#x115;" horiz-adv-x="459" 
d="M25 0zM80 59q-55 68 -55 174q0 79 28.5 140.5t79.5 96t115 34.5q82 0 123 -53t41 -129q0 -53 -10 -71t-38 -18h-251q0 -76 37.5 -124t119.5 -48q35 0 61.5 5.5t41 11t17.5 7.5l14 -28q0 -2 -22.5 -19.5t-59 -32t-82.5 -14.5q-105 0 -160 68zM328 287q3 18 3 40
q0 60 -21.5 89.5t-76.5 29.5q-60 0 -89 -42t-30 -125zM151 678q8 -21 32 -40.5t69 -19.5q44 0 68 20t32 41.5t8 28.5l34 -8q0 -14 -9.5 -48t-42.5 -66.5t-97 -32.5t-98 31t-44.5 64t-10.5 45l51 13q0 -7 8 -28z" />
    <glyph glyph-name="Edotaccent" unicode="&#x116;" horiz-adv-x="572" 
d="M269.5 711q-15.5 17 -15.5 45q0 27 17.5 46.5t43.5 19.5t41 -16t15 -44t-16.5 -48t-44.5 -20q-25 0 -40.5 17zM138 60v528l-83 17v43h458v-164h-49l-21 109h-121l-98 -6v-229h158l15 59h42v-171h-42l-15 59h-158v-238q19 -4 49 -7t58 -3h120l22 107h49v-164h-467v43z" />
    <glyph glyph-name="edotaccent" unicode="&#x117;" horiz-adv-x="471" 
d="M205.5 585q-15.5 17 -15.5 45q0 27 17.5 46.5t43.5 19.5t41 -16t15 -44t-16.5 -48t-44.5 -20q-25 0 -40.5 17zM92 59q-55 68 -55 174q0 79 28.5 140.5t79.5 96t115 34.5q82 0 123 -53t41 -129q0 -53 -10 -71t-38 -18h-251q0 -76 37.5 -124t119.5 -48q35 0 61.5 5.5t41 11
t17.5 7.5l14 -28q0 -2 -22.5 -19.5t-59 -32t-82.5 -14.5q-105 0 -160 68zM340 287q3 18 3 40q0 60 -21.5 89.5t-76.5 29.5q-60 0 -89 -42t-30 -125z" />
    <glyph glyph-name="Eogonek" unicode="&#x118;" horiz-adv-x="572" 
d="M138 60v528l-83 17v43h458v-164h-49l-21 109h-121l-98 -6v-229h158l15 59h42v-171h-42l-15 59h-158v-238q52 -10 107 -10h120l35 107h49l-13 -148l-1 -1q-46 -54 -46 -98t43 -44q21 0 57 21l18 -30q0 -1 -15.5 -14.5t-38 -25t-47.5 -11.5q-37 0 -60 19t-23 55
q0 55 52 113h-406v43z" />
    <glyph glyph-name="eogonek" unicode="&#x119;" horiz-adv-x="471" 
d="M246 -168q-23 19 -23 55q0 33 18.5 60t47.5 47q-18 -3 -37 -3q-105 0 -160 68t-55 174q0 79 28.5 140.5t79.5 96t115 34.5q82 0 123 -53t41 -129q0 -53 -10 -71t-38 -18h-251q0 -76 37.5 -124t119.5 -48q35 0 61.5 5.5t41 11t17.5 7.5l14 -28q0 -1 -17.5 -15.5
t-40.5 -25.5q-26 -18 -47.5 -46t-21.5 -53q0 -44 43 -44q21 0 57 21l18 -30q0 -1 -15.5 -14.5t-38 -25t-47.5 -11.5q-37 0 -60 19zM340 287q3 18 3 40q0 60 -21.5 89.5t-76.5 29.5q-60 0 -89 -42t-30 -125z" />
    <glyph glyph-name="Ecaron" unicode="&#x11a;" horiz-adv-x="572" 
d="M306 769l126 63l25 -36l-79 -64l-29 -23q-16 -14 -28 -22.5t-19 -8.5q-9 0 -20 7.5t-35 28.5q-8 6 -22 18l-74 61l33 41zM138 60v528l-83 17v43h458v-164h-49l-21 109h-121l-98 -6v-229h158l15 59h42v-171h-42l-15 59h-158v-238q19 -4 49 -7t58 -3h120l22 107h49v-164
h-467v43z" />
    <glyph glyph-name="ecaron" unicode="&#x11b;" horiz-adv-x="471" 
d="M191 576l-96 97l34 35l120 -87l116 88l25 -33l-97 -100q-30 -32 -51 -32q-19 0 -51 32zM92 59q-55 68 -55 174q0 79 28.5 140.5t79.5 96t115 34.5q82 0 123 -53t41 -129q0 -53 -10 -71t-38 -18h-251q0 -76 37.5 -124t119.5 -48q35 0 61.5 5.5t41 11t17.5 7.5l14 -28
q0 -2 -22.5 -19.5t-59 -32t-82.5 -14.5q-105 0 -160 68zM340 287q3 18 3 40q0 60 -21.5 89.5t-76.5 29.5q-60 0 -89 -42t-30 -125z" />
    <glyph glyph-name="Gcircumflex" unicode="&#x11c;" horiz-adv-x="645" 
d="M45 0zM413 278v43h197v-50l-41 -8v-263h-41l-32 27h-14q-57 -38 -153 -38q-140 0 -212 79.5t-72 247.5q0 93 37.5 171.5t108.5 125.5t168 47q72 0 126.5 -9.5t72.5 -20.5v-156h-48l-29 110q-4 1 -20.5 5t-46.5 8t-68 4q-109 0 -154.5 -67.5t-45.5 -207.5
q0 -141 48.5 -211t159.5 -70q45 0 71.5 7.5t59.5 24.5v183zM271 780l29 23q16 14 28 22.5t19 8.5q9 0 20 -7.5t35 -28.5q8 -6 22 -18l74 -61l-33 -41l-122 65l-126 -63l-25 36z" />
    <glyph glyph-name="gcircumflex" unicode="&#x11d;" horiz-adv-x="461" 
d="M22 0zM76.5 -138.5q-54.5 27.5 -54.5 83.5q0 45 33.5 74.5t80.5 53.5q-9 8 -14.5 22t-5.5 30q0 18 13 35t32 30q-62 13 -92 52t-30 91q0 48 25.5 87t70 61.5t97.5 22.5q66 0 107 -31q1 1 27 21.5t61 20.5q44 0 44 -43q0 -23 -18 -44l-37 8q-8 1 -20.5 3.5t-25.5 2.5
q15 -21 22.5 -46.5t7.5 -49.5q0 -48 -25.5 -84.5t-68.5 -56.5t-93 -20h-13v-56l106 -21q73 -14 110 -39.5t37 -76.5q0 -48 -32 -83.5t-86.5 -55t-120.5 -19.5q-83 0 -137.5 27.5zM294.5 265.5q24.5 22.5 24.5 80.5q0 49 -22.5 74.5t-73.5 25.5q-54 0 -77.5 -25.5
t-23.5 -79.5q0 -51 25 -74.5t74 -23.5t73.5 22.5zM339 -91.5q37 22.5 37 59.5q0 23 -14.5 39t-54.5 24l-138 26q-26 -18 -45 -46t-19 -53q0 -39 30.5 -55.5t100.5 -16.5q66 0 103 22.5zM189 683q27 27 46 27q17 0 38 -21l106 -110l-35 -35l-118 84l-115 -83l-28 32z" />
    <glyph glyph-name="Gbreve" unicode="&#x11e;" horiz-adv-x="645" 
d="M270.5 800q8.5 -17 27.5 -32t48 -15q35 0 58 15t34.5 32.5t11.5 20.5l31 -8q0 -7 -13 -37t-44 -57t-81 -27q-58 0 -89 26t-41.5 53t-10.5 37l60 13q0 -4 8.5 -21zM413 278v43h197v-50l-41 -8v-263h-41l-32 27h-14q-57 -38 -153 -38q-140 0 -212 79.5t-72 247.5
q0 93 37.5 171.5t108.5 125.5t168 47q72 0 126.5 -9.5t72.5 -20.5v-156h-48l-29 110q-4 1 -20.5 5t-46.5 8t-68 4q-109 0 -154.5 -67.5t-45.5 -207.5q0 -141 48.5 -211t159.5 -70q45 0 71.5 7.5t59.5 24.5v183z" />
    <glyph glyph-name="gbreve" unicode="&#x11f;" horiz-adv-x="466" 
d="M123 584q-34 31 -44.5 64t-10.5 45l51 13q0 -7 8 -28t32 -40.5t69 -19.5q44 0 68 20t32 41.5t8 28.5l34 -8q0 -14 -9.5 -48t-42.5 -66.5t-97 -32.5t-98 31zM76.5 -138.5q-54.5 27.5 -54.5 83.5q0 45 33.5 74.5t80.5 53.5q-9 8 -14.5 22t-5.5 30q0 18 13 35t32 30
q-62 13 -92 52t-30 91q0 48 25.5 87t70 61.5t97.5 22.5q66 0 107 -31q1 1 27 21.5t61 20.5q44 0 44 -43q0 -23 -18 -44l-37 8q-8 1 -20.5 3.5t-25.5 2.5q15 -21 22.5 -46.5t7.5 -49.5q0 -48 -25.5 -84.5t-68.5 -56.5t-93 -20h-13v-56l106 -21q73 -14 110 -39.5t37 -76.5
q0 -48 -32 -83.5t-86.5 -55t-120.5 -19.5q-83 0 -137.5 27.5zM294.5 265.5q24.5 22.5 24.5 80.5q0 49 -22.5 74.5t-73.5 25.5q-54 0 -77.5 -25.5t-23.5 -79.5q0 -51 25 -74.5t74 -23.5t73.5 22.5zM339 -91.5q37 22.5 37 59.5q0 23 -14.5 39t-54.5 24l-138 26
q-26 -18 -45 -46t-19 -53q0 -39 30.5 -55.5t100.5 -16.5q66 0 103 22.5z" />
    <glyph glyph-name="Gdotaccent" unicode="&#x120;" horiz-adv-x="645" 
d="M45 0zM413 278v43h197v-50l-41 -8v-263h-41l-32 27h-14q-57 -38 -153 -38q-140 0 -212 79.5t-72 247.5q0 93 37.5 171.5t108.5 125.5t168 47q72 0 126.5 -9.5t72.5 -20.5v-156h-48l-29 110q-4 1 -20.5 5t-46.5 8t-68 4q-109 0 -154.5 -67.5t-45.5 -207.5
q0 -141 48.5 -211t159.5 -70q45 0 71.5 7.5t59.5 24.5v183zM301.5 711q-15.5 17 -15.5 45q0 27 17.5 46.5t43.5 19.5t41 -16t15 -44t-16.5 -48t-44.5 -20q-25 0 -40.5 17z" />
    <glyph glyph-name="gdotaccent" unicode="&#x121;" horiz-adv-x="461" 
d="M22 0zM76.5 -138.5q-54.5 27.5 -54.5 83.5q0 45 33.5 74.5t80.5 53.5q-9 8 -14.5 22t-5.5 30q0 18 13 35t32 30q-62 13 -92 52t-30 91q0 48 25.5 87t70 61.5t97.5 22.5q66 0 107 -31q1 1 27 21.5t61 20.5q44 0 44 -43q0 -23 -18 -44l-37 8q-8 1 -20.5 3.5t-25.5 2.5
q15 -21 22.5 -46.5t7.5 -49.5q0 -48 -25.5 -84.5t-68.5 -56.5t-93 -20h-13v-56l106 -21q73 -14 110 -39.5t37 -76.5q0 -48 -32 -83.5t-86.5 -55t-120.5 -19.5q-83 0 -137.5 27.5zM294.5 265.5q24.5 22.5 24.5 80.5q0 49 -22.5 74.5t-73.5 25.5q-54 0 -77.5 -25.5
t-23.5 -79.5q0 -51 25 -74.5t74 -23.5t73.5 22.5zM339 -91.5q37 22.5 37 59.5q0 23 -14.5 39t-54.5 24l-138 26q-26 -18 -45 -46t-19 -53q0 -39 30.5 -55.5t100.5 -16.5q66 0 103 22.5zM187.5 585q-15.5 17 -15.5 45q0 27 17.5 46.5t43.5 19.5t41 -16t15 -44t-16.5 -48
t-44.5 -20q-25 0 -40.5 17z" />
    <glyph glyph-name="Gcommaaccent" unicode="&#x122;" horiz-adv-x="645" 
d="M413 278v43h197v-50l-41 -8v-263h-41l-32 27h-14q-57 -38 -153 -38q-140 0 -212 79.5t-72 247.5q0 93 37.5 171.5t108.5 125.5t168 47q72 0 126.5 -9.5t72.5 -20.5v-156h-48l-29 110q-4 1 -20.5 5t-46.5 8t-68 4q-109 0 -154.5 -67.5t-45.5 -207.5q0 -141 48.5 -211
t159.5 -70q45 0 71.5 7.5t59.5 24.5v183zM338 -144q4 17 4 36q0 33 -26 57q10 11 22 16.5t23 5.5q24 0 36 -15.5t12 -36.5q0 -30 -12 -53.5t-26.5 -39t-14.5 -13.5h-31q9 26 13 43z" />
    <glyph glyph-name="gcommaaccent" unicode="&#x123;" horiz-adv-x="466" 
d="M198 552.5q-12 5.5 -22 16.5q26 24 26 57q0 37 -21 98h31q0 2 16 -19t28.5 -48.5t12.5 -57.5q0 -21 -12 -36.5t-36 -15.5q-11 0 -23 5.5zM76.5 -138.5q-54.5 27.5 -54.5 83.5q0 45 33.5 74.5t80.5 53.5q-9 8 -14.5 22t-5.5 30q0 18 13 35t32 30q-62 13 -92 52t-30 91
q0 48 25.5 87t70 61.5t97.5 22.5q66 0 107 -31q1 1 27 21.5t61 20.5q44 0 44 -43q0 -23 -18 -44l-37 8q-8 1 -20.5 3.5t-25.5 2.5q15 -21 22.5 -46.5t7.5 -49.5q0 -48 -25.5 -84.5t-68.5 -56.5t-93 -20h-13v-56l106 -21q73 -14 110 -39.5t37 -76.5q0 -48 -32 -83.5
t-86.5 -55t-120.5 -19.5q-83 0 -137.5 27.5zM294.5 265.5q24.5 22.5 24.5 80.5q0 49 -22.5 74.5t-73.5 25.5q-54 0 -77.5 -25.5t-23.5 -79.5q0 -51 25 -74.5t74 -23.5t73.5 22.5zM339 -91.5q37 22.5 37 59.5q0 23 -14.5 39t-54.5 24l-138 26q-26 -18 -45 -46t-19 -53
q0 -39 30.5 -55.5t100.5 -16.5q66 0 103 22.5z" />
    <glyph glyph-name="Hcircumflex" unicode="&#x124;" horiz-adv-x="753" 
d="M55 0zM55 44l83 15v530l-83 15v44h252v-44l-83 -15v-229h305v229l-82 15v44h251v-44l-82 -15v-530l82 -15v-44h-251v44l82 15v246h-305v-246l83 -15v-44h-252v44zM303 780l29 23q16 14 28 22.5t19 8.5q9 0 20 -7.5t35 -28.5q8 -6 22 -18l74 -61l-33 -41l-122 65l-126 -63
l-25 36z" />
    <glyph glyph-name="hcircumflex" unicode="&#x125;" horiz-adv-x="575" 
d="M0 0zM24 41l81 14v567l-80 14v41l139 22l23 -9v-237q34 22 78.5 36.5t78.5 14.5q57 0 94 -33t37 -104v-312l80 -14v-41h-240v41l78 14v298q0 45 -26 63t-79 18q-20 0 -49 -4t-52 -9v-366l79 -14v-41h-242v41zM104 837q27 27 46 27q17 0 38 -21l106 -110l-35 -35l-118 84
l-115 -83l-28 32z" />
    <glyph glyph-name="Hbar" unicode="&#x126;" horiz-adv-x="753" 
d="M55 0v44l83 15v380h-78v55h78v95l-83 15v44h252v-44l-83 -15v-95h305v95l-82 15v44h251v-44l-82 -15v-95h82v-55h-82v-380l82 -15v-44h-251v44l82 15v226h-305v-226l83 -15v-44h-252zM224 340h305v99h-305v-99z" />
    <glyph glyph-name="hbar" unicode="&#x127;" horiz-adv-x="575" 
d="M24 41l81 14v497h-82v48h82v30l-82 13v39l136 17l28 -14v-85h137v-48h-137v-99q0 1 26.5 14.5t61 25t69.5 11.5q57 0 94 -33t37 -104v-312l80 -14v-41h-240v41l78 14v298q0 45 -26 63t-79 18q-28 0 -60 -5.5t-41 -7.5v-366l79 -14v-41h-242v41z" />
    <glyph glyph-name="Itilde" unicode="&#x128;" horiz-adv-x="369" 
d="M10 0zM59 44l82 15v530l-82 15v44h251v-44l-82 -15v-530l82 -15v-44h-251v44zM192 713l-79 25l-80 -36l-23 26l37 49q21 29 61 29q23 0 70 -15l79 -25l80 36l23 -26l-37 -49q-21 -29 -61 -29q-23 0 -70 15z" />
    <glyph glyph-name="itilde" unicode="&#x129;" horiz-adv-x="293" 
d="M0 0zM28 41l80 14v356l-80 14v41l139 28l23 -9v-430l78 -14v-41h-240v41zM36 673.5q17 9.5 36 9.5q18 0 42.5 -7t28.5 -8l84 -25l68 34l22 -20l-28 -47q-10 -17 -27 -26.5t-36 -9.5q-18 0 -42.5 7t-28.5 8l-84 25l-68 -34l-22 20l28 47q10 17 27 26.5z" />
    <glyph glyph-name="Imacron" unicode="&#x12a;" horiz-adv-x="369" 
d="M33 723l10 58h292l-10 -58h-292zM59 0v44l82 15v530l-82 15v44h251v-44l-82 -15v-530l82 -15v-44h-251z" />
    <glyph glyph-name="imacron" unicode="&#x12b;" horiz-adv-x="293" 
d="M-24 606l8 60h276l-8 -60h-276zM28 0v41l80 14v356l-80 14v41l139 28l23 -9v-430l78 -14v-41h-240z" />
    <glyph glyph-name="Ibreve" unicode="&#x12c;" horiz-adv-x="369" 
d="M45 0zM59 44l82 15v530l-82 15v44h251v-44l-82 -15v-530l82 -15v-44h-251v44zM113.5 800q8.5 -17 27.5 -32t48 -15q35 0 58 15t34.5 32.5t11.5 20.5l31 -8q0 -7 -13 -37t-44 -57t-81 -27q-58 0 -89 26t-41.5 53t-10.5 37l60 13q0 -4 8.5 -21z" />
    <glyph glyph-name="ibreve" unicode="&#x12d;" horiz-adv-x="293" 
d="M0 0zM28 41l80 14v356l-80 14v41l139 28l23 -9v-430l78 -14v-41h-240v41zM57 678q8 -21 32 -40.5t69 -19.5q44 0 68 20t32 41.5t8 28.5l34 -8q0 -14 -9.5 -48t-42.5 -66.5t-97 -32.5t-98 31t-44.5 64t-10.5 45l51 13q0 -7 8 -28z" />
    <glyph glyph-name="Iogonek" unicode="&#x12e;" horiz-adv-x="369" 
d="M141 59v530l-82 15v44h251v-44l-82 -15v-530l82 -15v-44h-31q-56 -44 -56 -83q0 -44 43 -44q21 0 57 21l18 -30q0 -1 -15.5 -14.5t-38 -25t-47.5 -11.5q-37 0 -60 19t-23 55t21 64.5t54 48.5h-173v44z" />
    <glyph glyph-name="iogonek" unicode="&#x12f;" horiz-adv-x="293" 
d="M99.5 585q-15.5 17 -15.5 45q0 27 17.5 46.5t43.5 19.5t41 -16t15 -44t-16.5 -48t-44.5 -20q-25 0 -40.5 17zM108 55v356l-80 14v41l139 28l23 -9v-430l78 -14v-41h-23q-56 -44 -56 -83q0 -44 43 -44q21 0 57 21l18 -30q0 -1 -15.5 -14.5t-38 -25t-47.5 -11.5
q-37 0 -60 19t-23 55t21 64.5t54 48.5h-170v41z" />
    <glyph glyph-name="Idotaccent" unicode="&#x130;" horiz-adv-x="369" 
d="M141.5 711q-15.5 17 -15.5 45q0 27 17.5 46.5t43.5 19.5t41 -16t15 -44t-16.5 -48t-44.5 -20q-25 0 -40.5 17zM59 44l82 15v530l-82 15v44h251v-44l-82 -15v-530l82 -15v-44h-251v44z" />
    <glyph glyph-name="dotlessi" unicode="&#x131;" horiz-adv-x="293" 
d="M28 41l80 14v356l-80 14v41l139 28l23 -9v-430l78 -14v-41h-240v41z" />
    <glyph glyph-name="IJ" unicode="&#x132;" horiz-adv-x="769" 
d="M59 0zM59 44l82 15v530l-82 15v44h251v-44l-82 -15v-530l82 -15v-44h-251v44zM427 157l29 -110q4 -2 18 -6t32 -4q58 0 58 62v488l-95 17v44h255v-44l-73 -15v-478q0 -66 -37.5 -95.5t-109.5 -29.5q-33 0 -60.5 6t-44 12.5t-20.5 8.5v144h48z" />
    <glyph glyph-name="ij" unicode="&#x133;" horiz-adv-x="552" 
d="M28 0zM98.5 585q-15.5 17 -15.5 45q0 27 17.5 46.5t43.5 19.5t41 -16t15 -44t-16.5 -48t-44.5 -20q-25 0 -40.5 17zM28 41l80 14v356l-80 14v41l139 28l23 -9v-430l78 -14v-41h-240v41zM374.5 585q-15.5 17 -15.5 45q0 27 17.5 46.5t43.5 19.5t41 -16t15 -44t-16.5 -48
t-44.5 -20q-25 0 -40.5 17zM306.5 -160.5q-26.5 4.5 -26.5 5.5v38l108 26v502l-80 14v41l139 28l23 -9v-568q0 -39 -27.5 -60.5t-79.5 -21.5q-30 0 -56.5 4.5z" />
    <glyph glyph-name="Jcircumflex" unicode="&#x134;" horiz-adv-x="400" 
d="M10 0zM58 157l29 -110q4 -2 18 -6t32 -4q58 0 58 62v488l-95 17v44h255v-44l-73 -15v-478q0 -66 -37.5 -95.5t-109.5 -29.5q-33 0 -60.5 6t-44 12.5t-20.5 8.5v144h48zM165 780l29 23q16 14 28 22.5t19 8.5q9 0 20 -7.5t35 -28.5q8 -6 22 -18l74 -61l-33 -41l-122 65
l-126 -63l-25 36z" />
    <glyph glyph-name="jcircumflex" unicode="&#x135;" horiz-adv-x="259" 
d="M0 0zM95 -91v502l-80 14v41l139 28l23 -9v-568q0 -39 -27.5 -60.5t-79.5 -21.5q-30 0 -56.5 4.5t-26.5 5.5v38zM94 683q27 27 46 27q17 0 38 -21l106 -110l-35 -35l-118 84l-115 -83l-28 32z" />
    <glyph glyph-name="Kcommaaccent" unicode="&#x136;" horiz-adv-x="600" 
d="M55 44l83 15v530l-83 15v44h252v-44l-83 -15v-230h31l184 223v11l-58 12v43h204v-44l-57 -12l-196 -234l209 -298l64 -15v-45h-94q-25 0 -37 5.5t-24 23.5l-193 283h-33v-253l83 -15v-44h-252v44zM321 -144q4 17 4 36q0 33 -26 57q10 11 22 16.5t23 5.5q24 0 36 -15.5
t12 -36.5q0 -30 -12 -53.5t-26.5 -39t-14.5 -13.5h-31q9 26 13 43z" />
    <glyph glyph-name="kcommaaccent" unicode="&#x137;" horiz-adv-x="489" 
d="M99 55v567l-80 14v41l139 22l23 -9v-395h56l106 132v14l-59 13v40h192v-41l-60 -16l-116 -148l133 -230l82 -18v-41h-162v18q0 15 -7 25l-113 199h-52v-187l78 -14v-41h-240v41zM247 -144q4 17 4 36q0 33 -26 57q10 11 22 16.5t23 5.5q24 0 36 -15.5t12 -36.5
q0 -30 -12 -53.5t-26.5 -39t-14.5 -13.5h-31q9 26 13 43z" />
    <glyph glyph-name="kgreenlandic" unicode="&#x138;" horiz-adv-x="496" 
d="M106 55v356l-80 14v41l139 28l23 -9v-190h56l106 132v14l-59 13v40h192v-41l-60 -16l-116 -148l133 -230l82 -18v-41h-162v18q0 15 -7 25l-113 199h-52v-187l78 -14v-41h-240v41z" />
    <glyph glyph-name="Lacute" unicode="&#x139;" horiz-adv-x="523" 
d="M130 716l131 98q12 9 23.5 15.5t18.5 6.5q15 0 27 -18t15 -51l-193 -86zM55 0v43l83 17v528l-83 17v43h260v-47l-91 -15v-523l98 -8h113l22 107h49v-162h-451z" />
    <glyph glyph-name="lacute" unicode="&#x13a;" horiz-adv-x="283" 
d="M1 718l131 98q12 9 23.5 15.5t18.5 6.5q15 0 27 -18t15 -51l-193 -86zM19 0v41l80 14v567l-80 14v41l139 22l23 -9v-635l78 -14v-41h-240z" />
    <glyph glyph-name="Lcommaaccent" unicode="&#x13b;" horiz-adv-x="527" 
d="M59 0v43l83 17v528l-83 17v43h260v-47l-91 -15v-523l98 -8h113l22 107h49v-162h-451zM275 -144q4 17 4 36q0 33 -26 57q10 11 22 16.5t23 5.5q24 0 36 -15.5t12 -36.5q0 -30 -12 -53.5t-26.5 -39t-14.5 -13.5h-31q9 26 13 43z" />
    <glyph glyph-name="lcommaaccent" unicode="&#x13c;" horiz-adv-x="283" 
d="M19 0v41l80 14v567l-80 14v41l139 22l23 -9v-635l78 -14v-41h-240zM112 -144q4 17 4 36q0 33 -26 57q10 11 22 16.5t23 5.5q24 0 36 -15.5t12 -36.5q0 -30 -12 -53.5t-26.5 -39t-14.5 -13.5h-31q9 26 13 43z" />
    <glyph glyph-name="Lcaron" unicode="&#x13d;" horiz-adv-x="527" 
d="M394.5 528.5q4.5 26.5 4.5 47.5q0 29 -25 59q16 23 45 23q25 0 37.5 -15.5t12.5 -38.5q0 -20 -12 -47.5t-25 -48.5t-17 -27h-32q7 21 11.5 47.5zM59 0v43l83 17v528l-83 17v43h260v-47l-91 -15v-523l98 -8h113l22 107h49v-162h-451z" />
    <glyph glyph-name="lcaron" unicode="&#x13e;" horiz-adv-x="291" 
d="M243.5 589.5q4.5 26.5 4.5 47.5q0 29 -25 59q16 23 45 23q25 0 37.5 -15.5t12.5 -38.5q0 -20 -12 -47.5t-25 -48.5t-17 -27h-32q7 21 11.5 47.5zM19 0v41l80 14v567l-80 14v41l139 22l23 -9v-635l78 -14v-41h-240z" />
    <glyph glyph-name="Ldot" unicode="&#x13f;" horiz-adv-x="523" 
d="M55 0zM55 43l83 17v528l-83 17v43h260v-47l-91 -15v-523l98 -8h113l22 107h49v-162h-451v43zM332.5 312.5q-15.5 17.5 -15.5 45.5t17.5 47.5t44.5 19.5q26 0 41.5 -16.5t15.5 -44.5q0 -29 -16.5 -49t-45.5 -20q-26 0 -41.5 17.5z" />
    <glyph glyph-name="ldot" unicode="&#x140;" horiz-adv-x="283" 
d="M19 0zM19 41l80 14v567l-80 14v41l139 22l23 -9v-635l78 -14v-41h-240v41zM233.5 312.5q-15.5 17.5 -15.5 45.5t17.5 47.5t44.5 19.5q26 0 41.5 -16.5t15.5 -44.5q0 -29 -16.5 -49t-45.5 -20q-26 0 -41.5 17.5z" />
    <glyph glyph-name="Lslash" unicode="&#x141;" horiz-adv-x="523" 
d="M55 43l83 17v211l-69 -24v59l69 25v257l-83 17v43h260v-47l-91 -15v-224l135 50v-63l-135 -48v-238l98 -8h113l22 107h49v-162h-451v43z" />
    <glyph glyph-name="lslash" unicode="&#x142;" horiz-adv-x="283" 
d="M19 41l80 14v250l-100 -36v59l100 37v257l-80 14v41l139 22l23 -9v-295l103 39v-63l-103 -37v-279l78 -14v-41h-240v41z" />
    <glyph glyph-name="Nacute" unicode="&#x143;" horiz-adv-x="727" 
d="M274 716l131 98q12 9 23.5 15.5t18.5 6.5q15 0 27 -18t15 -51l-193 -86zM55 0v42l70 16v532l-65 14v44h153l314 -497l14 -22h9v461l-69 16v42h199v-42l-69 -16v-590h-92l-314 499l-11 17h-9v-458l70 -16v-42h-200z" />
    <glyph glyph-name="nacute" unicode="&#x144;" horiz-adv-x="576" 
d="M199 565l109 121q15 16 23.5 23.5t18.5 7.5q14 0 28 -16.5t23 -45.5l-174 -120zM26 41l80 14v356l-80 14v41l149 28l8 -33l2 -6q91 49 160 49q62 0 96.5 -36t34.5 -101v-312l80 -14v-41h-240v41l78 14v298q0 43 -25 62t-80 19q-26 0 -55 -3.5t-46 -8.5v-367l78 -14v-41
h-240v41z" />
    <glyph glyph-name="Ncommaaccent" unicode="&#x145;" horiz-adv-x="727" 
d="M55 0v42l70 16v532l-65 14v44h153l315 -498l13 -21h9v461l-69 16v42h199v-42l-69 -16v-590h-92l-315 500l-10 16h-9v-458l70 -16v-42h-200zM350 -144q4 17 4 36q0 33 -26 57q10 11 22 16.5t23 5.5q24 0 36 -15.5t12 -36.5q0 -30 -12 -53.5t-26.5 -39t-14.5 -13.5h-31
q9 26 13 43z" />
    <glyph glyph-name="ncommaaccent" unicode="&#x146;" horiz-adv-x="576" 
d="M26 41l80 14v356l-80 14v41l149 28l8 -33l2 -6q91 49 160 49q62 0 96.5 -36t34.5 -101v-312l80 -14v-41h-240v41l78 14v298q0 43 -25 62t-80 19q-26 0 -55 -3.5t-46 -8.5v-367l78 -14v-41h-240v41zM268 -144q4 17 4 36q0 33 -26 57q10 11 22 16.5t23 5.5q24 0 36 -15.5
t12 -36.5q0 -30 -12 -53.5t-26.5 -39t-14.5 -13.5h-31q9 26 13 43z" />
    <glyph glyph-name="Ncaron" unicode="&#x147;" horiz-adv-x="727" 
d="M345 685.5q-11 7.5 -35 28.5q-8 6 -22 18l-74 61l33 41l122 -65l126 63l25 -36l-79 -64l-29 -23q-16 -14 -28 -22.5t-19 -8.5q-9 0 -20 7.5zM55 0v42l70 16v532l-65 14v44h153l314 -496l14 -23h9v461l-69 16v42h199v-42l-69 -16v-590h-92l-315 500l-10 16h-9v-458l70 -16
v-42h-200z" />
    <glyph glyph-name="ncaron" unicode="&#x148;" horiz-adv-x="576" 
d="M229 576l-96 97l34 35l120 -87l116 88l25 -33l-97 -100q-30 -32 -51 -32q-19 0 -51 32zM26 41l80 14v356l-80 14v41l149 28l8 -33l2 -6q91 49 160 49q62 0 96.5 -36t34.5 -101v-312l80 -14v-41h-240v41l78 14v298q0 43 -25 62t-80 19q-26 0 -55 -3.5t-46 -8.5v-367
l78 -14v-41h-240v41z" />
    <glyph glyph-name="napostrophe" unicode="&#x149;" horiz-adv-x="600" 
d="M10 0zM30.5 589.5q4.5 26.5 4.5 47.5q0 29 -25 59q16 23 45 23q25 0 37.5 -15.5t12.5 -38.5q0 -20 -12 -47.5t-25 -48.5t-17 -27h-32q7 21 11.5 47.5zM26 41l80 14v356l-80 14v41l149 28l8 -33l2 -6q91 49 160 49q62 0 96.5 -36t34.5 -101v-312l80 -14v-41h-240v41l78 14
v298q0 43 -25 62t-80 19q-26 0 -55 -3.5t-46 -8.5v-367l78 -14v-41h-240v41z" />
    <glyph glyph-name="Eng" unicode="&#x14a;" horiz-adv-x="727" 
d="M680 648v-42l-69 -16v-673q0 -39 -27.5 -60.5t-79.5 -21.5q-30 0 -56.5 4.5t-26.5 5.5v38l97 23v96l-324 514h-9v-458l70 -16v-42h-200v42l70 16v532l-65 14v44h153l315 -499l13 -20h9v461l-69 16v42h199z" />
    <glyph glyph-name="eng" unicode="&#x14b;" horiz-adv-x="552" 
d="M286 -155v38l108 26v444q0 43 -25 62t-80 19q-26 0 -55 -3.5t-46 -8.5v-367l78 -14v-41h-240v41l80 14v356l-80 14v41l149 28l9 -35l1 -4q91 49 160 49q62 0 96.5 -36t34.5 -101v-450q0 -40 -27.5 -61t-79.5 -21q-46 0 -83 10z" />
    <glyph glyph-name="Omacron" unicode="&#x14c;" horiz-adv-x="706" 
d="M192 723l10 58h332l-10 -58h-332zM127 73.5q-77 86.5 -77 239.5q0 97 38 176t110.5 125t172.5 46q89 0 153 -40t98 -112.5t34 -169.5q0 -101 -32.5 -180t-101.5 -125t-173 -46q-145 0 -222 86.5zM510.5 114.5q44.5 70.5 44.5 204.5q0 112 -24.5 173.5t-67.5 84.5t-106 23
q-67 0 -110 -18.5t-69.5 -79.5t-26.5 -183q0 -147 54 -211t164 -64q97 0 141.5 70.5z" />
    <glyph glyph-name="omacron" unicode="&#x14d;" horiz-adv-x="521" 
d="M108 663h332l-10 -57h-332zM94.5 58q-54.5 67 -54.5 182q0 71 28 131.5t80 96.5t121 36q105 0 160 -64.5t55 -176.5q0 -77 -27 -139t-79.5 -97.5t-126.5 -35.5q-102 0 -156.5 67zM366 98q28 49 28 147q0 105 -29.5 153t-101.5 48q-54 0 -83 -23t-39.5 -65.5t-10.5 -112.5
q0 -96 31.5 -146t108.5 -50q68 0 96 49z" />
    <glyph glyph-name="Obreve" unicode="&#x14e;" horiz-adv-x="696" 
d="M45 0zM122 73.5q-77 86.5 -77 239.5q0 97 38 176t110.5 125t172.5 46q89 0 153 -40t98 -112.5t34 -169.5q0 -101 -32.5 -180t-101.5 -125t-173 -46q-145 0 -222 86.5zM505.5 114.5q44.5 70.5 44.5 204.5q0 112 -24.5 173.5t-67.5 84.5t-106 23q-67 0 -110 -18.5
t-69.5 -79.5t-26.5 -183q0 -147 54 -211t164 -64q97 0 141.5 70.5zM276.5 800q8.5 -17 27.5 -32t48 -15q35 0 58 15t34.5 32.5t11.5 20.5l31 -8q0 -7 -13 -37t-44 -57t-81 -27q-58 0 -89 26t-41.5 53t-10.5 37l60 13q0 -4 8.5 -21z" />
    <glyph glyph-name="obreve" unicode="&#x14f;" horiz-adv-x="497" 
d="M25 0zM79.5 58q-54.5 67 -54.5 182q0 71 28 131.5t80 96.5t121 36q105 0 160 -64.5t55 -176.5q0 -77 -27 -139t-79.5 -97.5t-126.5 -35.5q-102 0 -156.5 67zM351 98q28 49 28 147q0 105 -29.5 153t-101.5 48q-54 0 -83 -23t-39.5 -65.5t-10.5 -112.5q0 -96 31.5 -146
t108.5 -50q68 0 96 49zM157 678q8 -21 32 -40.5t69 -19.5q44 0 68 20t32 41.5t8 28.5l34 -8q0 -14 -9.5 -48t-42.5 -66.5t-97 -32.5t-98 31t-44.5 64t-10.5 45l51 13q0 -7 8 -28z" />
    <glyph glyph-name="Ohungarumlaut" unicode="&#x150;" horiz-adv-x="696" 
d="M192 703l79 103q14 19 24.5 25.5t22.5 6.5q14 0 26.5 -15.5t19.5 -44.5l-144 -102zM376 703l79 103q14 19 24.5 25.5t22.5 6.5q14 0 26.5 -15.5t19.5 -44.5l-144 -102zM122 73.5q-77 86.5 -77 239.5q0 97 38 176t110.5 125t172.5 46q89 0 153 -40t98 -112.5t34 -169.5
q0 -101 -32.5 -180t-101.5 -125t-173 -46q-145 0 -222 86.5zM505.5 114.5q44.5 70.5 44.5 204.5q0 112 -24.5 173.5t-67.5 84.5t-106 23q-67 0 -110 -18.5t-69.5 -79.5t-26.5 -183q0 -147 54 -211t164 -64q97 0 141.5 70.5z" />
    <glyph glyph-name="ohungarumlaut" unicode="&#x151;" horiz-adv-x="521" 
d="M209.5 689.5q7.5 14.5 16.5 22.5t21 8q10 0 24 -11.5t28 -35.5l-128 -137l-30 22l58 111q3 6 10.5 20.5zM370.5 689.5q7.5 14.5 16.5 22.5t21 8q10 0 24 -11.5t28 -35.5l-128 -137l-30 22l58 111q3 6 10.5 20.5zM94.5 58q-54.5 67 -54.5 182q0 71 28 131.5t80 96.5
t121 36q105 0 160 -64.5t55 -176.5q0 -77 -27 -139t-79.5 -97.5t-126.5 -35.5q-102 0 -156.5 67zM366 98q28 49 28 147q0 105 -29.5 153t-101.5 48q-54 0 -83 -23t-39.5 -65.5t-10.5 -112.5q0 -96 31.5 -146t108.5 -50q68 0 96 49z" />
    <glyph glyph-name="OE" unicode="&#x152;" horiz-adv-x="891" 
d="M128 73q-83 73 -83 240q0 96 39.5 172t113.5 119.5t175 43.5h459v-164h-49l-21 109h-121l-98 -6v-229h158l15 59h42v-171h-42l-15 59h-158v-238q19 -4 49 -7t58 -3h120l22 107h49v-164h-481q-149 0 -232 73zM457 70v508q-16 7 -38.5 11.5t-44.5 4.5q-68 0 -116.5 -19
t-80 -79t-31.5 -177q0 -141 58.5 -205t169.5 -64q53 0 83 20z" />
    <glyph glyph-name="oe" unicode="&#x153;" horiz-adv-x="827" 
d="M755.5 37.5q-22.5 -17.5 -59 -32t-82.5 -14.5q-61 0 -106 24.5t-71 67.5q-30 -44 -76.5 -68t-106.5 -24q-102 0 -156.5 67t-54.5 182q0 71 28 131.5t80 96.5t121 36q123 0 178 -90q30 43 74.5 66.5t97.5 23.5q82 0 123 -53t41 -129q0 -53 -10 -71t-38 -18h-251
q0 -76 37.5 -124t119.5 -48q35 0 61.5 5.5t41 11t17.5 7.5l14 -28q0 -2 -22.5 -19.5zM369 98q28 49 28 147q0 105 -29.5 153t-101.5 48q-54 0 -83 -23t-39.5 -65.5t-10.5 -112.5q0 -96 31.5 -146t108.5 -50q68 0 96 49zM705 327q0 60 -21.5 89.5t-76.5 29.5q-60 0 -89 -42
t-30 -125l214 8q3 18 3 40z" />
    <glyph glyph-name="Racute" unicode="&#x154;" horiz-adv-x="611" 
d="M199 716l131 98q12 9 23.5 15.5t18.5 6.5q15 0 27 -18t15 -51l-193 -86zM55 43l83 17v528l-83 17v43h284q89 0 144 -40t55 -120q0 -59 -20.5 -97t-50 -59t-70.5 -39l141 -231l68 -19v-43h-104q-17 0 -32 7.5t-23 22.5l-137 243h-86v-213l83 -17v-43h-252v43zM287 328
q69 0 113 39.5t44 102.5q0 73 -39.5 97t-99.5 24q-41 0 -81 -5v-258h63z" />
    <glyph glyph-name="racute" unicode="&#x155;" horiz-adv-x="341" 
d="M198 686q15 16 23.5 23.5t18.5 7.5q14 0 28 -16.5t23 -45.5l-174 -120l-28 30zM99 55v361l-78 14v41l144 27l16 -55q5 5 24 19.5t44 28t45 13.5t32 -13.5t12 -35.5q0 -16 -6.5 -28t-14 -18.5t-9.5 -7.5l-46 12q-10 3 -18 4t-18 1q-14 0 -29 -3.5t-16 -3.5v-355l92 -13
v-43h-243v41z" />
    <glyph glyph-name="Rcommaaccent" unicode="&#x156;" horiz-adv-x="611" 
d="M55 43l83 17v528l-83 17v43h284q89 0 144 -40t55 -120q0 -59 -20.5 -97t-50 -59t-70.5 -39l141 -231l68 -19v-43h-104q-17 0 -32 7.5t-23 22.5l-137 243h-86v-213l83 -17v-43h-252v43zM287 328q69 0 113 39.5t44 102.5q0 73 -39.5 97t-99.5 24q-41 0 -81 -5v-258h63z
M302 -144q4 17 4 36q0 33 -26 57q10 11 22 16.5t23 5.5q24 0 36 -15.5t12 -36.5q0 -30 -12 -53.5t-26.5 -39t-14.5 -13.5h-31q9 26 13 43z" />
    <glyph glyph-name="rcommaaccent" unicode="&#x157;" horiz-adv-x="341" 
d="M30 41l69 14v361l-78 14v41l144 27l16 -55q5 5 24 19.5t44 28t45 13.5t32 -13.5t12 -35.5q0 -16 -6.5 -28t-14 -18.5t-9.5 -7.5l-46 12q-10 3 -18 4t-18 1q-14 0 -29 -3.5t-16 -3.5v-355l92 -13v-43h-243v41zM123 -144q4 17 4 36q0 33 -26 57q10 11 22 16.5t23 5.5
q24 0 36 -15.5t12 -36.5q0 -30 -12 -53.5t-26.5 -39t-14.5 -13.5h-31q9 26 13 43z" />
    <glyph glyph-name="Rcaron" unicode="&#x158;" horiz-adv-x="611" 
d="M281 685.5q-11 7.5 -35 28.5q-8 6 -22 18l-74 61l33 41l122 -65l126 63l25 -36l-79 -64l-29 -23q-16 -14 -28 -22.5t-19 -8.5q-9 0 -20 7.5zM55 43l83 17v528l-83 17v43h284q89 0 144 -40t55 -120q0 -59 -20.5 -97t-50 -59t-70.5 -39l141 -231l68 -19v-43h-104
q-17 0 -32 7.5t-23 22.5l-137 243h-86v-213l83 -17v-43h-252v43zM287 328q69 0 113 39.5t44 102.5q0 73 -39.5 97t-99.5 24q-41 0 -81 -5v-258h63z" />
    <glyph glyph-name="rcaron" unicode="&#x159;" horiz-adv-x="341" 
d="M132 576l-96 97l34 35l120 -87l116 88l25 -33l-97 -100q-30 -32 -51 -32q-19 0 -51 32zM30 41l69 14v361l-78 14v41l144 27l16 -55q5 5 24 19.5t44 28t45 13.5t32 -13.5t12 -35.5q0 -16 -6.5 -28t-14 -18.5t-9.5 -7.5l-46 12q-10 3 -18 4t-18 1q-14 0 -29 -3.5t-16 -3.5
v-355l92 -13v-43h-243v41z" />
    <glyph glyph-name="Sacute" unicode="&#x15a;" horiz-adv-x="514" 
d="M177 716l131 98q12 9 23.5 15.5t18.5 6.5q15 0 27 -18t15 -51l-193 -86zM137.5 6.5q-55.5 16.5 -79.5 37.5v143h54l15 -100q22 -16 55.5 -27.5t61.5 -11.5q75 0 107 25t32 89q0 35 -18 58.5t-45.5 38.5t-71.5 31q-65 23 -100.5 41t-62 53t-26.5 93q0 83 58 133t156 50
q46 0 98 -8.5t71 -16.5v-151h-49l-19 94q-3 2 -17 7.5t-37 10.5t-50 5q-71 0 -97.5 -25t-26.5 -71q0 -38 21.5 -62t49.5 -37t88 -36q51 -19 85 -39.5t56.5 -56.5t22.5 -90q0 -67 -32 -110.5t-82 -63.5t-105 -20q-57 0 -112.5 16.5z" />
    <glyph glyph-name="sacute" unicode="&#x15b;" horiz-adv-x="406" 
d="M220 686q15 16 23.5 23.5t18.5 7.5q14 0 28 -16.5t23 -45.5l-174 -120l-28 30zM79 152l14 -78q15 -11 39.5 -19.5t55.5 -8.5q58 0 80.5 23t22.5 64q0 26 -14.5 42t-36 24.5t-59.5 18.5q-48 12 -78.5 25t-52 42t-21.5 78q0 68 51 104.5t131 36.5q43 0 85 -9t58 -18
l-14 -125h-41l-14 80q0 1 -29 8t-53 7q-54 0 -75.5 -17.5t-21.5 -55.5q0 -23 14 -37.5t34.5 -22.5t57.5 -18q49 -13 80.5 -27t54 -43.5t22.5 -79.5q0 -83 -51.5 -119t-133.5 -36q-49 0 -95 13t-63 26l12 122h41z" />
    <glyph glyph-name="Scircumflex" unicode="&#x15c;" horiz-adv-x="514" 
d="M58 0zM137.5 6.5q-55.5 16.5 -79.5 37.5v143h54l15 -100q22 -16 55.5 -27.5t61.5 -11.5q75 0 107 25t32 89q0 35 -18 58.5t-45.5 38.5t-71.5 31q-65 23 -100.5 41t-62 53t-26.5 93q0 83 58 133t156 50q46 0 98 -8.5t71 -16.5v-151h-49l-19 94q-3 2 -17 7.5t-37 10.5
t-50 5q-71 0 -97.5 -25t-26.5 -71q0 -38 21.5 -62t49.5 -37t88 -36q51 -19 85 -39.5t56.5 -56.5t22.5 -90q0 -67 -32 -110.5t-82 -63.5t-105 -20q-57 0 -112.5 16.5zM183 780l29 23q16 14 28 22.5t19 8.5q9 0 20 -7.5t35 -28.5q8 -6 22 -18l74 -61l-33 -41l-122 65l-126 -63
l-25 36z" />
    <glyph glyph-name="scircumflex" unicode="&#x15d;" horiz-adv-x="413" 
d="M30 0zM83 152l14 -78q15 -11 39.5 -19.5t55.5 -8.5q58 0 80.5 23t22.5 64q0 26 -14.5 42t-36 24.5t-59.5 18.5q-48 12 -78.5 25t-52 42t-21.5 78q0 68 51 104.5t131 36.5q43 0 85 -9t58 -18l-14 -125h-41l-14 80q0 1 -29 8t-53 7q-54 0 -75.5 -17.5t-21.5 -55.5
q0 -23 14 -37.5t34.5 -22.5t57.5 -18q49 -13 80.5 -27t54 -43.5t22.5 -79.5q0 -83 -51.5 -119t-133.5 -36q-49 0 -95 13t-63 26l12 122h41zM165 683q27 27 46 27q17 0 38 -21l106 -110l-35 -35l-118 84l-115 -83l-28 32z" />
    <glyph glyph-name="Scedilla" unicode="&#x15e;" horiz-adv-x="514" 
d="M202.5 -183q-16.5 4 -35.5 12l16 37q28 -11 54 -11q59 0 59 30q0 15 -7 20.5t-24 8.5l-37 8l-19 19l21 50q-54 3 -102.5 18.5t-69.5 34.5v143h54l15 -100q22 -16 55.5 -27.5t61.5 -11.5q73 0 106 24.5t33 89.5q0 50 -33 76.5t-96 49.5q-71 26 -105.5 42.5t-62 52
t-27.5 94.5q0 83 58 133t156 50q46 0 98 -8.5t71 -16.5v-151h-49l-19 94q-18 10 -47.5 16.5t-56.5 6.5q-71 0 -97.5 -25t-26.5 -71q0 -36 19.5 -59.5t48 -37.5t80.5 -33q55 -21 90.5 -41t60 -56.5t24.5 -93.5q0 -90 -56.5 -138t-137.5 -55v-20l17 -4q36 -9 54 -21t18 -42
q0 -48 -35.5 -69.5t-87.5 -21.5q-22 0 -38.5 4z" />
    <glyph glyph-name="scedilla" unicode="&#x15f;" horiz-adv-x="406" 
d="M137.5 -183q-16.5 4 -35.5 12l16 37q28 -11 54 -11q59 0 59 30q0 15 -7 20.5t-24 8.5l-37 8l-19 19l21 51q-44 3 -84.5 15t-54.5 23l12 122h41l14 -78q15 -11 39.5 -19.5t55.5 -8.5q58 0 80.5 23t22.5 64q0 26 -14.5 42t-36 24.5t-59.5 18.5q-48 12 -78.5 25t-52 42
t-21.5 78q0 68 51 104.5t131 36.5q43 0 85 -9t58 -18l-14 -125h-41l-14 80q0 1 -29 8t-53 7q-54 0 -75.5 -17.5t-21.5 -55.5q0 -23 14 -37.5t34.5 -22.5t57.5 -18q49 -13 80.5 -27t54 -43.5t22.5 -79.5q0 -76 -43.5 -112.5t-115.5 -41.5v-21l17 -4q36 -9 54 -21t18 -42
q0 -48 -35.5 -69.5t-87.5 -21.5q-22 0 -38.5 4z" />
    <glyph glyph-name="Scaron" unicode="&#x160;" horiz-adv-x="514" 
d="M239 685.5q-11 7.5 -35 28.5q-8 6 -22 18l-74 61l33 41l122 -65l126 63l25 -36l-79 -64l-29 -23q-16 -14 -28 -22.5t-19 -8.5q-9 0 -20 7.5zM137.5 6.5q-55.5 16.5 -79.5 37.5v143h54l15 -100q22 -16 55.5 -27.5t61.5 -11.5q75 0 107 25t32 89q0 35 -18 58.5t-45.5 38.5
t-71.5 31q-65 23 -100.5 41t-62 53t-26.5 93q0 83 58 133t156 50q46 0 98 -8.5t71 -16.5v-151h-49l-19 94q-3 2 -17 7.5t-37 10.5t-50 5q-71 0 -97.5 -25t-26.5 -71q0 -38 21.5 -62t49.5 -37t88 -36q51 -19 85 -39.5t56.5 -56.5t22.5 -90q0 -67 -32 -110.5t-82 -63.5
t-105 -20q-57 0 -112.5 16.5z" />
    <glyph glyph-name="scaron" unicode="&#x161;" horiz-adv-x="406" 
d="M147 576l-96 97l34 35l120 -87l116 88l25 -33l-97 -100q-30 -32 -51 -32q-19 0 -51 32zM89 4q-46 13 -63 26l12 122h41l14 -78q15 -11 39.5 -19.5t55.5 -8.5q58 0 80.5 23t22.5 64q0 26 -14.5 42t-36 24.5t-59.5 18.5q-48 12 -78.5 25t-52 42t-21.5 78q0 68 51 104.5
t131 36.5q43 0 85 -9t58 -18l-14 -125h-41l-14 80q0 1 -29 8t-53 7q-54 0 -75.5 -17.5t-21.5 -55.5q0 -23 14 -37.5t34.5 -22.5t57.5 -18q49 -13 80.5 -27t54 -43.5t22.5 -79.5q0 -83 -51.5 -119t-133.5 -36q-49 0 -95 13z" />
    <glyph glyph-name="uni0162" unicode="&#x162;" horiz-adv-x="541" 
d="M220.5 -183q-16.5 4 -35.5 12l16 37q28 -11 54 -11q59 0 59 30q0 15 -7 20.5t-24 8.5l-37 8l-19 19l25 59h-107v44l82 15v531h-142l-21 -106h-49v164h511v-164h-49l-20 106h-143v-531l82 -15v-44h-103v-29l17 -4q36 -9 54 -21t18 -42q0 -48 -35.5 -69.5t-87.5 -21.5
q-22 0 -38.5 4z" />
    <glyph glyph-name="uni0163" unicode="&#x163;" horiz-adv-x="303" 
d="M117.5 -183q-16.5 4 -35.5 12l16 37q28 -11 54 -11q59 0 59 30q0 15 -7 20.5t-24 8.5l-37 8l-19 19l25 59q-37 9 -51.5 36t-14.5 71v335h-78v42l78 21l24 104h58v-114h141v-28l-14 -25h-127v-328q0 -30 11.5 -40t38.5 -10q24 0 48.5 5.5t31.5 7.5l10 -32q2 0 -18 -13.5
t-45.5 -24.5t-51.5 -11v-25l17 -4q36 -9 54 -21t18 -42q0 -48 -35.5 -69.5t-87.5 -21.5q-22 0 -38.5 4z" />
    <glyph glyph-name="Tcaron" unicode="&#x164;" horiz-adv-x="541" 
d="M270 769l126 63l25 -36l-79 -64l-29 -23q-16 -14 -28 -22.5t-19 -8.5q-9 0 -20 7.5t-35 28.5q-8 6 -22 18l-74 61l33 41zM145 44l82 15v531h-142l-21 -106h-49v164h511v-164h-49l-20 106h-143v-531l82 -15v-44h-251v44z" />
    <glyph glyph-name="tcaron" unicode="&#x165;" horiz-adv-x="308" 
d="M251.5 589.5q4.5 26.5 4.5 47.5q0 29 -25 59q16 23 45 23q25 0 37.5 -15.5t12.5 -38.5q0 -20 -12 -47.5t-25 -48.5t-17 -27h-32q7 21 11.5 47.5zM5 442v42l78 21l24 104h58v-114h141v-28l-14 -25h-127v-328q0 -30 11.5 -40t38.5 -10q24 0 48.5 5.5t31.5 7.5l10 -32
q2 0 -17.5 -13.5t-45.5 -24.5t-51 -11q-60 0 -84 28.5t-24 82.5v335h-78z" />
    <glyph glyph-name="Tbar" unicode="&#x166;" horiz-adv-x="541" 
d="M457 590h-143v-228h177v-57h-177v-246l82 -15v-44h-251v44l82 15v246h-177v57h177v228h-142l-21 -106h-49v164h511v-164h-49z" />
    <glyph glyph-name="tbar" unicode="&#x167;" horiz-adv-x="303" 
d="M173 442v-120h122v-48h-122v-160q0 -30 11.5 -40t38.5 -10q24 0 48.5 5.5t31.5 7.5l10 -32q2 0 -17.5 -13.5t-45.5 -24.5t-51 -11q-60 0 -84 28.5t-24 82.5v167h-81v48h81v120h-78v42l78 21l24 104h58v-114h141v-28l-14 -25h-127z" />
    <glyph glyph-name="Utilde" unicode="&#x168;" horiz-adv-x="732" 
d="M45 0zM45 604v44h251v-44l-82 -15v-311q0 -91 14.5 -138.5t52 -67t109.5 -19.5q90 0 125 54.5t35 170.5v309l-82 16v45h229v-45l-82 -16v-309q0 -101 -21.5 -163.5t-77 -95t-157.5 -32.5q-93 0 -143 32t-69.5 94t-19.5 165v311zM373 713l-79 25l-80 -36l-23 26l37 49
q21 29 61 29q23 0 70 -15l79 -25l80 36l23 -26l-37 -49q-21 -29 -61 -29q-23 0 -70 15z" />
    <glyph glyph-name="utilde" unicode="&#x169;" horiz-adv-x="557" 
d="M7 0zM128.5 27q-38.5 36 -38.5 102v295l-83 14v38l137 28l28 -14v-318q0 -65 24 -90.5t85 -25.5q21 0 48.5 8t48.5 20v340l-82 14v38l137 28l28 -14v-419l71 -16v-38l-139 -20l-15 50l-1 -1q-22 -25 -61 -40t-79 -15q-70 0 -108.5 36zM152 673.5q17 9.5 36 9.5
q18 0 42.5 -7t28.5 -8l84 -25l68 34l22 -20l-28 -47q-10 -17 -27 -26.5t-36 -9.5q-18 0 -42.5 7t-28.5 8l-84 25l-68 -34l-22 20l28 47q10 17 27 26.5z" />
    <glyph glyph-name="Umacron" unicode="&#x16a;" horiz-adv-x="732" 
d="M218 781h332l-10 -58h-332zM45 604v44h251v-44l-82 -15v-311q0 -91 14.5 -138.5t52 -67t109.5 -19.5q90 0 125 54.5t35 170.5v309l-82 16v45h229v-45l-82 -16v-309q0 -101 -21.5 -163.5t-77 -95t-157.5 -32.5q-93 0 -143 32t-69.5 94t-19.5 165v311z" />
    <glyph glyph-name="umacron" unicode="&#x16b;" horiz-adv-x="557" 
d="M101 606l10 57h332l-10 -57h-332zM128.5 27q-38.5 36 -38.5 102v295l-83 14v38l137 28l28 -14v-318q0 -65 24 -90.5t85 -25.5q21 0 48.5 8t48.5 20v340l-82 14v38l137 28l28 -14v-419l71 -16v-38l-139 -20l-15 50l-1 -1q-22 -25 -61 -40t-79 -15q-70 0 -108.5 36z" />
    <glyph glyph-name="Ubreve" unicode="&#x16c;" horiz-adv-x="732" 
d="M45 0zM45 604v44h251v-44l-82 -15v-311q0 -91 14.5 -138.5t52 -67t109.5 -19.5q90 0 125 54.5t35 170.5v309l-82 16v45h229v-45l-82 -16v-309q0 -101 -21.5 -163.5t-77 -95t-157.5 -32.5q-93 0 -143 32t-69.5 94t-19.5 165v311zM294.5 800q8.5 -17 27.5 -32t48 -15
q35 0 58 15t34.5 32.5t11.5 20.5l31 -8q0 -7 -13 -37t-44 -57t-81 -27q-58 0 -89 26t-41.5 53t-10.5 37l60 13q0 -4 8.5 -21z" />
    <glyph glyph-name="ubreve" unicode="&#x16d;" horiz-adv-x="557" 
d="M7 0zM128.5 27q-38.5 36 -38.5 102v295l-83 14v38l137 28l28 -14v-318q0 -65 24 -90.5t85 -25.5q21 0 48.5 8t48.5 20v340l-82 14v38l137 28l28 -14v-419l71 -16v-38l-139 -20l-15 50l-1 -1q-22 -25 -61 -40t-79 -15q-70 0 -108.5 36zM173 678q8 -21 32 -40.5t69 -19.5
q44 0 68 20t32 41.5t8 28.5l34 -8q0 -14 -9.5 -48t-42.5 -66.5t-97 -32.5t-98 31t-44.5 64t-10.5 45l51 13q0 -7 8 -28z" />
    <glyph glyph-name="Uring" unicode="&#x16e;" horiz-adv-x="732" 
d="M320 800q26 23 67 23q40 0 64.5 -20t24.5 -63q0 -45 -27 -68t-68 -23t-64 20t-23 64t26 67zM419 701.5q9 9.5 9 33.5t-8 34.5t-34 10.5q-24 0 -34 -9.5t-10 -33.5t8.5 -34.5t35.5 -10.5q24 0 33 9.5zM45 604v44h251v-44l-82 -15v-311q0 -91 14.5 -138.5t52 -67
t109.5 -19.5q90 0 125 54.5t35 170.5v309l-82 16v45h229v-45l-82 -16v-309q0 -101 -21.5 -163.5t-77 -95t-157.5 -32.5q-93 0 -143 32t-69.5 94t-19.5 165v311z" />
    <glyph glyph-name="uring" unicode="&#x16f;" horiz-adv-x="557" 
d="M189 558.5q-23 23.5 -23 63.5t25.5 67.5t71.5 27.5q43 0 66.5 -25t23.5 -64q0 -40 -26.5 -66.5t-70.5 -26.5t-67 23.5zM290.5 589q8.5 11 8.5 37q0 27 -9.5 36.5t-31.5 9.5q-23 0 -31 -10.5t-8 -35.5q0 -28 9 -38t32 -10q22 0 30.5 11zM128.5 27q-38.5 36 -38.5 102v295
l-83 14v38l137 28l28 -14v-318q0 -65 24 -90.5t85 -25.5q21 0 48.5 8t48.5 20v340l-82 14v38l137 28l28 -14v-419l71 -16v-38l-139 -20l-15 50l-1 -1q-22 -25 -61 -40t-79 -15q-70 0 -108.5 36z" />
    <glyph glyph-name="Uhungarumlaut" unicode="&#x170;" horiz-adv-x="732" 
d="M222 703l79 103q14 19 24.5 25.5t22.5 6.5q14 0 26.5 -15.5t19.5 -44.5l-144 -102zM406 703l79 103q14 19 24.5 25.5t22.5 6.5q14 0 26.5 -15.5t19.5 -44.5l-144 -102zM216 19q-50 32 -69.5 94t-19.5 165v311l-82 15v44h251v-44l-82 -15v-311q0 -91 14.5 -138.5t52 -67
t109.5 -19.5q90 0 125 54.5t35 170.5v309l-82 16v45h229v-45l-82 -16v-309q0 -101 -21.5 -163.5t-77 -95t-157.5 -32.5q-93 0 -143 32z" />
    <glyph glyph-name="uhungarumlaut" unicode="&#x171;" horiz-adv-x="557" 
d="M119 558l58 111q3 6 10.5 20.5t16.5 22.5t21 8q10 0 24 -11.5t28 -35.5l-128 -137zM280 558l58 111q3 6 10.5 20.5t16.5 22.5t21 8q10 0 24 -11.5t28 -35.5l-128 -137zM128.5 27q-38.5 36 -38.5 102v295l-83 14v38l137 28l28 -14v-318q0 -65 24 -90.5t85 -25.5
q21 0 48.5 8t48.5 20v340l-82 14v38l137 28l28 -14v-419l71 -16v-38l-139 -20l-15 50l-1 -1q-22 -25 -61 -40t-79 -15q-70 0 -108.5 36z" />
    <glyph glyph-name="Uogonek" unicode="&#x172;" horiz-adv-x="732" 
d="M388 -168q-23 19 -23 55q0 60 62 104q-28 -4 -68 -4q-93 0 -143 32t-69.5 94t-19.5 165v311l-82 15v44h251v-44l-82 -15v-311q0 -91 14.5 -138.5t52 -67t109.5 -19.5q90 0 125 54.5t35 170.5v309l-82 16v45h229v-45l-82 -16v-309q0 -107 -24.5 -171.5t-86.5 -93.5
q-73 -52 -73 -96t43 -44q21 0 57 21l18 -30q-17 -20 -44.5 -35.5t-56.5 -15.5q-37 0 -60 19z" />
    <glyph glyph-name="uogonek" unicode="&#x173;" horiz-adv-x="557" 
d="M344.5 -167q-22.5 20 -22.5 54q0 31 18 59.5t53 51.5l-15 49l-3 -4q-22 -23 -60.5 -37.5t-77.5 -14.5q-70 0 -108.5 36t-38.5 102v295l-83 14v38l137 28l28 -14v-318q0 -65 24 -90.5t85 -25.5q21 0 48.5 8t48.5 20v340l-82 14v38l137 28l28 -14v-419l71 -16v-38l-82 -12
q-28 -20 -45 -44.5t-17 -43.5q0 -44 43 -44q23 0 57 21l18 -30q-19 -22 -47.5 -36.5t-53.5 -14.5q-38 0 -60.5 20z" />
    <glyph glyph-name="Wcircumflex" unicode="&#x174;" horiz-adv-x="945" 
d="M0 0zM256 -5l-195 596l-61 16v41h240v-41l-75 -16v-18l126 -421l10 -32h3l11 33l127 362l-28 76l-74 16v41h253v-41l-75 -16v-18l152 -420l11 -31h5l9 31l119 420v18l-80 16v41h211v-41l-59 -16l-184 -596h-59l-160 410l-6 16h-7l-7 -19l-148 -407h-59zM399 780l29 23
q16 14 28 22.5t19 8.5q9 0 20 -7.5t35 -28.5q8 -6 22 -18l74 -61l-33 -41l-122 65l-126 -63l-25 36z" />
    <glyph glyph-name="wcircumflex" unicode="&#x175;" horiz-adv-x="726" 
d="M0 0zM204 -5l-163 441l-58 15v43h218v-45l-66 -11v-12l83 -251l10 -46l11 56l98 309h87l95 -319l9 -46l11 56l76 238v15l-63 11v45h184v-42l-58 -19l-144 -438h-41l-126 398l-125 -398h-38zM339 683q27 27 46 27q17 0 38 -21l106 -110l-35 -35l-118 84l-115 -83l-28 32z
" />
    <glyph glyph-name="Ycircumflex" unicode="&#x176;" horiz-adv-x="584" 
d="M0 0zM179 44l82 15v173l-200 359l-62 16v41h241v-41l-75 -16v-18l145 -274h14l142 274v18l-79 16v41h211v-41l-60 -16l-190 -347v-185l82 -15v-44h-251v44zM240 780l29 23q16 14 28 22.5t19 8.5q9 0 20 -7.5t35 -28.5q8 -6 22 -18l74 -61l-33 -41l-122 65l-126 -63
l-25 36z" />
    <glyph glyph-name="ycircumflex" unicode="&#x177;" horiz-adv-x="455" 
d="M0 0zM475 494v-42l-54 -16l-212 -545q-22 -57 -103 -57q-17 0 -38.5 3t-36.5 7v38l114 29l54 118l-163 406l-58 16v43h219v-45l-66 -9v-15l103 -270l8 -34l12 44l100 260v12l-64 11v46h185zM196 683q27 27 46 27q17 0 38 -21l106 -110l-35 -35l-118 84l-115 -83l-28 32z
" />
    <glyph glyph-name="Ydieresis" unicode="&#x178;" horiz-adv-x="584" 
d="M165 709.5q-14 15.5 -14 40.5t15.5 42.5t39.5 17.5q23 0 37 -14.5t14 -39.5q0 -26 -15 -44t-40 -18q-23 0 -37 15.5zM376 709.5q-14 15.5 -14 40.5t15.5 42.5t39.5 17.5q23 0 37 -14.5t14 -39.5q0 -26 -15 -44t-40 -18q-23 0 -37 15.5zM175 44l82 15v173l-200 359l-62 16
v41h241v-41l-75 -16v-18l145 -274h14l142 274v18l-79 16v41h211v-41l-60 -16l-190 -347v-185l82 -15v-44h-251v44z" />
    <glyph glyph-name="Zacute" unicode="&#x179;" horiz-adv-x="559" 
d="M194 716l131 98q12 9 23.5 15.5t18.5 6.5q15 0 27 -18t15 -51l-193 -86zM35 0v59l360 511v19h-272l-29 -104h-49v163h470v-66l-370 -511v-12h301l29 104h49v-163h-489z" />
    <glyph glyph-name="zacute" unicode="&#x17a;" horiz-adv-x="424" 
d="M131 565l109 121q15 16 23.5 23.5t18.5 7.5q14 0 28 -16.5t23 -45.5l-174 -120zM19 0v50l274 378v13h-195l-14 -83h-41l-14 136h360v-74l-256 -352v-16h209l14 85h41l14 -137h-392z" />
    <glyph glyph-name="Zdotaccent" unicode="&#x17b;" horiz-adv-x="559" 
d="M231.5 704q-15.5 17 -15.5 45q0 27 17.5 46.5t43.5 19.5t41 -16t15 -44t-16.5 -48t-44.5 -20q-25 0 -40.5 17zM35 59l360 511v19h-272l-29 -104h-49v163h470v-66l-370 -511v-12h301l29 104h49v-163h-489v59z" />
    <glyph glyph-name="zdotaccent" unicode="&#x17c;" horiz-adv-x="424" 
d="M168.5 585q-15.5 17 -15.5 45q0 27 17.5 46.5t43.5 19.5t41 -16t15 -44t-16.5 -48t-44.5 -20q-25 0 -40.5 17zM19 0v50l274 378v13h-195l-14 -83h-41l-14 136h360v-74l-256 -352v-16h209l14 85h41l14 -137h-392z" />
    <glyph glyph-name="Zcaron" unicode="&#x17d;" horiz-adv-x="559" 
d="M282 769l126 63l25 -36l-79 -64l-29 -23q-16 -14 -28 -22.5t-19 -8.5q-9 0 -20 7.5t-35 28.5q-8 6 -22 18l-74 61l33 41zM35 59l360 511v19h-272l-29 -104h-49v163h470v-66l-370 -511v-12h301l29 104h49v-163h-489v59z" />
    <glyph glyph-name="zcaron" unicode="&#x17e;" horiz-adv-x="424" 
d="M167 576l-96 97l34 35l120 -87l116 88l25 -33l-97 -100q-30 -32 -51 -32q-19 0 -51 32zM19 0v50l274 378v13h-195l-14 -83h-41l-14 136h360v-74l-256 -352v-16h209l14 85h41l14 -137h-392z" />
    <glyph glyph-name="longs" unicode="&#x17f;" horiz-adv-x="300" 
d="M15 41l69 14v382h-61v47l60 12q4 57 31.5 104t71.5 74t95 27q26 0 41 -12.5t15 -35.5q0 -14 -8.5 -28.5t-19.5 -19.5l-30 8q-9 2 -32 8t-32 7.5t-17 1.5q-16 0 -32 -9v-564l104 -16v-41h-255v41z" />
    <glyph glyph-name="uni018F" unicode="&#x18f;" horiz-adv-x="665" 
d="M118.5 73.5q-73.5 86.5 -73.5 236.5q0 20 2 50h471q-6 112 -60 178t-145 66q-44 0 -75 -8t-47.5 -17.5t-16.5 -11.5l-20 -102h-49v152q46 20 93 31.5t127 11.5q295 0 295 -327q0 -98 -31 -176t-96.5 -124t-164.5 -46q-136 0 -209.5 86.5zM475 107.5q42 63.5 44 197.5
h-373q2 -135 51.5 -198t141.5 -63q94 0 136 63.5z" />
    <glyph glyph-name="florin" unicode="&#x192;" horiz-adv-x="428" 
d="M84 403l5 40l82 17q6 90 51 145t128 55q40 0 58.5 -10t18.5 -38q0 -17 -8.5 -26.5t-17.5 -13t-12 -3.5q-20 8 -36.5 12.5t-35.5 4.5q-33 0 -46.5 -15.5t-18.5 -47.5l-6 -63h112l-8 -57h-109l-13 -329q-6 -90 -51 -145t-128 -55q-40 0 -58.5 10t-18.5 38q0 17 8.5 26.5
t17.5 13t12 3.5q20 -8 36.5 -12.5t35.5 -4.5q32 0 45 21.5t16 56.5l19 377h-78z" />
    <glyph glyph-name="uni019D" unicode="&#x19d;" horiz-adv-x="727" 
d="M40 -160.5q-23 4.5 -23 5.5v38l108 26v681l-65 14v44h153l313 -496l15 -23h9v461l-69 16v42h199v-42l-69 -16v-590h-92l-316 501l-9 15h-9v-599q0 -39 -24.5 -60.5t-71.5 -21.5q-26 0 -49 4.5z" />
    <glyph glyph-name="Ohorn" unicode="&#x1a0;" horiz-adv-x="696" 
d="M702.5 586q-26.5 -38 -85.5 -79q34 -74 34 -169q0 -101 -32.5 -180t-101.5 -125t-173 -46q-145 0 -222 86.5t-77 239.5q0 97 38 176t110.5 125t172.5 46q80 0 140.5 -33t96.5 -93q60 49 60 94q0 12 -5 19t-16 15v15l55 39q16 -12 24 -23.5t8 -38.5q0 -30 -26.5 -68z
M505.5 114.5q44.5 70.5 44.5 204.5q0 112 -24.5 173.5t-67.5 84.5t-106 23q-67 0 -110 -18.5t-69.5 -79.5t-26.5 -183q0 -147 54 -211t164 -64q97 0 141.5 70.5z" />
    <glyph glyph-name="ohorn" unicode="&#x1a1;" horiz-adv-x="497" 
d="M523.5 439q-21.5 -34 -69.5 -71q15 -46 15 -105q0 -77 -27 -139t-79.5 -97.5t-126.5 -35.5q-102 0 -156.5 67t-54.5 182q0 71 28 131.5t80 96.5t121 36q67 0 114 -27t73 -77q38 40 38 74q0 12 -5 19t-16 15v15l55 39q16 -12 24 -23.5t8 -38.5t-21.5 -61zM351 98
q28 49 28 147q0 105 -29.5 153t-101.5 48q-54 0 -83 -23t-39.5 -65.5t-10.5 -112.5q0 -96 31.5 -146t108.5 -50q68 0 96 49z" />
    <glyph glyph-name="Uhorn" unicode="&#x1af;" horiz-adv-x="732" 
d="M216 19q-50 32 -69.5 94t-19.5 165v311l-82 15v44h251v-44l-82 -15v-311q0 -91 14.5 -138.5t52 -67t109.5 -19.5q90 0 125 54.5t35 170.5v309l-82 16v45h193q33 0 48 8.5t15 31.5q0 12 -5 19t-16 15v15l55 39q16 -12 24 -23.5t8 -38.5q0 -18 -15.5 -42t-54.5 -48
t-105 -40v-306q0 -101 -21.5 -163.5t-77 -95t-157.5 -32.5q-93 0 -143 32z" />
    <glyph glyph-name="uhorn" unicode="&#x1b0;" horiz-adv-x="557" 
d="M559.5 426.5q-30.5 -41.5 -98.5 -85.5v-270l71 -16v-38l-139 -20l-15 50l-1 -1q-22 -25 -61 -40t-79 -15q-70 0 -108.5 36t-38.5 102v295l-83 14v38l137 28l28 -14v-318q0 -65 24 -90.5t85 -25.5q21 0 48.5 8t48.5 20v340l-82 14v38l137 28l28 -14v-113q63 52 63 97
q0 12 -5 19t-16 15v15l55 39q16 -12 24 -23.5t8 -38.5q0 -32 -30.5 -73.5z" />
    <glyph glyph-name="uni01C4" unicode="&#x1c4;" horiz-adv-x="1262" 
d="M55 0zM55 43l83 17v527l-83 18v43h296q148 0 227.5 -80t79.5 -228q0 -168 -88 -254t-260 -86h-255v43zM456 80.5q52 29.5 76.5 92t24.5 164.5q0 131 -57.5 192t-179.5 61q-60 0 -96 -7v-521q14 -5 41.5 -8t53.5 -3q85 0 137 29.5zM738 59l360 511v19h-272l-29 -104h-49
v163h470v-66l-370 -511v-12h301l29 104h49v-163h-489v59zM980 769l126 63l25 -36l-79 -64l-29 -23q-16 -14 -28 -22.5t-19 -8.5q-9 0 -20 7.5t-35 28.5q-8 6 -22 18l-74 61l33 41z" />
    <glyph glyph-name="uni01C5" unicode="&#x1c5;" horiz-adv-x="1137" 
d="M55 0zM55 43l83 17v527l-83 18v43h296q148 0 227.5 -80t79.5 -228q0 -168 -88 -254t-260 -86h-255v43zM456 80.5q52 29.5 76.5 92t24.5 164.5q0 131 -57.5 192t-179.5 61q-60 0 -96 -7v-521q14 -5 41.5 -8t53.5 -3q85 0 137 29.5zM722 0v50l274 378v13h-195l-14 -83h-41
l-14 136h360v-74l-256 -352v-16h209l14 85h41l14 -137h-392zM864 576l-96 97l34 35l120 -87l116 88l25 -33l-97 -100q-30 -32 -51 -32q-19 0 -51 32z" />
    <glyph glyph-name="uni01C6" unicode="&#x1c6;" horiz-adv-x="972" 
d="M40 0zM92.5 47.5q-52.5 56.5 -52.5 170.5q0 100 32.5 164t81.5 93t99 29q65 0 110 -39v155l-82 23v39l136 17l28 -14v-615l71 -15v-39l-136 -20l-13 52l-4 1q-20 -21 -56 -39.5t-83 -18.5q-79 0 -131.5 56.5zM314 69q29 8 49 18v338q-16 6 -41.5 11t-52.5 5
q-67 0 -103.5 -42.5t-36.5 -147.5q0 -99 28 -144.5t98 -45.5q30 0 59 8zM557 0v50l274 378v13h-195l-14 -83h-41l-14 136h360v-74l-256 -352v-16h209l14 85h41l14 -137h-392zM700 576l-96 97l34 35l120 -87l116 88l25 -33l-97 -100q-30 -32 -51 -32q-19 0 -51 32z" />
    <glyph glyph-name="uni01C7" unicode="&#x1c7;" horiz-adv-x="923" 
d="M55 43l83 17v528l-83 17v43h260v-47l-91 -15v-523l98 -8h93l22 107h49v-162h-431v43zM581 157l29 -110q4 -2 18.5 -6t31.5 -4q58 0 58 62v488l-95 17v44h255v-44l-73 -15v-478q0 -66 -37.5 -95.5t-109.5 -29.5q-33 0 -60.5 6t-44 12.5t-20.5 8.5v144h48z" />
    <glyph glyph-name="uni01C8" unicode="&#x1c8;" horiz-adv-x="782" 
d="M55 0zM55 43l83 17v528l-83 17v43h260v-47l-91 -15v-523l98 -8h113l22 107h49v-162h-451v43zM604.5 585q-15.5 17 -15.5 45q0 27 17.5 46.5t43.5 19.5t41 -16t15 -44t-16.5 -48t-44.5 -20q-25 0 -40.5 17zM536.5 -160.5q-26.5 4.5 -26.5 5.5v38l108 26v502l-80 14v41
l139 28l23 -9v-568q0 -39 -27.5 -60.5t-79.5 -21.5q-30 0 -56.5 4.5z" />
    <glyph glyph-name="uni01C9" unicode="&#x1c9;" horiz-adv-x="542" 
d="M19 0zM19 41l80 14v567l-80 14v41l139 22l23 -9v-635l78 -14v-41h-240v41zM364.5 585q-15.5 17 -15.5 45q0 27 17.5 46.5t43.5 19.5t41 -16t15 -44t-16.5 -48t-44.5 -20q-25 0 -40.5 17zM296.5 -160.5q-26.5 4.5 -26.5 5.5v38l108 26v502l-80 14v41l139 28l23 -9v-568
q0 -39 -27.5 -60.5t-79.5 -21.5q-30 0 -56.5 4.5z" />
    <glyph glyph-name="uni01CA" unicode="&#x1ca;" horiz-adv-x="1127" 
d="M55 0zM55 0v42l70 16v532l-65 14v44h153l315 -499l13 -20h9v461l-69 16v42h199v-42l-69 -16v-590h-92l-325 516h-9v-458l70 -16v-42h-200zM785 157l29 -110q4 -2 18 -6t32 -4q58 0 58 62v488l-95 17v44h255v-44l-73 -15v-478q0 -66 -37.5 -95.5t-109.5 -29.5
q-33 0 -60.5 6t-44 12.5t-20.5 8.5v144h48z" />
    <glyph glyph-name="uni01CB" unicode="&#x1cb;" horiz-adv-x="986" 
d="M55 0zM55 0v42l70 16v532l-65 14v44h153l315 -499l13 -20h9v461l-69 16v42h199v-42l-69 -16v-590h-92l-325 516h-9v-458l70 -16v-42h-200zM808.5 585q-15.5 17 -15.5 45q0 27 17.5 46.5t43.5 19.5t41 -16t15 -44t-16.5 -48t-44.5 -20q-25 0 -40.5 17zM740.5 -160.5
q-26.5 4.5 -26.5 5.5v38l108 26v502l-80 14v41l139 28l23 -9v-568q0 -39 -27.5 -60.5t-79.5 -21.5q-30 0 -56.5 4.5z" />
    <glyph glyph-name="uni01CC" unicode="&#x1cc;" horiz-adv-x="835" 
d="M26 0zM26 41l80 14v356l-80 14v41l149 28l8 -33l2 -6q91 49 160 49q62 0 96.5 -36t34.5 -101v-312l80 -14v-41h-240v41l78 14v298q0 43 -25 62t-80 19q-26 0 -55 -3.5t-46 -8.5v-367l78 -14v-41h-240v41zM657.5 585q-15.5 17 -15.5 45q0 27 17.5 46.5t43.5 19.5t41 -16
t15 -44t-16.5 -48t-44.5 -20q-25 0 -40.5 17zM589.5 -160.5q-26.5 4.5 -26.5 5.5v38l108 26v502l-80 14v41l139 28l23 -9v-568q0 -39 -27.5 -60.5t-79.5 -21.5q-30 0 -56.5 4.5z" />
    <glyph glyph-name="uni01CD" unicode="&#x1cd;" horiz-adv-x="608" 
d="M0 0zM-9 41l63 16l221 596h48l230 -596l64 -16v-41h-239v41l71 16v18l-43 111h-241l-39 -111v-18l76 -16v-41h-211v41zM385 243l-97 257l-4 11l-2 5l-6 -18l-91 -255h200zM306 769l126 63l25 -36l-79 -64l-29 -23q-16 -14 -28 -22.5t-19 -8.5q-9 0 -20 7.5t-35 28.5
q-8 6 -22 18l-74 61l33 41z" />
    <glyph glyph-name="uni01CE" unicode="&#x1ce;" horiz-adv-x="480" 
d="M38 0zM73 28q-35 35 -35 89q0 126 179 151l90 13v75q0 84 -98 84q-22 0 -39.5 -3.5l-22.5 -4.5l-15 -92q0 -1 -9 -4t-23 -3q-18 0 -32 13t-14 33q0 38 37 66.5t86.5 43.5t80.5 15q63 0 97 -32.5t34 -82.5v-321l71 -14v-38q-4 -2 -18 -6.5t-36 -9t-46 -4.5q-44 0 -48 46
h-4q-13 -14 -49.5 -31.5t-78.5 -17.5q-72 0 -107 35zM260 60q20 4 32 8.5t15 5.5v159q-95 -7 -138 -30.5t-43 -70.5q0 -32 24.5 -54t67.5 -22q22 0 42 4zM188 576l-96 97l34 35l120 -87l116 88l25 -33l-97 -100q-30 -32 -51 -32q-19 0 -51 32z" />
    <glyph glyph-name="uni01CF" unicode="&#x1cf;" horiz-adv-x="369" 
d="M32 0zM59 44l82 15v530l-82 15v44h251v-44l-82 -15v-530l82 -15v-44h-251v44zM187 769l126 63l25 -36l-79 -64l-29 -23q-16 -14 -28 -22.5t-19 -8.5q-9 0 -20 7.5t-35 28.5q-8 6 -22 18l-74 61l33 41z" />
    <glyph glyph-name="uni01D0" unicode="&#x1d0;" horiz-adv-x="293" 
d="M1 0zM28 41l80 14v356l-80 14v41l139 28l23 -9v-430l78 -14v-41h-240v41zM97 576l-96 97l34 35l120 -87l116 88l25 -33l-97 -100q-30 -32 -51 -32q-19 0 -51 32z" />
    <glyph glyph-name="uni01D1" unicode="&#x1d1;" horiz-adv-x="696" 
d="M45 0zM122 73.5q-77 86.5 -77 239.5q0 97 38 176t110.5 125t172.5 46q89 0 153 -40t98 -112.5t34 -169.5q0 -101 -32.5 -180t-101.5 -125t-173 -46q-145 0 -222 86.5zM505.5 114.5q44.5 70.5 44.5 204.5q0 112 -24.5 173.5t-67.5 84.5t-106 23q-67 0 -110 -18.5
t-69.5 -79.5t-26.5 -183q0 -147 54 -211t164 -64q97 0 141.5 70.5zM350 769l126 63l25 -36l-79 -64l-29 -23q-16 -14 -28 -22.5t-19 -8.5q-9 0 -20 7.5t-35 28.5q-8 6 -22 18l-74 61l33 41z" />
    <glyph glyph-name="uni01D2" unicode="&#x1d2;" horiz-adv-x="497" 
d="M25 0zM79.5 58q-54.5 67 -54.5 182q0 71 28 131.5t80 96.5t121 36q105 0 160 -64.5t55 -176.5q0 -77 -27 -139t-79.5 -97.5t-126.5 -35.5q-102 0 -156.5 67zM351 98q28 49 28 147q0 105 -29.5 153t-101.5 48q-54 0 -83 -23t-39.5 -65.5t-10.5 -112.5q0 -96 31.5 -146
t108.5 -50q68 0 96 49zM197 576l-96 97l34 35l120 -87l116 88l25 -33l-97 -100q-30 -32 -51 -32q-19 0 -51 32z" />
    <glyph glyph-name="uni01D3" unicode="&#x1d3;" horiz-adv-x="732" 
d="M45 0zM45 604v44h251v-44l-82 -15v-311q0 -91 14.5 -138.5t52 -67t109.5 -19.5q90 0 125 54.5t35 170.5v309l-82 16v45h229v-45l-82 -16v-309q0 -101 -21.5 -163.5t-77 -95t-157.5 -32.5q-93 0 -143 32t-69.5 94t-19.5 165v311zM368 769l126 63l25 -36l-79 -64l-29 -23
q-16 -14 -28 -22.5t-19 -8.5q-9 0 -20 7.5t-35 28.5q-8 6 -22 18l-74 61l33 41z" />
    <glyph glyph-name="uni01D4" unicode="&#x1d4;" horiz-adv-x="557" 
d="M7 0zM128.5 27q-38.5 36 -38.5 102v295l-83 14v38l137 28l28 -14v-318q0 -65 24 -90.5t85 -25.5q21 0 48.5 8t48.5 20v340l-82 14v38l137 28l28 -14v-419l71 -16v-38l-139 -20l-15 50l-1 -1q-22 -25 -61 -40t-79 -15q-70 0 -108.5 36zM213 576l-96 97l34 35l120 -87
l116 88l25 -33l-97 -100q-30 -32 -51 -32q-19 0 -51 32z" />
    <glyph glyph-name="uni01D5" unicode="&#x1d5;" horiz-adv-x="732" 
d="M45 0zM45 604v44h251v-44l-82 -15v-311q0 -91 14.5 -138.5t52 -67t109.5 -19.5q90 0 125 54.5t35 170.5v309l-82 16v45h229v-45l-82 -16v-309q0 -101 -21.5 -163.5t-77 -95t-157.5 -32.5q-93 0 -143 32t-69.5 94t-19.5 165v311zM221 701.5q-14 15.5 -14 40.5t15.5 42.5
t39.5 17.5q23 0 37 -14.5t14 -39.5q0 -26 -15 -44t-40 -18q-23 0 -37 15.5zM432 701.5q-14 15.5 -14 40.5t15.5 42.5t39.5 17.5q23 0 37 -14.5t14 -39.5q0 -26 -15 -44t-40 -18q-23 0 -37 15.5zM207 935h332l-10 -58h-332z" />
    <glyph glyph-name="uni01D6" unicode="&#x1d6;" horiz-adv-x="557" 
d="M7 0zM128.5 27q-38.5 36 -38.5 102v295l-83 14v38l137 28l28 -14v-318q0 -65 24 -90.5t85 -25.5q21 0 48.5 8t48.5 20v340l-82 14v38l137 28l28 -14v-419l71 -16v-38l-139 -20l-15 50l-1 -1q-22 -25 -61 -40t-79 -15q-70 0 -108.5 36zM120 590.5q-14 15.5 -14 40.5
t15.5 42.5t39.5 17.5q23 0 37 -14.5t14 -39.5q0 -26 -15 -44t-40 -18q-23 0 -37 15.5zM331 590.5q-14 15.5 -14 40.5t15.5 42.5t39.5 17.5q23 0 37 -14.5t14 -39.5q0 -26 -15 -44t-40 -18q-23 0 -37 15.5zM106 860h332l-10 -57h-332z" />
    <glyph glyph-name="uni01D7" unicode="&#x1d7;" horiz-adv-x="732" 
d="M45 0zM45 604v44h251v-44l-82 -15v-311q0 -91 14.5 -138.5t52 -67t109.5 -19.5q90 0 125 54.5t35 170.5v309l-82 16v45h229v-45l-82 -16v-309q0 -101 -21.5 -163.5t-77 -95t-157.5 -32.5q-93 0 -143 32t-69.5 94t-19.5 165v311zM221 701.5q-14 15.5 -14 40.5t15.5 42.5
t39.5 17.5q23 0 37 -14.5t14 -39.5q0 -26 -15 -44t-40 -18q-23 0 -37 15.5zM432 701.5q-14 15.5 -14 40.5t15.5 42.5t39.5 17.5q23 0 37 -14.5t14 -39.5q0 -26 -15 -44t-40 -18q-23 0 -37 15.5zM310 870l131 98q12 9 23.5 15.5t18.5 6.5q15 0 27 -18t15 -51l-193 -86z" />
    <glyph glyph-name="uni01D8" unicode="&#x1d8;" horiz-adv-x="557" 
d="M7 0zM128.5 27q-38.5 36 -38.5 102v295l-83 14v38l137 28l28 -14v-318q0 -65 24 -90.5t85 -25.5q21 0 48.5 8t48.5 20v340l-82 14v38l137 28l28 -14v-419l71 -16v-38l-139 -20l-15 50l-1 -1q-22 -25 -61 -40t-79 -15q-70 0 -108.5 36zM120 590.5q-14 15.5 -14 40.5
t15.5 42.5t39.5 17.5q23 0 37 -14.5t14 -39.5q0 -26 -15 -44t-40 -18q-23 0 -37 15.5zM331 590.5q-14 15.5 -14 40.5t15.5 42.5t39.5 17.5q23 0 37 -14.5t14 -39.5q0 -26 -15 -44t-40 -18q-23 0 -37 15.5zM325 883q15 16 23.5 23.5t18.5 7.5q14 0 28 -16.5t23 -45.5
l-174 -120l-28 30z" />
    <glyph glyph-name="uni01D9" unicode="&#x1d9;" horiz-adv-x="732" 
d="M45 0zM45 604v44h251v-44l-82 -15v-311q0 -91 14.5 -138.5t52 -67t109.5 -19.5q90 0 125 54.5t35 170.5v309l-82 16v45h229v-45l-82 -16v-309q0 -101 -21.5 -163.5t-77 -95t-157.5 -32.5q-93 0 -143 32t-69.5 94t-19.5 165v311zM221 701.5q-14 15.5 -14 40.5t15.5 42.5
t39.5 17.5q23 0 37 -14.5t14 -39.5q0 -26 -15 -44t-40 -18q-23 0 -37 15.5zM432 701.5q-14 15.5 -14 40.5t15.5 42.5t39.5 17.5q23 0 37 -14.5t14 -39.5q0 -26 -15 -44t-40 -18q-23 0 -37 15.5zM370 923l126 63l25 -36l-79 -64l-29 -23q-16 -14 -28 -22.5t-19 -8.5
q-9 0 -20 7.5t-35 28.5q-8 6 -22 18l-74 61l33 41z" />
    <glyph glyph-name="uni01DA" unicode="&#x1da;" horiz-adv-x="557" 
d="M7 0zM128.5 27q-38.5 36 -38.5 102v295l-83 14v38l137 28l28 -14v-318q0 -65 24 -90.5t85 -25.5q21 0 48.5 8t48.5 20v340l-82 14v38l137 28l28 -14v-419l71 -16v-38l-139 -20l-15 50l-1 -1q-22 -25 -61 -40t-79 -15q-70 0 -108.5 36zM120 590.5q-14 15.5 -14 40.5
t15.5 42.5t39.5 17.5q23 0 37 -14.5t14 -39.5q0 -26 -15 -44t-40 -18q-23 0 -37 15.5zM331 590.5q-14 15.5 -14 40.5t15.5 42.5t39.5 17.5q23 0 37 -14.5t14 -39.5q0 -26 -15 -44t-40 -18q-23 0 -37 15.5zM215 773l-96 97l34 35l120 -87l116 88l25 -33l-97 -100
q-30 -32 -51 -32q-19 0 -51 32z" />
    <glyph glyph-name="uni01DB" unicode="&#x1db;" horiz-adv-x="732" 
d="M45 0zM45 604v44h251v-44l-82 -15v-311q0 -91 14.5 -138.5t52 -67t109.5 -19.5q90 0 125 54.5t35 170.5v309l-82 16v45h229v-45l-82 -16v-309q0 -101 -21.5 -163.5t-77 -95t-157.5 -32.5q-93 0 -143 32t-69.5 94t-19.5 165v311zM221 701.5q-14 15.5 -14 40.5t15.5 42.5
t39.5 17.5q23 0 37 -14.5t14 -39.5q0 -26 -15 -44t-40 -18q-23 0 -37 15.5zM432 701.5q-14 15.5 -14 40.5t15.5 42.5t39.5 17.5q23 0 37 -14.5t14 -39.5q0 -26 -15 -44t-40 -18q-23 0 -37 15.5zM225 921q3 33 15 51t27 18q7 0 18.5 -6.5t23.5 -15.5l131 -98l-22 -35z" />
    <glyph glyph-name="uni01DC" unicode="&#x1dc;" horiz-adv-x="557" 
d="M7 0zM128.5 27q-38.5 36 -38.5 102v295l-83 14v38l137 28l28 -14v-318q0 -65 24 -90.5t85 -25.5q21 0 48.5 8t48.5 20v340l-82 14v38l137 28l28 -14v-419l71 -16v-38l-139 -20l-15 50l-1 -1q-22 -25 -61 -40t-79 -15q-70 0 -108.5 36zM120 590.5q-14 15.5 -14 40.5
t15.5 42.5t39.5 17.5q23 0 37 -14.5t14 -39.5q0 -26 -15 -44t-40 -18q-23 0 -37 15.5zM331 590.5q-14 15.5 -14 40.5t15.5 42.5t39.5 17.5q23 0 37 -14.5t14 -39.5q0 -26 -15 -44t-40 -18q-23 0 -37 15.5zM149 897.5q14 16.5 28 16.5q10 0 18.5 -7.5t23.5 -23.5l109 -121
l-28 -30l-174 120q9 29 23 45.5z" />
    <glyph glyph-name="Gcaron" unicode="&#x1e6;" horiz-adv-x="645" 
d="M45 0zM413 278v43h197v-50l-41 -8v-263h-41l-32 27h-14q-57 -38 -153 -38q-140 0 -212 79.5t-72 247.5q0 93 37.5 171.5t108.5 125.5t168 47q72 0 126.5 -9.5t72.5 -20.5v-156h-48l-29 110q-4 1 -20.5 5t-46.5 8t-68 4q-109 0 -154.5 -67.5t-45.5 -207.5
q0 -141 48.5 -211t159.5 -70q45 0 71.5 7.5t59.5 24.5v183zM347 769l126 63l25 -36l-79 -64l-29 -23q-16 -14 -28 -22.5t-19 -8.5q-9 0 -20 7.5t-35 28.5q-8 6 -22 18l-74 61l33 41z" />
    <glyph glyph-name="gcaron" unicode="&#x1e7;" horiz-adv-x="461" 
d="M22 0zM76.5 -138.5q-54.5 27.5 -54.5 83.5q0 45 33.5 74.5t80.5 53.5q-9 8 -14.5 22t-5.5 30q0 18 13 35t32 30q-62 13 -92 52t-30 91q0 48 25.5 87t70 61.5t97.5 22.5q66 0 107 -31q1 1 27 21.5t61 20.5q44 0 44 -43q0 -23 -18 -44l-37 8q-8 1 -20.5 3.5t-25.5 2.5
q15 -21 22.5 -46.5t7.5 -49.5q0 -48 -25.5 -84.5t-68.5 -56.5t-93 -20h-13v-56l106 -21q73 -14 110 -39.5t37 -76.5q0 -48 -32 -83.5t-86.5 -55t-120.5 -19.5q-83 0 -137.5 27.5zM294.5 265.5q24.5 22.5 24.5 80.5q0 49 -22.5 74.5t-73.5 25.5q-54 0 -77.5 -25.5
t-23.5 -79.5q0 -51 25 -74.5t74 -23.5t73.5 22.5zM339 -91.5q37 22.5 37 59.5q0 23 -14.5 39t-54.5 24l-138 26q-26 -18 -45 -46t-19 -53q0 -39 30.5 -55.5t100.5 -16.5q66 0 103 22.5zM179 576l-96 97l34 35l120 -87l116 88l25 -33l-97 -100q-30 -32 -51 -32q-19 0 -51 32z
" />
    <glyph glyph-name="uni01EA" unicode="&#x1ea;" horiz-adv-x="696" 
d="M435 -26.5q-27 -27.5 -27 -56.5q0 -44 43 -44q21 0 57 21l18 -30q0 -1 -15.5 -14.5t-38 -25t-47.5 -11.5q-37 0 -60 19t-23 55q0 59 62 104q-38 -4 -60 -4q-145 0 -222 86.5t-77 239.5q0 97 38 176t110.5 125t172.5 46q89 0 153 -40t98 -112.5t34 -169.5
q0 -114 -41.5 -199t-124.5 -124q-23 -14 -50 -41.5zM200 108q54 -64 164 -64q97 0 141.5 70.5t44.5 204.5q0 112 -24.5 173.5t-67.5 84.5t-106 23q-67 0 -110 -18.5t-69.5 -79.5t-26.5 -183q0 -147 54 -211z" />
    <glyph glyph-name="uni01EB" unicode="&#x1eb;" horiz-adv-x="497" 
d="M293 -26.5q-27 -27.5 -27 -56.5q0 -44 43 -44q21 0 57 21l18 -30q0 -1 -15.5 -14.5t-38 -25t-47.5 -11.5q-37 0 -60 19t-23 55q0 31 18 58t46 47q-9 -1 -28 -1q-102 0 -156.5 67t-54.5 182q0 71 28 131.5t80 96.5t121 36q105 0 160 -64.5t55 -176.5q0 -85 -32.5 -150.5
t-93.5 -97.5q-23 -14 -50 -41.5zM146.5 99q31.5 -50 108.5 -50q68 0 96 49t28 147q0 105 -29.5 153t-101.5 48q-54 0 -83 -23t-39.5 -65.5t-10.5 -112.5q0 -96 31.5 -146z" />
    <glyph glyph-name="uni01F1" unicode="&#x1f1;" horiz-adv-x="1262" 
d="M55 0zM55 43l83 17v527l-83 18v43h296q148 0 227.5 -80t79.5 -228q0 -168 -88 -254t-260 -86h-255v43zM456 80.5q52 29.5 76.5 92t24.5 164.5q0 131 -57.5 192t-179.5 61q-60 0 -96 -7v-521q14 -5 41.5 -8t53.5 -3q85 0 137 29.5zM738 59l360 511v19h-272l-29 -104h-49
v163h470v-66l-370 -511v-12h301l29 104h49v-163h-489v59z" />
    <glyph glyph-name="uni01F2" unicode="&#x1f2;" horiz-adv-x="1137" 
d="M55 0zM55 43l83 17v527l-83 18v43h296q148 0 227.5 -80t79.5 -228q0 -168 -88 -254t-260 -86h-255v43zM456 80.5q52 29.5 76.5 92t24.5 164.5q0 131 -57.5 192t-179.5 61q-60 0 -96 -7v-521q14 -5 41.5 -8t53.5 -3q85 0 137 29.5zM722 0v50l274 378v13h-195l-14 -83h-41
l-14 136h360v-74l-256 -352v-16h209l14 85h41l14 -137h-392z" />
    <glyph glyph-name="uni01F3" unicode="&#x1f3;" horiz-adv-x="972" 
d="M40 0zM92.5 47.5q-52.5 56.5 -52.5 170.5q0 100 32.5 164t81.5 93t99 29q65 0 110 -39v155l-82 23v39l136 17l28 -14v-615l71 -15v-39l-136 -20l-13 52l-4 1q-20 -21 -56 -39.5t-83 -18.5q-79 0 -131.5 56.5zM314 69q29 8 49 18v338q-16 6 -41.5 11t-52.5 5
q-67 0 -103.5 -42.5t-36.5 -147.5q0 -99 28 -144.5t98 -45.5q30 0 59 8zM557 0v50l274 378v13h-195l-14 -83h-41l-14 136h360v-74l-256 -352v-16h209l14 85h41l14 -137h-392z" />
    <glyph glyph-name="uni01F4" unicode="&#x1f4;" horiz-adv-x="645" 
d="M45 0zM413 278v43h197v-50l-41 -8v-263h-41l-32 27h-14q-57 -38 -153 -38q-140 0 -212 79.5t-72 247.5q0 93 37.5 171.5t108.5 125.5t168 47q72 0 126.5 -9.5t72.5 -20.5v-156h-48l-29 110q-4 1 -20.5 5t-46.5 8t-68 4q-109 0 -154.5 -67.5t-45.5 -207.5
q0 -141 48.5 -211t159.5 -70q45 0 71.5 7.5t59.5 24.5v183zM287 716l131 98q12 9 23.5 15.5t18.5 6.5q15 0 27 -18t15 -51l-193 -86z" />
    <glyph glyph-name="uni01F5" unicode="&#x1f5;" horiz-adv-x="461" 
d="M22 0zM76.5 -138.5q-54.5 27.5 -54.5 83.5q0 45 33.5 74.5t80.5 53.5q-9 8 -14.5 22t-5.5 30q0 18 13 35t32 30q-62 13 -92 52t-30 91q0 48 25.5 87t70 61.5t97.5 22.5q66 0 107 -31q1 1 27 21.5t61 20.5q44 0 44 -43q0 -23 -18 -44l-37 8q-8 1 -20.5 3.5t-25.5 2.5
q15 -21 22.5 -46.5t7.5 -49.5q0 -48 -25.5 -84.5t-68.5 -56.5t-93 -20h-13v-56l106 -21q73 -14 110 -39.5t37 -76.5q0 -48 -32 -83.5t-86.5 -55t-120.5 -19.5q-83 0 -137.5 27.5zM294.5 265.5q24.5 22.5 24.5 80.5q0 49 -22.5 74.5t-73.5 25.5q-54 0 -77.5 -25.5
t-23.5 -79.5q0 -51 25 -74.5t74 -23.5t73.5 22.5zM339 -91.5q37 22.5 37 59.5q0 23 -14.5 39t-54.5 24l-138 26q-26 -18 -45 -46t-19 -53q0 -39 30.5 -55.5t100.5 -16.5q66 0 103 22.5zM289 686q15 16 23.5 23.5t18.5 7.5q14 0 28 -16.5t23 -45.5l-174 -120l-28 30z" />
    <glyph glyph-name="Aringacute" unicode="&#x1fa;" horiz-adv-x="608" 
d="M270 856l-22 35l131 98q12 9 23.5 15.5t18.5 6.5q15 0 27 -18t15 -51zM617 41v-41h-239v41l71 16v18l-43 111h-241l-39 -111v-18l76 -16v-41h-211v41l63 16l220 594q-61 12 -61 82q0 44 26 67t67 23q40 0 64.5 -20t24.5 -63q0 -38 -19.5 -60t-51.5 -29l229 -594z
M269.5 702.5q8.5 -10.5 35.5 -10.5q24 0 33 9.5t9 33.5t-8 34.5t-34 10.5q-24 0 -34 -9.5t-10 -33.5t8.5 -34.5zM185 243h200l-97 257l-4 11l-2 5l-6 -18z" />
    <glyph glyph-name="aringacute" unicode="&#x1fb;" horiz-adv-x="480" 
d="M38 0zM73 28q-35 35 -35 89q0 126 179 151l90 13v75q0 84 -98 84q-22 0 -39.5 -3.5l-22.5 -4.5l-15 -92q0 -1 -9 -4t-23 -3q-18 0 -32 13t-14 33q0 38 37 66.5t86.5 43.5t80.5 15q63 0 97 -32.5t34 -82.5v-321l71 -14v-38q-4 -2 -18 -6.5t-36 -9t-46 -4.5q-44 0 -48 46
h-4q-13 -14 -49.5 -31.5t-78.5 -17.5q-72 0 -107 35zM260 60q20 4 32 8.5t15 5.5v159q-95 -7 -138 -30.5t-43 -70.5q0 -32 24.5 -54t67.5 -22q22 0 42 4zM171.5 689.5q25.5 27.5 71.5 27.5q43 0 66.5 -25t23.5 -64q0 -40 -26.5 -66.5t-70.5 -26.5t-67 23.5t-23 63.5
t25.5 67.5zM270.5 589q8.5 11 8.5 37q0 27 -9.5 36.5t-31.5 9.5q-23 0 -31 -10.5t-8 -35.5q0 -28 9 -38t32 -10q22 0 30.5 11zM300 909q15 16 23.5 23.5t18.5 7.5q14 0 28 -16.5t23 -45.5l-174 -120l-28 30z" />
    <glyph glyph-name="AEacute" unicode="&#x1fc;" horiz-adv-x="793" 
d="M0 0zM54 57l280 591h378v-164h-49l-21 109h-94l-94 -6l21 -259h142l17 49h42v-155h-42l-17 49h-137l19 -204q16 -4 45 -7t58 -3h100l22 107h49v-164h-447v43l83 17l-18 211h-170l-93 -196v-18l74 -16v-41h-211v41zM386 328l-21 255l-115 -255h136zM376 716l131 98
q12 9 23.5 15.5t18.5 6.5q15 0 27 -18t15 -51l-193 -86z" />
    <glyph glyph-name="aeacute" unicode="&#x1fd;" horiz-adv-x="736" 
d="M45 0zM313 350q0 43 -24.5 63.5t-72.5 20.5q-22 0 -39 -3t-22 -4l-22 -87q-2 -1 -9.5 -4t-20.5 -3q-43 0 -43 45q0 39 37.5 67.5t86.5 43.5t81 15q41 0 72.5 -18.5t46.5 -49.5q27 33 64 50.5t80 17.5q96 0 133.5 -61.5t37.5 -182.5q0 -25 -29 -27l-269 -10q0 -47 8 -81
t35 -57.5t81 -23.5q40 0 73 3.5t51.5 7.5t23.5 5l9 -33q0 -2 -21.5 -15.5t-56.5 -25.5t-81 -12q-107 0 -158 67q-33 -30 -75.5 -47.5t-102.5 -17.5q-72 0 -107 35t-35 89q0 64 48 104.5t131 44.5l89 5v79zM616 329q0 44 -10 67.5t-31.5 32t-60.5 8.5q-60 0 -86.5 -44
t-26.5 -118l212 12q3 18 3 42zM175.5 199q-42.5 -19 -42.5 -63q0 -34 22.5 -57.5t67.5 -23.5q22 0 42 6t32.5 12.5t15.5 8.5v137q-95 -1 -137.5 -20zM426 686q15 16 23.5 23.5t18.5 7.5q14 0 28 -16.5t23 -45.5l-174 -120l-28 30z" />
    <glyph glyph-name="Oslashacute" unicode="&#x1fe;" horiz-adv-x="696" 
d="M45 0zM79 139q-34 73 -34 174q0 97 38 176t110.5 125t172.5 46q39 0 81 -10l31 70l60 -27l-29 -67q68 -38 105 -113t37 -175q0 -101 -32.5 -180t-101.5 -125t-173 -46q-53 0 -103 13l-31 -72l-62 27l31 72q-66 39 -100 112zM352 600q-67 0 -110 -18.5t-69.5 -79.5
t-26.5 -183q0 -155 63 -221l213 494q-28 8 -70 8zM364 44q97 0 141.5 70.5t44.5 204.5q0 95 -17.5 153t-51.5 88l-215 -500q41 -16 98 -16zM255 716l131 98q12 9 23.5 15.5t18.5 6.5q15 0 27 -18t15 -51l-193 -86z" />
    <glyph glyph-name="oslashacute" unicode="&#x1ff;" horiz-adv-x="521" 
d="M40 0zM99 -53l33 76q-45 31 -68.5 86t-23.5 131q0 71 28 131.5t80 96.5t121 36q39 0 70 -9l34 77l54 -24l-34 -78q45 -30 68 -83t23 -124q0 -77 -27 -139t-79.5 -97.5t-126.5 -35.5q-33 0 -63 8l-33 -76zM314 438q-24 8 -51 8q-54 0 -83 -23t-39.5 -65.5t-10.5 -112.5
q0 -103 34 -149zM366 98q28 49 28 147q0 110 -31 156l-150 -343q24 -9 57 -9q68 0 96 49zM309 686q15 16 23.5 23.5t18.5 7.5q14 0 28 -16.5t23 -45.5l-174 -120l-28 30z" />
    <glyph glyph-name="uni0200" unicode="&#x200;" horiz-adv-x="608" 
d="M0 0zM-9 41l63 16l221 596h48l230 -596l64 -16v-41h-239v41l71 16v18l-43 111h-241l-39 -111v-18l76 -16v-41h-211v41zM385 243l-97 257l-4 11l-2 5l-6 -18l-91 -255h200zM66 778q7 29 19.5 44.5t26.5 15.5q12 0 22.5 -6.5t24.5 -25.5l79 -103l-28 -27zM250 778
q7 29 19.5 44.5t26.5 15.5q12 0 22.5 -6.5t24.5 -25.5l79 -103l-28 -27z" />
    <glyph glyph-name="uni0201" unicode="&#x201;" horiz-adv-x="480" 
d="M38 0zM73 28q-35 35 -35 89q0 126 179 151l90 13v75q0 84 -98 84q-22 0 -39.5 -3.5l-22.5 -4.5l-15 -92q0 -1 -9 -4t-23 -3q-18 0 -32 13t-14 33q0 38 37 66.5t86.5 43.5t80.5 15q63 0 97 -32.5t34 -82.5v-321l71 -14v-38q-4 -2 -18 -6.5t-36 -9t-46 -4.5q-44 0 -48 46
h-4q-13 -14 -49.5 -31.5t-78.5 -17.5q-72 0 -107 35zM260 60q20 4 32 8.5t15 5.5v159q-95 -7 -138 -30.5t-43 -70.5q0 -32 24.5 -54t67.5 -22q22 0 42 4zM198 558l-30 -22l-128 137q14 24 28 35.5t24 11.5q15 0 23.5 -10t15 -22.5t9.5 -18.5zM359 558l-30 -22l-128 137
q14 24 28 35.5t24 11.5q15 0 23.5 -10t15 -22.5t9.5 -18.5z" />
    <glyph glyph-name="uni0202" unicode="&#x202;" horiz-adv-x="608" 
d="M0 0zM-9 41l63 16l221 596h48l230 -596l64 -16v-41h-239v41l71 16v18l-43 111h-241l-39 -111v-18l76 -16v-41h-211v41zM385 243l-97 257l-4 11l-2 5l-6 -18l-91 -255h200zM374.5 713q-8.5 17 -27.5 32t-48 15q-35 0 -58 -15t-34.5 -32.5t-11.5 -20.5l-31 8q0 7 13 37
t44 57t81 27q58 0 89 -26t41.5 -53t10.5 -37l-60 -13q0 4 -8.5 21z" />
    <glyph glyph-name="uni0203" unicode="&#x203;" horiz-adv-x="480" 
d="M38 0zM73 28q-35 35 -35 89q0 126 179 151l90 13v75q0 84 -98 84q-22 0 -39.5 -3.5l-22.5 -4.5l-15 -92q0 -1 -9 -4t-23 -3q-18 0 -32 13t-14 33q0 38 37 66.5t86.5 43.5t80.5 15q63 0 97 -32.5t34 -82.5v-321l71 -14v-38q-4 -2 -18 -6.5t-36 -9t-46 -4.5q-44 0 -48 46
h-4q-13 -14 -49.5 -31.5t-78.5 -17.5q-72 0 -107 35zM260 60q20 4 32 8.5t15 5.5v159q-95 -7 -138 -30.5t-43 -70.5q0 -32 24.5 -54t67.5 -22q22 0 42 4zM332 583q-8 21 -32 40.5t-69 19.5q-44 0 -68 -20t-32 -41.5t-8 -28.5l-34 8q0 14 9.5 48t42.5 66.5t97 32.5t98 -31
t44.5 -64t10.5 -45l-51 -13q0 7 -8 28z" />
    <glyph glyph-name="uni0204" unicode="&#x204;" horiz-adv-x="572" 
d="M55 0zM138 60v528l-83 17v43h458v-164h-49l-21 109h-121l-98 -6v-229h158l15 59h42v-171h-42l-15 59h-158v-238q19 -4 49 -7t58 -3h120l22 107h49v-164h-467v43zM82 778q7 29 19.5 44.5t26.5 15.5q12 0 22.5 -6.5t24.5 -25.5l79 -103l-28 -27zM266 778q7 29 19.5 44.5
t26.5 15.5q12 0 22.5 -6.5t24.5 -25.5l79 -103l-28 -27z" />
    <glyph glyph-name="uni0205" unicode="&#x205;" horiz-adv-x="459" 
d="M25 0zM80 59q-55 68 -55 174q0 79 28.5 140.5t79.5 96t115 34.5q82 0 123 -53t41 -129q0 -53 -10 -71t-38 -18h-251q0 -76 37.5 -124t119.5 -48q35 0 61.5 5.5t41 11t17.5 7.5l14 -28q0 -2 -22.5 -19.5t-59 -32t-82.5 -14.5q-105 0 -160 68zM328 287q3 18 3 40
q0 60 -21.5 89.5t-76.5 29.5q-60 0 -89 -42t-30 -125zM201 558l-30 -22l-128 137q14 24 28 35.5t24 11.5q15 0 23.5 -10t15 -22.5t9.5 -18.5zM362 558l-30 -22l-128 137q14 24 28 35.5t24 11.5q15 0 23.5 -10t15 -22.5t9.5 -18.5z" />
    <glyph glyph-name="uni0206" unicode="&#x206;" horiz-adv-x="572" 
d="M55 0zM138 60v528l-83 17v43h458v-164h-49l-21 109h-121l-98 -6v-229h158l15 59h42v-171h-42l-15 59h-158v-238q19 -4 49 -7t58 -3h120l22 107h49v-164h-467v43zM390.5 713q-8.5 17 -27.5 32t-48 15q-35 0 -58 -15t-34.5 -32.5t-11.5 -20.5l-31 8q0 7 13 37t44 57t81 27
q58 0 89 -26t41.5 -53t10.5 -37l-60 -13q0 4 -8.5 21z" />
    <glyph glyph-name="uni0207" unicode="&#x207;" horiz-adv-x="459" 
d="M25 0zM80 59q-55 68 -55 174q0 79 28.5 140.5t79.5 96t115 34.5q82 0 123 -53t41 -129q0 -53 -10 -71t-38 -18h-251q0 -76 37.5 -124t119.5 -48q35 0 61.5 5.5t41 11t17.5 7.5l14 -28q0 -2 -22.5 -19.5t-59 -32t-82.5 -14.5q-105 0 -160 68zM328 287q3 18 3 40
q0 60 -21.5 89.5t-76.5 29.5q-60 0 -89 -42t-30 -125zM335 583q-8 21 -32 40.5t-69 19.5q-44 0 -68 -20t-32 -41.5t-8 -28.5l-34 8q0 14 9.5 48t42.5 66.5t97 32.5t98 -31t44.5 -64t10.5 -45l-51 -13q0 7 -8 28z" />
    <glyph glyph-name="uni0208" unicode="&#x208;" horiz-adv-x="369" 
d="M0 0zM59 44l82 15v530l-82 15v44h251v-44l-82 -15v-530l82 -15v-44h-251v44zM-53 778q7 29 19.5 44.5t26.5 15.5q12 0 22.5 -6.5t24.5 -25.5l79 -103l-28 -27zM131 778q7 29 19.5 44.5t26.5 15.5q12 0 22.5 -6.5t24.5 -25.5l79 -103l-28 -27z" />
    <glyph glyph-name="uni0209" unicode="&#x209;" horiz-adv-x="293" 
d="M0 0zM28 41l80 14v356l-80 14v41l139 28l23 -9v-430l78 -14v-41h-240v41zM107 558l-30 -22l-128 137q14 24 28 35.5t24 11.5q15 0 23.5 -10t15 -22.5t9.5 -18.5zM268 558l-30 -22l-128 137q14 24 28 35.5t24 11.5q15 0 23.5 -10t15 -22.5t9.5 -18.5z" />
    <glyph glyph-name="uni020A" unicode="&#x20a;" horiz-adv-x="369" 
d="M45 0zM59 44l82 15v530l-82 15v44h251v-44l-82 -15v-530l82 -15v-44h-251v44zM255.5 713q-8.5 17 -27.5 32t-48 15q-35 0 -58 -15t-34.5 -32.5t-11.5 -20.5l-31 8q0 7 13 37t44 57t81 27q58 0 89 -26t41.5 -53t10.5 -37l-60 -13q0 4 -8.5 21z" />
    <glyph glyph-name="uni020B" unicode="&#x20b;" horiz-adv-x="293" 
d="M0 0zM28 41l80 14v356l-80 14v41l139 28l23 -9v-430l78 -14v-41h-240v41zM241 583q-8 21 -32 40.5t-69 19.5q-44 0 -68 -20t-32 -41.5t-8 -28.5l-34 8q0 14 9.5 48t42.5 66.5t97 32.5t98 -31t44.5 -64t10.5 -45l-51 -13q0 7 -8 28z" />
    <glyph glyph-name="uni020C" unicode="&#x20c;" horiz-adv-x="696" 
d="M45 0zM122 73.5q-77 86.5 -77 239.5q0 97 38 176t110.5 125t172.5 46q89 0 153 -40t98 -112.5t34 -169.5q0 -101 -32.5 -180t-101.5 -125t-173 -46q-145 0 -222 86.5zM505.5 114.5q44.5 70.5 44.5 204.5q0 112 -24.5 173.5t-67.5 84.5t-106 23q-67 0 -110 -18.5
t-69.5 -79.5t-26.5 -183q0 -147 54 -211t164 -64q97 0 141.5 70.5zM110 778q7 29 19.5 44.5t26.5 15.5q12 0 22.5 -6.5t24.5 -25.5l79 -103l-28 -27zM294 778q7 29 19.5 44.5t26.5 15.5q12 0 22.5 -6.5t24.5 -25.5l79 -103l-28 -27z" />
    <glyph glyph-name="uni020D" unicode="&#x20d;" horiz-adv-x="497" 
d="M25 0zM79.5 58q-54.5 67 -54.5 182q0 71 28 131.5t80 96.5t121 36q105 0 160 -64.5t55 -176.5q0 -77 -27 -139t-79.5 -97.5t-126.5 -35.5q-102 0 -156.5 67zM351 98q28 49 28 147q0 105 -29.5 153t-101.5 48q-54 0 -83 -23t-39.5 -65.5t-10.5 -112.5q0 -96 31.5 -146
t108.5 -50q68 0 96 49zM207 558l-30 -22l-128 137q14 24 28 35.5t24 11.5q15 0 23.5 -10t15 -22.5t9.5 -18.5zM368 558l-30 -22l-128 137q14 24 28 35.5t24 11.5q15 0 23.5 -10t15 -22.5t9.5 -18.5z" />
    <glyph glyph-name="uni020E" unicode="&#x20e;" horiz-adv-x="696" 
d="M45 0zM122 73.5q-77 86.5 -77 239.5q0 97 38 176t110.5 125t172.5 46q89 0 153 -40t98 -112.5t34 -169.5q0 -101 -32.5 -180t-101.5 -125t-173 -46q-145 0 -222 86.5zM505.5 114.5q44.5 70.5 44.5 204.5q0 112 -24.5 173.5t-67.5 84.5t-106 23q-67 0 -110 -18.5
t-69.5 -79.5t-26.5 -183q0 -147 54 -211t164 -64q97 0 141.5 70.5zM418.5 713q-8.5 17 -27.5 32t-48 15q-35 0 -58 -15t-34.5 -32.5t-11.5 -20.5l-31 8q0 7 13 37t44 57t81 27q58 0 89 -26t41.5 -53t10.5 -37l-60 -13q0 4 -8.5 21z" />
    <glyph glyph-name="uni020F" unicode="&#x20f;" horiz-adv-x="497" 
d="M25 0zM79.5 58q-54.5 67 -54.5 182q0 71 28 131.5t80 96.5t121 36q105 0 160 -64.5t55 -176.5q0 -77 -27 -139t-79.5 -97.5t-126.5 -35.5q-102 0 -156.5 67zM351 98q28 49 28 147q0 105 -29.5 153t-101.5 48q-54 0 -83 -23t-39.5 -65.5t-10.5 -112.5q0 -96 31.5 -146
t108.5 -50q68 0 96 49zM341 583q-8 21 -32 40.5t-69 19.5q-44 0 -68 -20t-32 -41.5t-8 -28.5l-34 8q0 14 9.5 48t42.5 66.5t97 32.5t98 -31t44.5 -64t10.5 -45l-51 -13q0 7 -8 28z" />
    <glyph glyph-name="uni0210" unicode="&#x210;" horiz-adv-x="611" 
d="M55 0zM55 43l83 17v528l-83 17v43h284q89 0 144 -40t55 -120q0 -59 -20.5 -97t-50 -59t-70.5 -39l141 -231l68 -19v-43h-104q-17 0 -32 7.5t-23 22.5l-137 243h-86v-213l83 -17v-43h-252v43zM287 328q69 0 113 39.5t44 102.5q0 73 -39.5 97t-99.5 24q-41 0 -81 -5v-258
h63zM68 778q7 29 19.5 44.5t26.5 15.5q12 0 22.5 -6.5t24.5 -25.5l79 -103l-28 -27zM252 778q7 29 19.5 44.5t26.5 15.5q12 0 22.5 -6.5t24.5 -25.5l79 -103l-28 -27z" />
    <glyph glyph-name="uni0211" unicode="&#x211;" horiz-adv-x="359" 
d="M0 0zM99 55v361l-78 14v41l144 27l16 -55q5 5 24 19.5t44 28t45 13.5t32 -13.5t12 -35.5q0 -16 -6.5 -28t-14 -18.5t-9.5 -7.5l-46 12q-10 3 -18 4t-18 1q-14 0 -29 -3.5t-16 -3.5v-355l92 -13v-43h-243v41zM125 558l-30 -22l-128 137q14 24 28 35.5t24 11.5
q15 0 23.5 -10t15 -22.5t9.5 -18.5zM286 558l-30 -22l-128 137q14 24 28 35.5t24 11.5q15 0 23.5 -10t15 -22.5t9.5 -18.5z" />
    <glyph glyph-name="uni0212" unicode="&#x212;" horiz-adv-x="611" 
d="M55 0zM55 43l83 17v528l-83 17v43h284q89 0 144 -40t55 -120q0 -59 -20.5 -97t-50 -59t-70.5 -39l141 -231l68 -19v-43h-104q-17 0 -32 7.5t-23 22.5l-137 243h-86v-213l83 -17v-43h-252v43zM287 328q69 0 113 39.5t44 102.5q0 73 -39.5 97t-99.5 24q-41 0 -81 -5v-258
h63zM376.5 713q-8.5 17 -27.5 32t-48 15q-35 0 -58 -15t-34.5 -32.5t-11.5 -20.5l-31 8q0 7 13 37t44 57t81 27q58 0 89 -26t41.5 -53t10.5 -37l-60 -13q0 4 -8.5 21z" />
    <glyph glyph-name="uni0213" unicode="&#x213;" horiz-adv-x="359" 
d="M16 0zM99 55v361l-78 14v41l144 27l16 -55q5 5 24 19.5t44 28t45 13.5t32 -13.5t12 -35.5q0 -16 -6.5 -28t-14 -18.5t-9.5 -7.5l-46 12q-10 3 -18 4t-18 1q-14 0 -29 -3.5t-16 -3.5v-355l92 -13v-43h-243v41zM259 583q-8 21 -32 40.5t-69 19.5q-44 0 -68 -20t-32 -41.5
t-8 -28.5l-34 8q0 14 9.5 48t42.5 66.5t97 32.5t98 -31t44.5 -64t10.5 -45l-51 -13q0 7 -8 28z" />
    <glyph glyph-name="uni0214" unicode="&#x214;" horiz-adv-x="732" 
d="M45 0zM45 604v44h251v-44l-82 -15v-311q0 -91 14.5 -138.5t52 -67t109.5 -19.5q90 0 125 54.5t35 170.5v309l-82 16v45h229v-45l-82 -16v-309q0 -101 -21.5 -163.5t-77 -95t-157.5 -32.5q-93 0 -143 32t-69.5 94t-19.5 165v311zM128 778q7 29 19.5 44.5t26.5 15.5
q12 0 22.5 -6.5t24.5 -25.5l79 -103l-28 -27zM312 778q7 29 19.5 44.5t26.5 15.5q12 0 22.5 -6.5t24.5 -25.5l79 -103l-28 -27z" />
    <glyph glyph-name="uni0215" unicode="&#x215;" horiz-adv-x="557" 
d="M7 0zM128.5 27q-38.5 36 -38.5 102v295l-83 14v38l137 28l28 -14v-318q0 -65 24 -90.5t85 -25.5q21 0 48.5 8t48.5 20v340l-82 14v38l137 28l28 -14v-419l71 -16v-38l-139 -20l-15 50l-1 -1q-22 -25 -61 -40t-79 -15q-70 0 -108.5 36zM223 558l-30 -22l-128 137
q14 24 28 35.5t24 11.5q15 0 23.5 -10t15 -22.5t9.5 -18.5zM384 558l-30 -22l-128 137q14 24 28 35.5t24 11.5q15 0 23.5 -10t15 -22.5t9.5 -18.5z" />
    <glyph glyph-name="uni0216" unicode="&#x216;" horiz-adv-x="732" 
d="M45 0zM45 604v44h251v-44l-82 -15v-311q0 -91 14.5 -138.5t52 -67t109.5 -19.5q90 0 125 54.5t35 170.5v309l-82 16v45h229v-45l-82 -16v-309q0 -101 -21.5 -163.5t-77 -95t-157.5 -32.5q-93 0 -143 32t-69.5 94t-19.5 165v311zM436.5 713q-8.5 17 -27.5 32t-48 15
q-35 0 -58 -15t-34.5 -32.5t-11.5 -20.5l-31 8q0 7 13 37t44 57t81 27q58 0 89 -26t41.5 -53t10.5 -37l-60 -13q0 4 -8.5 21z" />
    <glyph glyph-name="uni0217" unicode="&#x217;" horiz-adv-x="557" 
d="M7 0zM128.5 27q-38.5 36 -38.5 102v295l-83 14v38l137 28l28 -14v-318q0 -65 24 -90.5t85 -25.5q21 0 48.5 8t48.5 20v340l-82 14v38l137 28l28 -14v-419l71 -16v-38l-139 -20l-15 50l-1 -1q-22 -25 -61 -40t-79 -15q-70 0 -108.5 36zM357 583q-8 21 -32 40.5t-69 19.5
q-44 0 -68 -20t-32 -41.5t-8 -28.5l-34 8q0 14 9.5 48t42.5 66.5t97 32.5t98 -31t44.5 -64t10.5 -45l-51 -13q0 7 -8 28z" />
    <glyph glyph-name="Scommaaccent" unicode="&#x218;" horiz-adv-x="514" 
d="M137.5 6.5q-55.5 16.5 -79.5 37.5v143h54l15 -100q22 -16 55.5 -27.5t61.5 -11.5q75 0 107 25t32 89q0 51 -33.5 77.5t-99.5 49.5q-68 25 -102.5 42t-61.5 52.5t-27 93.5q0 83 58 133t156 50q46 0 98 -8.5t71 -16.5v-151h-49l-19 94q-18 10 -47.5 16.5t-56.5 6.5
q-71 0 -97.5 -25t-26.5 -71q0 -36 20 -60t48.5 -38t81.5 -34q55 -21 90 -41t59 -56t24 -92q0 -67 -32 -110.5t-82 -63.5t-105 -20q-57 0 -112.5 16.5zM238 -144q4 17 4 36q0 33 -26 57q10 11 22 16.5t23 5.5q24 0 36 -15.5t12 -36.5q0 -30 -12 -53.5t-26.5 -39t-14.5 -13.5
h-31q9 26 13 43z" />
    <glyph glyph-name="scommaaccent" unicode="&#x219;" horiz-adv-x="406" 
d="M79 152l14 -78q15 -11 39.5 -19.5t55.5 -8.5q58 0 80.5 23t22.5 64q0 26 -14.5 42t-36 24.5t-59.5 18.5q-48 12 -78.5 25t-52 42t-21.5 78q0 68 51 104.5t131 36.5q43 0 85 -9t58 -18l-14 -125h-41l-14 80q0 1 -29 8t-53 7q-54 0 -75.5 -17.5t-21.5 -55.5q0 -23 14 -37.5
t34.5 -22.5t57.5 -18q49 -13 80.5 -27t54 -43.5t22.5 -79.5q0 -83 -51.5 -119t-133.5 -36q-49 0 -95 13t-63 26l12 122h41zM176 -144q4 17 4 36q0 33 -26 57q10 11 22 16.5t23 5.5q24 0 36 -15.5t12 -36.5q0 -30 -12 -53.5t-26.5 -39t-14.5 -13.5h-31q9 26 13 43z" />
    <glyph glyph-name="uni021A" unicode="&#x21a;" horiz-adv-x="541" 
d="M145 0v44l82 15v531h-142l-21 -106h-49v164h511v-164h-49l-20 106h-143v-531l82 -15v-44h-251zM247 -144q4 17 4 36q0 33 -26 57q10 11 22 16.5t23 5.5q24 0 36 -15.5t12 -36.5q0 -30 -12 -53.5t-26.5 -39t-14.5 -13.5h-31q9 26 13 43z" />
    <glyph glyph-name="uni021B" unicode="&#x21b;" horiz-adv-x="303" 
d="M5 442v42l78 21l24 104h58v-114h141v-28l-14 -25h-127v-328q0 -30 11.5 -40t38.5 -10q24 0 48.5 5.5t31.5 7.5l10 -32q2 0 -17.5 -13.5t-45.5 -24.5t-51 -11q-60 0 -84 28.5t-24 82.5v335h-78zM145 -144q4 17 4 36q0 33 -26 57q10 11 22 16.5t23 5.5q24 0 36 -15.5
t12 -36.5q0 -30 -12 -53.5t-26.5 -39t-14.5 -13.5h-31q9 26 13 43z" />
    <glyph glyph-name="uni0232" unicode="&#x232;" horiz-adv-x="584" 
d="M0 0zM179 44l82 15v173l-200 359l-62 16v41h241v-41l-75 -16v-18l145 -274h14l142 274v18l-79 16v41h211v-41l-60 -16l-190 -347v-185l82 -15v-44h-251v44zM153 781h332l-10 -58h-332z" />
    <glyph glyph-name="uni0233" unicode="&#x233;" horiz-adv-x="455" 
d="M0 0zM475 494v-42l-54 -16l-212 -545q-22 -57 -103 -57q-17 0 -38.5 3t-36.5 7v38l114 29l54 118l-163 406l-58 16v43h219v-45l-66 -9v-15l103 -270l8 -34l12 44l100 260v12l-64 11v46h185zM77 663h332l-10 -57h-332z" />
    <glyph glyph-name="uni0237" unicode="&#x237;" horiz-adv-x="259" 
d="M95 -91v502l-80 14v41l139 28l23 -9v-568q0 -39 -27.5 -60.5t-79.5 -21.5q-30 0 -56.5 4.5t-26.5 5.5v38z" />
    <glyph glyph-name="uni0259" unicode="&#x259;" horiz-adv-x="459" 
d="M379 435q55 -68 55 -174q0 -79 -28.5 -140.5t-79.5 -96t-115 -34.5q-82 0 -123 53t-41 129q0 53 10 71t38 18h251q0 76 -37.5 124t-119.5 48q-35 0 -61.5 -5.5t-41 -11t-17.5 -7.5l-14 28q0 2 22.5 19.5t59 32t82.5 14.5q105 0 160 -68zM131 207q-3 -18 -3 -40
q0 -60 21.5 -89.5t76.5 -29.5q60 0 89 42t30 125z" />
    <glyph glyph-name="uni0272" unicode="&#x272;" horiz-adv-x="565" 
d="M-13 -155v38l108 26v502l-80 14v41l149 28l9 -36l1 -3q91 49 160 49q62 0 96.5 -36t34.5 -101v-312l80 -14v-41h-240v41l78 14v298q0 43 -25 62t-80 19q-26 0 -55 -3.5t-46 -8.5v-505q0 -40 -27.5 -61t-79.5 -21q-46 0 -83 10z" />
    <glyph glyph-name="uni02BC" unicode="&#x2bc;" horiz-adv-x="115" 
d="M30.5 589.5q4.5 26.5 4.5 47.5q0 29 -25 59q16 23 45 23q25 0 37.5 -15.5t12.5 -38.5q0 -20 -12 -47.5t-25 -48.5t-17 -27h-32q7 21 11.5 47.5z" />
    <glyph glyph-name="circumflex" unicode="&#x2c6;" horiz-adv-x="296" 
d="M106 683q27 27 46 27q17 0 38 -21l106 -110l-35 -35l-118 84l-115 -83l-28 32z" />
    <glyph glyph-name="caron" unicode="&#x2c7;" horiz-adv-x="295" 
d="M96 576l-96 97l34 35l120 -87l116 88l25 -33l-97 -100q-30 -32 -51 -32q-19 0 -51 32z" />
    <glyph glyph-name="uni02C9" unicode="&#x2c9;" horiz-adv-x="343" 
d="M10 663h332l-10 -57h-332z" />
    <glyph glyph-name="breve" unicode="&#x2d8;" horiz-adv-x="302" 
d="M59 678q8 -21 32 -40.5t69 -19.5q44 0 68 20t32 41.5t8 28.5l34 -8q0 -14 -9.5 -48t-42.5 -66.5t-97 -32.5t-98 31t-44.5 64t-10.5 45l51 13q0 -7 8 -28z" />
    <glyph glyph-name="dotaccent" unicode="&#x2d9;" horiz-adv-x="117" 
d="M15.5 585q-15.5 17 -15.5 45q0 27 17.5 46.5t43.5 19.5t41 -16t15 -44t-16.5 -48t-44.5 -20q-25 0 -40.5 17z" />
    <glyph glyph-name="ring" unicode="&#x2da;" horiz-adv-x="180" 
d="M21.5 689.5q25.5 27.5 71.5 27.5q43 0 66.5 -25t23.5 -64q0 -40 -26.5 -66.5t-70.5 -26.5t-67 23.5t-23 63.5t25.5 67.5zM120.5 589q8.5 11 8.5 37q0 27 -9.5 36.5t-31.5 9.5q-23 0 -31 -10.5t-8 -35.5q0 -28 9 -38t32 -10q22 0 30.5 11z" />
    <glyph glyph-name="ogonek" unicode="&#x2db;" horiz-adv-x="184" 
d="M168.5 -150.5q-15.5 -13.5 -38 -25t-47.5 -11.5q-37 0 -60 19t-23 55q0 43 31 76t73 53h40q0 1 -21.5 -16t-39 -39t-17.5 -44q0 -44 43 -44q21 0 57 21l18 -30q0 -1 -15.5 -14.5z" />
    <glyph glyph-name="tilde" unicode="&#x2dc;" horiz-adv-x="336" 
d="M55 673.5q17 9.5 36 9.5q18 0 42.5 -7t28.5 -8l84 -25l68 34l22 -20l-28 -47q-10 -17 -27 -26.5t-36 -9.5q-18 0 -42.5 7t-28.5 8l-84 25l-68 -34l-22 20l28 47q10 17 27 26.5z" />
    <glyph glyph-name="hungarumlaut" unicode="&#x2dd;" horiz-adv-x="319" 
d="M68.5 689.5q7.5 14.5 16.5 22.5t21 8q10 0 24 -11.5t28 -35.5l-128 -137l-30 22l58 111q3 6 10.5 20.5zM229.5 689.5q7.5 14.5 16.5 22.5t21 8q10 0 24 -11.5t28 -35.5l-128 -137l-30 22l58 111q3 6 10.5 20.5z" />
    <glyph glyph-name="gravecomb" unicode="&#x300;" 
d="M-179 700.5q14 16.5 28 16.5q10 0 18.5 -7.5t23.5 -23.5l109 -121l-28 -30l-174 120q9 29 23 45.5z" />
    <glyph glyph-name="acutecomb" unicode="&#x301;" 
d="M-93 686q15 16 23.5 23.5t18.5 7.5q14 0 28 -16.5t23 -45.5l-174 -120l-28 30z" />
    <glyph glyph-name="uni0302" unicode="&#x302;" 
d="M-190 683q27 27 46 27q17 0 38 -21l106 -110l-35 -35l-118 84l-115 -83l-28 32z" />
    <glyph glyph-name="tildecomb" unicode="&#x303;" 
d="M-281 673.5q17 9.5 36 9.5q18 0 42.5 -7t28.5 -8l84 -25l68 34l22 -20l-28 -47q-10 -17 -27 -26.5t-36 -9.5q-18 0 -42.5 7t-28.5 8l-84 25l-68 -34l-22 20l28 47q10 17 27 26.5z" />
    <glyph glyph-name="uni0304" unicode="&#x304;" 
d="M-333 663h332l-10 -57h-332z" />
    <glyph glyph-name="uni0306" unicode="&#x306;" 
d="M-243 678q8 -21 32 -40.5t69 -19.5q44 0 68 20t32 41.5t8 28.5l34 -8q0 -14 -9.5 -48t-42.5 -66.5t-97 -32.5t-98 31t-44.5 64t-10.5 45l51 13q0 -7 8 -28z" />
    <glyph glyph-name="uni0307" unicode="&#x307;" 
d="M-101.5 585q-15.5 17 -15.5 45q0 27 17.5 46.5t43.5 19.5t41 -16t15 -44t-16.5 -48t-44.5 -20q-25 0 -40.5 17z" />
    <glyph glyph-name="uni0308" unicode="&#x308;" 
d="M-303 590.5q-14 15.5 -14 40.5t15.5 42.5t39.5 17.5q23 0 37 -14.5t14 -39.5q0 -26 -15 -44t-40 -18q-23 0 -37 15.5zM-92 590.5q-14 15.5 -14 40.5t15.5 42.5t39.5 17.5q23 0 37 -14.5t14 -39.5q0 -26 -15 -44t-40 -18q-23 0 -37 15.5z" />
    <glyph glyph-name="hookabovecomb" unicode="&#x309;" 
d="M-164 568q0 13 9 22t29 18q20 10 27.5 17.5t7.5 18.5q0 26 -49 26q-29 0 -63 -8q-9 17 -9 32t11.5 22.5t48.5 7.5q60 0 94.5 -21t34.5 -61q0 -22 -14.5 -36.5t-43.5 -27.5q-18 -8 -22.5 -14t-4.5 -17v-5l-47 -6q-9 20 -9 32z" />
    <glyph glyph-name="uni030A" unicode="&#x30a;" 
d="M-158.5 689.5q25.5 27.5 71.5 27.5q43 0 66.5 -25t23.5 -64q0 -40 -26.5 -66.5t-70.5 -26.5t-67 23.5t-23 63.5t25.5 67.5zM-59.5 589q8.5 11 8.5 37q0 27 -9.5 36.5t-31.5 9.5q-23 0 -31 -10.5t-8 -35.5q0 -28 9 -38t32 -10q22 0 30.5 11z" />
    <glyph glyph-name="uni030B" unicode="&#x30b;" 
d="M0 536zM-250.5 689.5q7.5 14.5 16.5 22.5t21 8q10 0 24 -11.5t28 -35.5l-128 -137l-30 22l58 111q3 6 10.5 20.5zM-89.5 689.5q7.5 14.5 16.5 22.5t21 8q10 0 24 -11.5t28 -35.5l-128 -137l-30 22l58 111q3 6 10.5 20.5z" />
    <glyph glyph-name="uni030C" unicode="&#x30c;" 
d="M-199 576l-96 97l34 35l120 -87l116 88l25 -33l-97 -100q-30 -32 -51 -32q-19 0 -51 32z" />
    <glyph glyph-name="uni030F" unicode="&#x30f;" 
d="M-161 558l-30 -22l-128 137q14 24 28 35.5t24 11.5q15 0 23.5 -10t15 -22.5t9.5 -18.5zM0 558l-30 -22l-128 137q14 24 28 35.5t24 11.5q15 0 23.5 -10t15 -22.5t9.5 -18.5z" />
    <glyph glyph-name="uni0311" unicode="&#x311;" 
d="M-59 583q-8 21 -32 40.5t-69 19.5q-44 0 -68 -20t-32 -41.5t-8 -28.5l-34 8q0 14 9.5 48t42.5 66.5t97 32.5t98 -31t44.5 -64t10.5 -45l-51 -13q0 7 -8 28z" />
    <glyph glyph-name="uni031B" unicode="&#x31b;" 
d="M-201 347q104 69 104 127q0 12 -5 19t-16 15v15l55 39q16 -12 24 -23.5t8 -38.5q0 -37 -39.5 -84.5t-128.5 -98.5z" />
    <glyph glyph-name="dotbelowcomb" unicode="&#x323;" 
d="M-101.5 -155q-15.5 17 -15.5 45q0 27 17.5 46.5t43.5 19.5t41 -16t15 -44t-16.5 -48t-44.5 -20q-25 0 -40.5 17z" />
    <glyph glyph-name="uni0326" unicode="&#x326;" 
d="M-71 -144q4 17 4 36q0 33 -26 57q10 11 22 16.5t23 5.5q24 0 36 -15.5t12 -36.5q0 -30 -12 -53.5t-26.5 -39t-14.5 -13.5h-31q9 26 13 43z" />
    <glyph glyph-name="uni0327" unicode="&#x327;" 
d="M0 0zM-142.5 -183q-16.5 4 -35.5 12l16 37q28 -11 54 -11q59 0 59 30q0 15 -7 20.5t-24 8.5l-37 8l-19 19l25 59h41v-29l17 -4q36 -9 54 -21t18 -42q0 -48 -35.5 -69.5t-87.5 -21.5q-22 0 -38.5 4z" />
    <glyph glyph-name="uni0328" unicode="&#x328;" 
d="M-15.5 -150.5q-15.5 -13.5 -38 -25t-47.5 -11.5q-37 0 -60 19t-23 55q0 43 31 76t73 53h40q0 1 -21.5 -16t-39 -39t-17.5 -44q0 -44 43 -44q21 0 57 21l18 -30q0 -1 -15.5 -14.5z" />
    <glyph glyph-name="uni0335" unicode="&#x335;" 
d="M-404 305v57h347v-57h-347z" />
    <glyph glyph-name="uni0336" unicode="&#x336;" 
d="M-693 439v55h638v-55h-638z" />
    <glyph glyph-name="uni0394" unicode="&#x394;" horiz-adv-x="602" 
d="M28 0zM28 0l252 648h49l247 -607v-41h-548zM120 48h344v22l-168 434l-5 15l-1 1l-6 -16l-164 -431v-25z" />
    <glyph glyph-name="uni03A9" unicode="&#x3a9;" horiz-adv-x="781" 
d="M53 0zM53 153h40l20 -77h128v7q-58 37 -99 112t-41 165q0 79 34 147.5t102.5 110.5t166.5 42q87 0 149.5 -39.5t94.5 -108t32 -153.5q0 -55 -23 -110.5t-59 -99.5t-74 -68v-5h154l20 77h40v-153h-300v55q79 65 111 139t32 164q0 128 -48 183t-139 55q-64 0 -105.5 -17
t-65.5 -68.5t-24 -151.5q0 -94 28 -167t106 -137v-55h-280v153z" />
    <glyph glyph-name="uni03BC" unicode="&#x3bc;" horiz-adv-x="530" 
d="M72 0zM72 -149v643l54 10l28 -14v-322q0 -64 23.5 -87.5t85.5 -23.5q19 0 46.5 6.5t50.5 16.5v414l55 10l28 -14v-423l80 -13v-38q-23 -9 -54 -14.5t-55 -5.5q-20 0 -35 12.5t-19 34.5l-2 -1q-32 -22 -73.5 -36.5t-73.5 -14.5q-45 0 -75 15q6 -21 7 -34l11 -125l-54 -10z
" />
    <glyph glyph-name="pi" unicode="&#x3c0;" horiz-adv-x="530" 
d="M97 97v330l-100 -41l-24 36l43 38q18 18 39.5 26t50.5 8h318l90 34l25 -39l-47 -39q-28 -23 -72 -23v-361h72v-39q-4 -2 -17.5 -9.5t-34.5 -14.5t-42 -7q-36 0 -47.5 17.5t-11.5 55.5v358h-161v-308q0 -43 -15.5 -72t-24 -38l-8.5 -9h-65v41z" />
    <glyph glyph-name="uni1E0C" unicode="&#x1e0c;" horiz-adv-x="703" 
d="M55 0zM55 43l83 17v527l-83 18v43h296q148 0 227.5 -80t79.5 -228q0 -168 -88 -254t-260 -86h-255v43zM456 80.5q52 29.5 76.5 92t24.5 164.5q0 131 -57.5 192t-179.5 61q-60 0 -96 -7v-521q14 -5 41.5 -8t53.5 -3q85 0 137 29.5zM308.5 -155q-15.5 17 -15.5 45
q0 27 17.5 46.5t43.5 19.5t41 -16t15 -44t-16.5 -48t-44.5 -20q-25 0 -40.5 17z" />
    <glyph glyph-name="uni1E0D" unicode="&#x1e0d;" horiz-adv-x="538" 
d="M40 0zM92.5 47.5q-52.5 56.5 -52.5 170.5q0 100 32.5 164t81.5 93t99 29q65 0 110 -39v155l-82 23v39l136 17l28 -14v-615l71 -15v-39l-136 -20l-13 52l-4 1q-20 -21 -56 -39.5t-83 -18.5q-79 0 -131.5 56.5zM314 69q29 8 49 18v338q-16 6 -41.5 11t-52.5 5
q-67 0 -103.5 -42.5t-36.5 -147.5q0 -99 28 -144.5t98 -45.5q30 0 59 8zM225.5 -155q-15.5 17 -15.5 45q0 27 17.5 46.5t43.5 19.5t41 -16t15 -44t-16.5 -48t-44.5 -20q-25 0 -40.5 17z" />
    <glyph glyph-name="uni1E24" unicode="&#x1e24;" horiz-adv-x="753" 
d="M55 0zM55 44l83 15v530l-83 15v44h252v-44l-83 -15v-229h305v229l-82 15v44h251v-44l-82 -15v-530l82 -15v-44h-251v44l82 15v246h-305v-246l83 -15v-44h-252v44zM333.5 -155q-15.5 17 -15.5 45q0 27 17.5 46.5t43.5 19.5t41 -16t15 -44t-16.5 -48t-44.5 -20
q-25 0 -40.5 17z" />
    <glyph glyph-name="uni1E25" unicode="&#x1e25;" horiz-adv-x="575" 
d="M24 0zM24 41l81 14v567l-80 14v41l139 22l23 -9v-237q34 22 78.5 36.5t78.5 14.5q57 0 94 -33t37 -104v-312l80 -14v-41h-240v41l78 14v298q0 45 -26 63t-79 18q-20 0 -49 -4t-52 -9v-366l79 -14v-41h-242v41zM244.5 -155q-15.5 17 -15.5 45q0 27 17.5 46.5t43.5 19.5
t41 -16t15 -44t-16.5 -48t-44.5 -20q-25 0 -40.5 17z" />
    <glyph glyph-name="uni1E44" unicode="&#x1e44;" horiz-adv-x="727" 
d="M55 0zM55 0v42l70 16v532l-65 14v44h153l315 -499l13 -20h9v461l-69 16v42h199v-42l-69 -16v-590h-92l-325 516h-9v-458l70 -16v-42h-200zM320.5 711q-15.5 17 -15.5 45q0 27 17.5 46.5t43.5 19.5t41 -16t15 -44t-16.5 -48t-44.5 -20q-25 0 -40.5 17z" />
    <glyph glyph-name="uni1E45" unicode="&#x1e45;" horiz-adv-x="576" 
d="M26 0zM26 41l80 14v356l-80 14v41l149 28l8 -33l2 -6q91 49 160 49q62 0 96.5 -36t34.5 -101v-312l80 -14v-41h-240v41l78 14v298q0 43 -25 62t-80 19q-26 0 -55 -3.5t-46 -8.5v-367l78 -14v-41h-240v41zM244.5 585q-15.5 17 -15.5 45q0 27 17.5 46.5t43.5 19.5t41 -16
t15 -44t-16.5 -48t-44.5 -20q-25 0 -40.5 17z" />
    <glyph glyph-name="uni1E5A" unicode="&#x1e5a;" horiz-adv-x="611" 
d="M55 0zM55 43l83 17v528l-83 17v43h284q89 0 144 -40t55 -120q0 -59 -20.5 -97t-50 -59t-70.5 -39l141 -231l68 -19v-43h-104q-17 0 -32 7.5t-23 22.5l-137 243h-86v-213l83 -17v-43h-252v43zM287 328q69 0 113 39.5t44 102.5q0 73 -39.5 97t-99.5 24q-41 0 -81 -5v-258
h63zM294.5 -155q-15.5 17 -15.5 45q0 27 17.5 46.5t43.5 19.5t41 -16t15 -44t-16.5 -48t-44.5 -20q-25 0 -40.5 17z" />
    <glyph glyph-name="uni1E5B" unicode="&#x1e5b;" horiz-adv-x="359" 
d="M21 0zM99 55v361l-78 14v41l144 27l16 -55q5 5 24 19.5t44 28t45 13.5t32 -13.5t12 -35.5q0 -16 -6.5 -28t-14 -18.5t-9.5 -7.5l-46 12q-10 3 -18 4t-18 1q-14 0 -29 -3.5t-16 -3.5v-355l92 -13v-43h-243v41zM96.5 -155q-15.5 17 -15.5 45q0 27 17.5 46.5t43.5 19.5
t41 -16t15 -44t-16.5 -48t-44.5 -20q-25 0 -40.5 17z" />
    <glyph glyph-name="uni1E62" unicode="&#x1e62;" horiz-adv-x="514" 
d="M58 0zM137.5 6.5q-55.5 16.5 -79.5 37.5v143h54l15 -100q22 -16 55.5 -27.5t61.5 -11.5q75 0 107 25t32 89q0 35 -18 58.5t-45.5 38.5t-71.5 31q-65 23 -100.5 41t-62 53t-26.5 93q0 83 58 133t156 50q46 0 98 -8.5t71 -16.5v-151h-49l-19 94q-3 2 -17 7.5t-37 10.5
t-50 5q-71 0 -97.5 -25t-26.5 -71q0 -38 21.5 -62t49.5 -37t88 -36q51 -19 85 -39.5t56.5 -56.5t22.5 -90q0 -67 -32 -110.5t-82 -63.5t-105 -20q-57 0 -112.5 16.5zM213.5 -155q-15.5 17 -15.5 45q0 27 17.5 46.5t43.5 19.5t41 -16t15 -44t-16.5 -48t-44.5 -20
q-25 0 -40.5 17z" />
    <glyph glyph-name="uni1E63" unicode="&#x1e63;" horiz-adv-x="413" 
d="M30 0zM83 152l14 -78q15 -11 39.5 -19.5t55.5 -8.5q58 0 80.5 23t22.5 64q0 26 -14.5 42t-36 24.5t-59.5 18.5q-48 12 -78.5 25t-52 42t-21.5 78q0 68 51 104.5t131 36.5q43 0 85 -9t58 -18l-14 -125h-41l-14 80q0 1 -29 8t-53 7q-54 0 -75.5 -17.5t-21.5 -55.5
q0 -23 14 -37.5t34.5 -22.5t57.5 -18q49 -13 80.5 -27t54 -43.5t22.5 -79.5q0 -83 -51.5 -119t-133.5 -36q-49 0 -95 13t-63 26l12 122h41zM163.5 -155q-15.5 17 -15.5 45q0 27 17.5 46.5t43.5 19.5t41 -16t15 -44t-16.5 -48t-44.5 -20q-25 0 -40.5 17z" />
    <glyph glyph-name="uni1E6C" unicode="&#x1e6c;" horiz-adv-x="541" 
d="M15 0zM145 44l82 15v531h-142l-21 -106h-49v164h511v-164h-49l-20 106h-143v-531l82 -15v-44h-251v44zM227.5 -155q-15.5 17 -15.5 45q0 27 17.5 46.5t43.5 19.5t41 -16t15 -44t-16.5 -48t-44.5 -20q-25 0 -40.5 17z" />
    <glyph glyph-name="uni1E6D" unicode="&#x1e6d;" horiz-adv-x="343" 
d="M13 0zM13 442v42l78 21l24 104h58v-114h141v-28l-14 -25h-127v-328q0 -30 11.5 -40t38.5 -10q24 0 48.5 5.5t31.5 7.5l10 -32q2 0 -17.5 -13.5t-45.5 -24.5t-51 -11q-60 0 -84 28.5t-24 82.5v335h-78zM146.5 -155q-15.5 17 -15.5 45q0 27 17.5 46.5t43.5 19.5t41 -16
t15 -44t-16.5 -48t-44.5 -20q-25 0 -40.5 17z" />
    <glyph glyph-name="Wgrave" unicode="&#x1e80;" horiz-adv-x="945" 
d="M0 0zM256 -5l-195 596l-61 16v41h240v-41l-75 -16v-18l126 -421l10 -32h3l11 33l127 362l-28 76l-74 16v41h253v-41l-75 -16v-18l152 -420l11 -31h5l9 31l119 420v18l-80 16v41h211v-41l-59 -16l-184 -596h-59l-160 410l-6 16h-7l-7 -19l-148 -407h-59zM330 767
q3 33 15 51t27 18q7 0 18.5 -6.5t23.5 -15.5l131 -98l-22 -35z" />
    <glyph glyph-name="wgrave" unicode="&#x1e81;" horiz-adv-x="726" 
d="M0 0zM204 -5l-163 441l-58 15v43h218v-45l-66 -11v-12l83 -251l10 -46l11 56l98 309h87l95 -319l9 -46l11 56l76 238v15l-63 11v45h184v-42l-58 -19l-144 -438h-41l-126 398l-125 -398h-38zM263 700.5q14 16.5 28 16.5q10 0 18.5 -7.5t23.5 -23.5l109 -121l-28 -30
l-174 120q9 29 23 45.5z" />
    <glyph glyph-name="Wacute" unicode="&#x1e82;" horiz-adv-x="945" 
d="M0 0zM256 -5l-195 596l-61 16v41h240v-41l-75 -16v-18l126 -421l10 -32h3l11 33l127 362l-28 76l-74 16v41h253v-41l-75 -16v-18l152 -420l11 -31h5l9 31l119 420v18l-80 16v41h211v-41l-59 -16l-184 -596h-59l-160 410l-6 16h-7l-7 -19l-148 -407h-59zM415 716l131 98
q12 9 23.5 15.5t18.5 6.5q15 0 27 -18t15 -51l-193 -86z" />
    <glyph glyph-name="wacute" unicode="&#x1e83;" horiz-adv-x="726" 
d="M0 0zM204 -5l-163 441l-58 15v43h218v-45l-66 -11v-12l83 -251l10 -46l11 56l98 309h87l95 -319l9 -46l11 56l76 238v15l-63 11v45h184v-42l-58 -19l-144 -438h-41l-126 398l-125 -398h-38zM439 686q15 16 23.5 23.5t18.5 7.5q14 0 28 -16.5t23 -45.5l-174 -120l-28 30z
" />
    <glyph glyph-name="Wdieresis" unicode="&#x1e84;" horiz-adv-x="945" 
d="M0 0zM256 -5l-195 596l-61 16v41h240v-41l-75 -16v-18l126 -421l10 -32h3l11 33l127 362l-28 76l-74 16v41h253v-41l-75 -16v-18l152 -420l11 -31h5l9 31l119 420v18l-80 16v41h211v-41l-59 -16l-184 -596h-59l-160 410l-6 16h-7l-7 -19l-148 -407h-59zM328 701.5
q-14 15.5 -14 40.5t15.5 42.5t39.5 17.5q23 0 37 -14.5t14 -39.5q0 -26 -15 -44t-40 -18q-23 0 -37 15.5zM539 701.5q-14 15.5 -14 40.5t15.5 42.5t39.5 17.5q23 0 37 -14.5t14 -39.5q0 -26 -15 -44t-40 -18q-23 0 -37 15.5z" />
    <glyph glyph-name="wdieresis" unicode="&#x1e85;" horiz-adv-x="726" 
d="M0 0zM204 -5l-163 441l-58 15v43h218v-45l-66 -11v-12l83 -251l10 -46l11 56l98 309h87l95 -319l9 -46l11 56l76 238v15l-63 11v45h184v-42l-58 -19l-144 -438h-41l-126 398l-125 -398h-38zM236 590.5q-14 15.5 -14 40.5t15.5 42.5t39.5 17.5q23 0 37 -14.5t14 -39.5
q0 -26 -15 -44t-40 -18q-23 0 -37 15.5zM447 590.5q-14 15.5 -14 40.5t15.5 42.5t39.5 17.5q23 0 37 -14.5t14 -39.5q0 -26 -15 -44t-40 -18q-23 0 -37 15.5z" />
    <glyph glyph-name="uni1E92" unicode="&#x1e92;" horiz-adv-x="559" 
d="M35 0zM35 59l360 511v19h-272l-29 -104h-49v163h470v-66l-370 -511v-12h301l29 104h49v-163h-489v59zM236.5 -155q-15.5 17 -15.5 45q0 27 17.5 46.5t43.5 19.5t41 -16t15 -44t-16.5 -48t-44.5 -20q-25 0 -40.5 17z" />
    <glyph glyph-name="uni1E93" unicode="&#x1e93;" horiz-adv-x="434" 
d="M19 0zM19 0v50l274 378v13h-195l-14 -83h-41l-14 136h360v-74l-256 -352v-16h209l14 85h41l14 -137h-392zM173.5 -155q-15.5 17 -15.5 45q0 27 17.5 46.5t43.5 19.5t41 -16t15 -44t-16.5 -48t-44.5 -20q-25 0 -40.5 17z" />
    <glyph glyph-name="uni1E9E" unicode="&#x1e9e;" horiz-adv-x="736" 
d="M422 3.5q-44 13.5 -62 30.5v143h54l15 -100q12 -11 33 -20t50 -9q47 0 70 28.5t23 77.5q0 136 -175 136h-48v59l149 219v17q-61 16 -121 16q-108 0 -152.5 -59t-44.5 -172v-311l83 -15v-44h-251v44l82 15v283q0 149 75.5 233.5t227.5 84.5q44 0 101.5 -7t109.5 -21v-62
l-149 -209v-10q86 -3 142.5 -45t56.5 -129q0 -59 -26.5 -101t-69.5 -64t-90 -22q-39 0 -83 13.5z" />
    <glyph glyph-name="uni1EA0" unicode="&#x1ea0;" horiz-adv-x="608" 
d="M0 0zM-9 41l63 16l221 596h48l230 -596l64 -16v-41h-239v41l71 16v18l-43 111h-241l-39 -111v-18l76 -16v-41h-211v41zM385 243l-97 257l-4 11l-2 5l-6 -18l-91 -255h200zM260.5 -155q-15.5 17 -15.5 45q0 27 17.5 46.5t43.5 19.5t41 -16t15 -44t-16.5 -48t-44.5 -20
q-25 0 -40.5 17z" />
    <glyph glyph-name="uni1EA1" unicode="&#x1ea1;" horiz-adv-x="480" 
d="M38 0zM73 28q-35 35 -35 89q0 126 179 151l90 13v75q0 84 -98 84q-22 0 -39.5 -3.5l-22.5 -4.5l-15 -92q0 -1 -9 -4t-23 -3q-18 0 -32 13t-14 33q0 38 37 66.5t86.5 43.5t80.5 15q63 0 97 -32.5t34 -82.5v-321l71 -14v-38q-4 -2 -18 -6.5t-36 -9t-46 -4.5q-44 0 -48 46
h-4q-13 -14 -49.5 -31.5t-78.5 -17.5q-72 0 -107 35zM260 60q20 4 32 8.5t15 5.5v159q-95 -7 -138 -30.5t-43 -70.5q0 -32 24.5 -54t67.5 -22q22 0 42 4zM196.5 -155q-15.5 17 -15.5 45q0 27 17.5 46.5t43.5 19.5t41 -16t15 -44t-16.5 -48t-44.5 -20q-25 0 -40.5 17z" />
    <glyph glyph-name="uni1EA2" unicode="&#x1ea2;" horiz-adv-x="608" 
d="M0 0zM-9 41l63 16l221 596h48l230 -596l64 -16v-41h-239v41l71 16v18l-43 111h-241l-39 -111v-18l76 -16v-41h-211v41zM385 243l-97 257l-4 11l-2 5l-6 -18l-91 -255h200zM270 695q0 11 9 20t29 16q19 7 27 15t8 19q0 20 -49 20q-29 0 -63 -8q-9 17 -9 32t11.5 22.5
t48.5 7.5q60 0 94.5 -18t34.5 -52q0 -48 -58 -66q-17 -5 -22 -11t-5 -15h-51q-5 12 -5 18z" />
    <glyph glyph-name="uni1EA3" unicode="&#x1ea3;" horiz-adv-x="480" 
d="M38 0zM73 28q-35 35 -35 89q0 126 179 151l90 13v75q0 84 -98 84q-22 0 -39.5 -3.5l-22.5 -4.5l-15 -92q0 -1 -9 -4t-23 -3q-18 0 -32 13t-14 33q0 38 37 66.5t86.5 43.5t80.5 15q63 0 97 -32.5t34 -82.5v-321l71 -14v-38q-4 -2 -18 -6.5t-36 -9t-46 -4.5q-44 0 -48 46
h-4q-13 -14 -49.5 -31.5t-78.5 -17.5q-72 0 -107 35zM260 60q20 4 32 8.5t15 5.5v159q-95 -7 -138 -30.5t-43 -70.5q0 -32 24.5 -54t67.5 -22q22 0 42 4zM206 568q0 13 9 22t29 18q20 10 27.5 17.5t7.5 18.5q0 26 -49 26q-29 0 -63 -8q-9 17 -9 32t11.5 22.5t48.5 7.5
q60 0 94.5 -21t34.5 -61q0 -22 -14.5 -36.5t-43.5 -27.5q-18 -8 -22.5 -14t-4.5 -17v-5l-47 -6q-9 20 -9 32z" />
    <glyph glyph-name="uni1EA4" unicode="&#x1ea4;" horiz-adv-x="608" 
d="M0 0zM-9 41l63 16l221 596h48l230 -596l64 -16v-41h-239v41l71 16v18l-43 111h-241l-39 -111v-18l76 -16v-41h-211v41zM385 243l-97 257l-4 11l-2 5l-6 -18l-91 -255h200zM227 780l29 23q16 14 28 22.5t19 8.5q9 0 20 -7.5t35 -28.5q8 -6 22 -18l74 -61l-33 -41l-122 65
l-126 -63l-25 36zM344 844l131 98q12 9 23.5 15.5t18.5 6.5q15 0 27 -18t15 -51l-193 -86z" />
    <glyph glyph-name="uni1EA5" unicode="&#x1ea5;" horiz-adv-x="480" 
d="M38 0zM73 28q-35 35 -35 89q0 126 179 151l90 13v75q0 84 -98 84q-22 0 -39.5 -3.5l-22.5 -4.5l-15 -92q0 -1 -9 -4t-23 -3q-18 0 -32 13t-14 33q0 38 37 66.5t86.5 43.5t80.5 15q63 0 97 -32.5t34 -82.5v-321l71 -14v-38q-4 -2 -18 -6.5t-36 -9t-46 -4.5q-44 0 -48 46
h-4q-13 -14 -49.5 -31.5t-78.5 -17.5q-72 0 -107 35zM260 60q20 4 32 8.5t15 5.5v159q-95 -7 -138 -30.5t-43 -70.5q0 -32 24.5 -54t67.5 -22q22 0 42 4zM169 683q27 27 46 27q17 0 38 -21l106 -110l-35 -35l-118 84l-115 -83l-28 32zM403 809q15 16 23.5 23.5t18.5 7.5
q14 0 28 -16.5t23 -45.5l-174 -120l-28 30z" />
    <glyph glyph-name="uni1EA6" unicode="&#x1ea6;" horiz-adv-x="608" 
d="M0 0zM-9 41l63 16l221 596h48l230 -596l64 -16v-41h-239v41l71 16v18l-43 111h-241l-39 -111v-18l76 -16v-41h-211v41zM385 243l-97 257l-4 11l-2 5l-6 -18l-91 -255h200zM229 780l29 23q16 14 28 22.5t19 8.5q9 0 20 -7.5t35 -28.5q8 -6 22 -18l74 -61l-33 -41l-122 65
l-126 -63l-25 36zM296 895q3 33 15 51t27 18q7 0 18.5 -6.5t23.5 -15.5l131 -98l-22 -35z" />
    <glyph glyph-name="uni1EA7" unicode="&#x1ea7;" horiz-adv-x="480" 
d="M38 0zM73 28q-35 35 -35 89q0 126 179 151l90 13v75q0 84 -98 84q-22 0 -39.5 -3.5l-22.5 -4.5l-15 -92q0 -1 -9 -4t-23 -3q-18 0 -32 13t-14 33q0 38 37 66.5t86.5 43.5t80.5 15q63 0 97 -32.5t34 -82.5v-321l71 -14v-38q-4 -2 -18 -6.5t-36 -9t-46 -4.5q-44 0 -48 46
h-4q-13 -14 -49.5 -31.5t-78.5 -17.5q-72 0 -107 35zM260 60q20 4 32 8.5t15 5.5v159q-95 -7 -138 -30.5t-43 -70.5q0 -32 24.5 -54t67.5 -22q22 0 42 4zM185 683q27 27 46 27q17 0 38 -21l106 -110l-35 -35l-118 84l-115 -83l-28 32zM221 823.5q14 16.5 28 16.5
q10 0 18.5 -7.5t23.5 -23.5l109 -121l-28 -30l-174 120q9 29 23 45.5z" />
    <glyph glyph-name="uni1EA8" unicode="&#x1ea8;" horiz-adv-x="608" 
d="M0 0zM-9 41l63 16l221 596h48l230 -596l64 -16v-41h-239v41l71 16v18l-43 111h-241l-39 -111v-18l76 -16v-41h-211v41zM385 243l-97 257l-4 11l-2 5l-6 -18l-91 -255h200zM221 780l29 23q16 14 28 22.5t19 8.5q9 0 20 -7.5t35 -28.5q8 -6 22 -18l74 -61l-33 -41l-122 65
l-126 -63l-25 36zM384 812q0 11 9 20t29 16q19 7 27 15t8 19q0 20 -49 20q-29 0 -63 -8q-9 17 -9 32t11.5 22.5t48.5 7.5q60 0 94.5 -18t34.5 -52q0 -48 -58 -66q-17 -5 -22 -11t-5 -15h-51q-5 12 -5 18z" />
    <glyph glyph-name="uni1EA9" unicode="&#x1ea9;" horiz-adv-x="480" 
d="M38 0zM73 28q-35 35 -35 89q0 126 179 151l90 13v75q0 84 -98 84q-22 0 -39.5 -3.5l-22.5 -4.5l-15 -92q0 -1 -9 -4t-23 -3q-18 0 -32 13t-14 33q0 38 37 66.5t86.5 43.5t80.5 15q63 0 97 -32.5t34 -82.5v-321l71 -14v-38q-4 -2 -18 -6.5t-36 -9t-46 -4.5q-44 0 -48 46
h-4q-13 -14 -49.5 -31.5t-78.5 -17.5q-72 0 -107 35zM260 60q20 4 32 8.5t15 5.5v159q-95 -7 -138 -30.5t-43 -70.5q0 -32 24.5 -54t67.5 -22q22 0 42 4zM174 683q27 27 46 27q17 0 38 -21l106 -110l-35 -35l-118 84l-115 -83l-28 32zM310 691q0 13 9 22t29 18
q20 10 27.5 17.5t7.5 18.5q0 26 -49 26q-29 0 -63 -8q-9 17 -9 32t11.5 22.5t48.5 7.5q60 0 94.5 -21t34.5 -61q0 -22 -14.5 -36.5t-43.5 -27.5q-18 -8 -22.5 -14t-4.5 -17v-5l-47 -6q-9 20 -9 32z" />
    <glyph glyph-name="uni1EAA" unicode="&#x1eaa;" horiz-adv-x="608" 
d="M0 0zM-9 41l63 16l221 596h48l230 -596l64 -16v-41h-239v41l71 16v18l-43 111h-241l-39 -111v-18l76 -16v-41h-211v41zM385 243l-97 257l-4 11l-2 5l-6 -18l-91 -255h200zM228 780l29 23q16 14 28 22.5t19 8.5q9 0 20 -7.5t35 -28.5q8 -6 22 -18l74 -61l-33 -41l-122 65
l-126 -63l-25 36zM311 869l-79 25l-80 -36l-23 26l37 49q21 29 61 29q23 0 70 -15l79 -25l80 36l23 -26l-37 -49q-21 -29 -61 -29q-23 0 -70 15z" />
    <glyph glyph-name="uni1EAB" unicode="&#x1eab;" horiz-adv-x="480" 
d="M38 0zM73 28q-35 35 -35 89q0 126 179 151l90 13v75q0 84 -98 84q-22 0 -39.5 -3.5l-22.5 -4.5l-15 -92q0 -1 -9 -4t-23 -3q-18 0 -32 13t-14 33q0 38 37 66.5t86.5 43.5t80.5 15q63 0 97 -32.5t34 -82.5v-321l71 -14v-38q-4 -2 -18 -6.5t-36 -9t-46 -4.5q-44 0 -48 46
h-4q-13 -14 -49.5 -31.5t-78.5 -17.5q-72 0 -107 35zM260 60q20 4 32 8.5t15 5.5v159q-95 -7 -138 -30.5t-43 -70.5q0 -32 24.5 -54t67.5 -22q22 0 42 4zM196 683q27 27 46 27q17 0 38 -21l106 -110l-35 -35l-118 84l-115 -83l-28 32zM127 829.5q17 9.5 36 9.5q18 0 42.5 -7
t28.5 -8l84 -25l68 34l22 -20l-28 -47q-10 -17 -27 -26.5t-36 -9.5q-18 0 -42.5 7t-28.5 8l-84 25l-68 -34l-22 20l28 47q10 17 27 26.5z" />
    <glyph glyph-name="uni1EAC" unicode="&#x1eac;" horiz-adv-x="608" 
d="M0 0zM-9 41l63 16l221 596h48l230 -596l64 -16v-41h-239v41l71 16v18l-43 111h-241l-39 -111v-18l76 -16v-41h-211v41zM385 243l-97 257l-4 11l-2 5l-6 -18l-91 -255h200zM260.5 -155q-15.5 17 -15.5 45q0 27 17.5 46.5t43.5 19.5t41 -16t15 -44t-16.5 -48t-44.5 -20
q-25 0 -40.5 17zM230 780l29 23q16 14 28 22.5t19 8.5q9 0 20 -7.5t35 -28.5q8 -6 22 -18l74 -61l-33 -41l-122 65l-126 -63l-25 36z" />
    <glyph glyph-name="uni1EAD" unicode="&#x1ead;" horiz-adv-x="480" 
d="M38 0zM73 28q-35 35 -35 89q0 126 179 151l90 13v75q0 84 -98 84q-22 0 -39.5 -3.5l-22.5 -4.5l-15 -92q0 -1 -9 -4t-23 -3q-18 0 -32 13t-14 33q0 38 37 66.5t86.5 43.5t80.5 15q63 0 97 -32.5t34 -82.5v-321l71 -14v-38q-4 -2 -18 -6.5t-36 -9t-46 -4.5q-44 0 -48 46
h-4q-13 -14 -49.5 -31.5t-78.5 -17.5q-72 0 -107 35zM260 60q20 4 32 8.5t15 5.5v159q-95 -7 -138 -30.5t-43 -70.5q0 -32 24.5 -54t67.5 -22q22 0 42 4zM196.5 -155q-15.5 17 -15.5 45q0 27 17.5 46.5t43.5 19.5t41 -16t15 -44t-16.5 -48t-44.5 -20q-25 0 -40.5 17z
M198 683q27 27 46 27q17 0 38 -21l106 -110l-35 -35l-118 84l-115 -83l-28 32z" />
    <glyph glyph-name="uni1EAE" unicode="&#x1eae;" horiz-adv-x="608" 
d="M0 0zM-9 41l63 16l221 596h48l230 -596l64 -16v-41h-239v41l71 16v18l-43 111h-241l-39 -111v-18l76 -16v-41h-211v41zM385 243l-97 257l-4 11l-2 5l-6 -18l-91 -255h200zM222.5 800q8.5 -17 27.5 -32t48 -15q35 0 58 15t34.5 32.5t11.5 20.5l31 -8q0 -7 -13 -37t-44 -57
t-81 -27q-58 0 -89 26t-41.5 53t-10.5 37l60 13q0 -4 8.5 -21zM238 849l131 98q12 9 23.5 15.5t18.5 6.5q15 0 27 -18t15 -51l-193 -86z" />
    <glyph glyph-name="uni1EAF" unicode="&#x1eaf;" horiz-adv-x="480" 
d="M38 0zM73 28q-35 35 -35 89q0 126 179 151l90 13v75q0 84 -98 84q-22 0 -39.5 -3.5l-22.5 -4.5l-15 -92q0 -1 -9 -4t-23 -3q-18 0 -32 13t-14 33q0 38 37 66.5t86.5 43.5t80.5 15q63 0 97 -32.5t34 -82.5v-321l71 -14v-38q-4 -2 -18 -6.5t-36 -9t-46 -4.5q-44 0 -48 46
h-4q-13 -14 -49.5 -31.5t-78.5 -17.5q-72 0 -107 35zM260 60q20 4 32 8.5t15 5.5v159q-95 -7 -138 -30.5t-43 -70.5q0 -32 24.5 -54t67.5 -22q22 0 42 4zM147 678q8 -21 32 -40.5t69 -19.5q44 0 68 20t32 41.5t8 28.5l34 -8q0 -14 -9.5 -48t-42.5 -66.5t-97 -32.5t-98 31
t-44.5 64t-10.5 45l51 13q0 -7 8 -28zM299 830q15 16 23.5 23.5t18.5 7.5q14 0 28 -16.5t23 -45.5l-174 -120l-28 30z" />
    <glyph glyph-name="uni1EB0" unicode="&#x1eb0;" horiz-adv-x="608" 
d="M0 0zM-9 41l63 16l221 596h48l230 -596l64 -16v-41h-239v41l71 16v18l-43 111h-241l-39 -111v-18l76 -16v-41h-211v41zM385 243l-97 257l-4 11l-2 5l-6 -18l-91 -255h200zM233.5 800q8.5 -17 27.5 -32t48 -15q35 0 58 15t34.5 32.5t11.5 20.5l31 -8q0 -7 -13 -37t-44 -57
t-81 -27q-58 0 -89 26t-41.5 53t-10.5 37l60 13q0 -4 8.5 -21zM164 900q3 33 15 51t27 18q7 0 18.5 -6.5t23.5 -15.5l131 -98l-22 -35z" />
    <glyph glyph-name="uni1EB1" unicode="&#x1eb1;" horiz-adv-x="480" 
d="M38 0zM73 28q-35 35 -35 89q0 126 179 151l90 13v75q0 84 -98 84q-22 0 -39.5 -3.5l-22.5 -4.5l-15 -92q0 -1 -9 -4t-23 -3q-18 0 -32 13t-14 33q0 38 37 66.5t86.5 43.5t80.5 15q63 0 97 -32.5t34 -82.5v-321l71 -14v-38q-4 -2 -18 -6.5t-36 -9t-46 -4.5q-44 0 -48 46
h-4q-13 -14 -49.5 -31.5t-78.5 -17.5q-72 0 -107 35zM260 60q20 4 32 8.5t15 5.5v159q-95 -7 -138 -30.5t-43 -70.5q0 -32 24.5 -54t67.5 -22q22 0 42 4zM148 678q8 -21 32 -40.5t69 -19.5q44 0 68 20t32 41.5t8 28.5l34 -8q0 -14 -9.5 -48t-42.5 -66.5t-97 -32.5t-98 31
t-44.5 64t-10.5 45l51 13q0 -7 8 -28zM124 844.5q14 16.5 28 16.5q10 0 18.5 -7.5t23.5 -23.5l109 -121l-28 -30l-174 120q9 29 23 45.5z" />
    <glyph glyph-name="uni1EB2" unicode="&#x1eb2;" horiz-adv-x="608" 
d="M0 0zM-9 41l63 16l221 596h48l230 -596l64 -16v-41h-239v41l71 16v18l-43 111h-241l-39 -111v-18l76 -16v-41h-211v41zM385 243l-97 257l-4 11l-2 5l-6 -18l-91 -255h200zM232.5 800q8.5 -17 27.5 -32t48 -15q35 0 58 15t34.5 32.5t11.5 20.5l31 -8q0 -7 -13 -37t-44 -57
t-81 -27q-58 0 -89 26t-41.5 53t-10.5 37l60 13q0 -4 8.5 -21zM272 818q0 11 9 20t29 16q19 7 27 15t8 19q0 20 -49 20q-29 0 -63 -8q-9 17 -9 32t11.5 22.5t48.5 7.5q60 0 94.5 -18t34.5 -52q0 -48 -58 -66q-17 -5 -22 -11t-5 -15h-51q-5 12 -5 18z" />
    <glyph glyph-name="uni1EB3" unicode="&#x1eb3;" horiz-adv-x="480" 
d="M38 0zM73 28q-35 35 -35 89q0 126 179 151l90 13v75q0 84 -98 84q-22 0 -39.5 -3.5l-22.5 -4.5l-15 -92q0 -1 -9 -4t-23 -3q-18 0 -32 13t-14 33q0 38 37 66.5t86.5 43.5t80.5 15q63 0 97 -32.5t34 -82.5v-321l71 -14v-38q-4 -2 -18 -6.5t-36 -9t-46 -4.5q-44 0 -48 46
h-4q-13 -14 -49.5 -31.5t-78.5 -17.5q-72 0 -107 35zM260 60q20 4 32 8.5t15 5.5v159q-95 -7 -138 -30.5t-43 -70.5q0 -32 24.5 -54t67.5 -22q22 0 42 4zM148 678q8 -21 32 -40.5t69 -19.5q44 0 68 20t32 41.5t8 28.5l34 -8q0 -14 -9.5 -48t-42.5 -66.5t-97 -32.5t-98 31
t-44.5 64t-10.5 45l51 13q0 -7 8 -28zM208 712q0 13 9 22t29 18q20 10 27.5 17.5t7.5 18.5q0 26 -49 26q-29 0 -63 -8q-9 17 -9 32t11.5 22.5t48.5 7.5q60 0 94.5 -21t34.5 -61q0 -22 -14.5 -36.5t-43.5 -27.5q-18 -8 -22.5 -14t-4.5 -17v-5l-47 -6q-9 20 -9 32z" />
    <glyph glyph-name="uni1EB4" unicode="&#x1eb4;" horiz-adv-x="608" 
d="M0 0zM-9 41l63 16l221 596h48l230 -596l64 -16v-41h-239v41l71 16v18l-43 111h-241l-39 -111v-18l76 -16v-41h-211v41zM385 243l-97 257l-4 11l-2 5l-6 -18l-91 -255h200zM230.5 800q8.5 -17 27.5 -32t48 -15q35 0 58 15t34.5 32.5t11.5 20.5l31 -8q0 -7 -13 -37t-44 -57
t-81 -27q-58 0 -89 26t-41.5 53t-10.5 37l60 13q0 -4 8.5 -21zM311 856l-79 25l-80 -36l-23 26l37 49q21 29 61 29q23 0 70 -15l79 -25l80 36l23 -26l-37 -49q-21 -29 -61 -29q-23 0 -70 15z" />
    <glyph glyph-name="uni1EB5" unicode="&#x1eb5;" horiz-adv-x="480" 
d="M38 0zM73 28q-35 35 -35 89q0 126 179 151l90 13v75q0 84 -98 84q-22 0 -39.5 -3.5l-22.5 -4.5l-15 -92q0 -1 -9 -4t-23 -3q-18 0 -32 13t-14 33q0 38 37 66.5t86.5 43.5t80.5 15q63 0 97 -32.5t34 -82.5v-321l71 -14v-38q-4 -2 -18 -6.5t-36 -9t-46 -4.5q-44 0 -48 46
h-4q-13 -14 -49.5 -31.5t-78.5 -17.5q-72 0 -107 35zM260 60q20 4 32 8.5t15 5.5v159q-95 -7 -138 -30.5t-43 -70.5q0 -32 24.5 -54t67.5 -22q22 0 42 4zM146 678q8 -21 32 -40.5t69 -19.5q44 0 68 20t32 41.5t8 28.5l34 -8q0 -14 -9.5 -48t-42.5 -66.5t-97 -32.5t-98 31
t-44.5 64t-10.5 45l51 13q0 -7 8 -28zM127 827.5q17 9.5 36 9.5q18 0 42.5 -7t28.5 -8l84 -25l68 34l22 -20l-28 -47q-10 -17 -27 -26.5t-36 -9.5q-18 0 -42.5 7t-28.5 8l-84 25l-68 -34l-22 20l28 47q10 17 27 26.5z" />
    <glyph glyph-name="uni1EB6" unicode="&#x1eb6;" horiz-adv-x="608" 
d="M0 0zM-9 41l63 16l221 596h48l230 -596l64 -16v-41h-239v41l71 16v18l-43 111h-241l-39 -111v-18l76 -16v-41h-211v41zM385 243l-97 257l-4 11l-2 5l-6 -18l-91 -255h200zM260.5 -155q-15.5 17 -15.5 45q0 27 17.5 46.5t43.5 19.5t41 -16t15 -44t-16.5 -48t-44.5 -20
q-25 0 -40.5 17zM232.5 800q8.5 -17 27.5 -32t48 -15q35 0 58 15t34.5 32.5t11.5 20.5l31 -8q0 -7 -13 -37t-44 -57t-81 -27q-58 0 -89 26t-41.5 53t-10.5 37l60 13q0 -4 8.5 -21z" />
    <glyph glyph-name="uni1EB7" unicode="&#x1eb7;" horiz-adv-x="480" 
d="M38 0zM73 28q-35 35 -35 89q0 126 179 151l90 13v75q0 84 -98 84q-22 0 -39.5 -3.5l-22.5 -4.5l-15 -92q0 -1 -9 -4t-23 -3q-18 0 -32 13t-14 33q0 38 37 66.5t86.5 43.5t80.5 15q63 0 97 -32.5t34 -82.5v-321l71 -14v-38q-4 -2 -18 -6.5t-36 -9t-46 -4.5q-44 0 -48 46
h-4q-13 -14 -49.5 -31.5t-78.5 -17.5q-72 0 -107 35zM260 60q20 4 32 8.5t15 5.5v159q-95 -7 -138 -30.5t-43 -70.5q0 -32 24.5 -54t67.5 -22q22 0 42 4zM196.5 -155q-15.5 17 -15.5 45q0 27 17.5 46.5t43.5 19.5t41 -16t15 -44t-16.5 -48t-44.5 -20q-25 0 -40.5 17z
M148 678q8 -21 32 -40.5t69 -19.5q44 0 68 20t32 41.5t8 28.5l34 -8q0 -14 -9.5 -48t-42.5 -66.5t-97 -32.5t-98 31t-44.5 64t-10.5 45l51 13q0 -7 8 -28z" />
    <glyph glyph-name="uni1EB8" unicode="&#x1eb8;" horiz-adv-x="572" 
d="M55 0zM138 60v528l-83 17v43h458v-164h-49l-21 109h-121l-98 -6v-229h158l15 59h42v-171h-42l-15 59h-158v-238q19 -4 49 -7t58 -3h120l22 107h49v-164h-467v43zM242.5 -155q-15.5 17 -15.5 45q0 27 17.5 46.5t43.5 19.5t41 -16t15 -44t-16.5 -48t-44.5 -20
q-25 0 -40.5 17z" />
    <glyph glyph-name="uni1EB9" unicode="&#x1eb9;" horiz-adv-x="459" 
d="M25 0zM80 59q-55 68 -55 174q0 79 28.5 140.5t79.5 96t115 34.5q82 0 123 -53t41 -129q0 -53 -10 -71t-38 -18h-251q0 -76 37.5 -124t119.5 -48q35 0 61.5 5.5t41 11t17.5 7.5l14 -28q0 -2 -22.5 -19.5t-59 -32t-82.5 -14.5q-105 0 -160 68zM328 287q3 18 3 40
q0 60 -21.5 89.5t-76.5 29.5q-60 0 -89 -42t-30 -125zM199.5 -155q-15.5 17 -15.5 45q0 27 17.5 46.5t43.5 19.5t41 -16t15 -44t-16.5 -48t-44.5 -20q-25 0 -40.5 17z" />
    <glyph glyph-name="uni1EBA" unicode="&#x1eba;" horiz-adv-x="572" 
d="M55 0zM138 60v528l-83 17v43h458v-164h-49l-21 109h-121l-98 -6v-229h158l15 59h42v-171h-42l-15 59h-158v-238q19 -4 49 -7t58 -3h120l22 107h49v-164h-467v43zM286 695q0 11 9 20t29 16q19 7 27 15t8 19q0 20 -49 20q-29 0 -63 -8q-9 17 -9 32t11.5 22.5t48.5 7.5
q60 0 94.5 -18t34.5 -52q0 -48 -58 -66q-17 -5 -22 -11t-5 -15h-51q-5 12 -5 18z" />
    <glyph glyph-name="uni1EBB" unicode="&#x1ebb;" horiz-adv-x="459" 
d="M25 0zM80 59q-55 68 -55 174q0 79 28.5 140.5t79.5 96t115 34.5q82 0 123 -53t41 -129q0 -53 -10 -71t-38 -18h-251q0 -76 37.5 -124t119.5 -48q35 0 61.5 5.5t41 11t17.5 7.5l14 -28q0 -2 -22.5 -19.5t-59 -32t-82.5 -14.5q-105 0 -160 68zM328 287q3 18 3 40
q0 60 -21.5 89.5t-76.5 29.5q-60 0 -89 -42t-30 -125zM209 568q0 13 9 22t29 18q20 10 27.5 17.5t7.5 18.5q0 26 -49 26q-29 0 -63 -8q-9 17 -9 32t11.5 22.5t48.5 7.5q60 0 94.5 -21t34.5 -61q0 -22 -14.5 -36.5t-43.5 -27.5q-18 -8 -22.5 -14t-4.5 -17v-5l-47 -6
q-9 20 -9 32z" />
    <glyph glyph-name="uni1EBC" unicode="&#x1ebc;" horiz-adv-x="572" 
d="M55 0zM138 60v528l-83 17v43h458v-164h-49l-21 109h-121l-98 -6v-229h158l15 59h42v-171h-42l-15 59h-158v-238q19 -4 49 -7t58 -3h120l22 107h49v-164h-467v43zM327 713l-79 25l-80 -36l-23 26l37 49q21 29 61 29q23 0 70 -15l79 -25l80 36l23 -26l-37 -49
q-21 -29 -61 -29q-23 0 -70 15z" />
    <glyph glyph-name="uni1EBD" unicode="&#x1ebd;" horiz-adv-x="459" 
d="M25 0zM80 59q-55 68 -55 174q0 79 28.5 140.5t79.5 96t115 34.5q82 0 123 -53t41 -129q0 -53 -10 -71t-38 -18h-251q0 -76 37.5 -124t119.5 -48q35 0 61.5 5.5t41 11t17.5 7.5l14 -28q0 -2 -22.5 -19.5t-59 -32t-82.5 -14.5q-105 0 -160 68zM328 287q3 18 3 40
q0 60 -21.5 89.5t-76.5 29.5q-60 0 -89 -42t-30 -125zM130 673.5q17 9.5 36 9.5q18 0 42.5 -7t28.5 -8l84 -25l68 34l22 -20l-28 -47q-10 -17 -27 -26.5t-36 -9.5q-18 0 -42.5 7t-28.5 8l-84 25l-68 -34l-22 20l28 47q10 17 27 26.5z" />
    <glyph glyph-name="uni1EBE" unicode="&#x1ebe;" horiz-adv-x="572" 
d="M55 0zM138 60v528l-83 17v43h458v-164h-49l-21 109h-121l-98 -6v-229h158l15 59h42v-171h-42l-15 59h-158v-238q19 -4 49 -7t58 -3h120l22 107h49v-164h-467v43zM243 780l29 23q16 14 28 22.5t19 8.5q9 0 20 -7.5t35 -28.5q8 -6 22 -18l74 -61l-33 -41l-122 65l-126 -63
l-25 36zM360 844l131 98q12 9 23.5 15.5t18.5 6.5q15 0 27 -18t15 -51l-193 -86z" />
    <glyph glyph-name="uni1EBF" unicode="&#x1ebf;" horiz-adv-x="459" 
d="M25 0zM80 59q-55 68 -55 174q0 79 28.5 140.5t79.5 96t115 34.5q82 0 123 -53t41 -129q0 -53 -10 -71t-38 -18h-251q0 -76 37.5 -124t119.5 -48q35 0 61.5 5.5t41 11t17.5 7.5l14 -28q0 -2 -22.5 -19.5t-59 -32t-82.5 -14.5q-105 0 -160 68zM328 287q3 18 3 40
q0 60 -21.5 89.5t-76.5 29.5q-60 0 -89 -42t-30 -125zM172 683q27 27 46 27q17 0 38 -21l106 -110l-35 -35l-118 84l-115 -83l-28 32zM406 809q15 16 23.5 23.5t18.5 7.5q14 0 28 -16.5t23 -45.5l-174 -120l-28 30z" />
    <glyph glyph-name="uni1EC0" unicode="&#x1ec0;" horiz-adv-x="572" 
d="M55 0zM138 60v528l-83 17v43h458v-164h-49l-21 109h-121l-98 -6v-229h158l15 59h42v-171h-42l-15 59h-158v-238q19 -4 49 -7t58 -3h120l22 107h49v-164h-467v43zM245 780l29 23q16 14 28 22.5t19 8.5q9 0 20 -7.5t35 -28.5q8 -6 22 -18l74 -61l-33 -41l-122 65l-126 -63
l-25 36zM312 895q3 33 15 51t27 18q7 0 18.5 -6.5t23.5 -15.5l131 -98l-22 -35z" />
    <glyph glyph-name="uni1EC1" unicode="&#x1ec1;" horiz-adv-x="459" 
d="M25 0zM80 59q-55 68 -55 174q0 79 28.5 140.5t79.5 96t115 34.5q82 0 123 -53t41 -129q0 -53 -10 -71t-38 -18h-251q0 -76 37.5 -124t119.5 -48q35 0 61.5 5.5t41 11t17.5 7.5l14 -28q0 -2 -22.5 -19.5t-59 -32t-82.5 -14.5q-105 0 -160 68zM328 287q3 18 3 40
q0 60 -21.5 89.5t-76.5 29.5q-60 0 -89 -42t-30 -125zM188 683q27 27 46 27q17 0 38 -21l106 -110l-35 -35l-118 84l-115 -83l-28 32zM224 823.5q14 16.5 28 16.5q10 0 18.5 -7.5t23.5 -23.5l109 -121l-28 -30l-174 120q9 29 23 45.5z" />
    <glyph glyph-name="uni1EC2" unicode="&#x1ec2;" horiz-adv-x="572" 
d="M55 0zM138 60v528l-83 17v43h458v-164h-49l-21 109h-121l-98 -6v-229h158l15 59h42v-171h-42l-15 59h-158v-238q19 -4 49 -7t58 -3h120l22 107h49v-164h-467v43zM237 780l29 23q16 14 28 22.5t19 8.5q9 0 20 -7.5t35 -28.5q8 -6 22 -18l74 -61l-33 -41l-122 65l-126 -63
l-25 36zM400 812q0 11 9 20t29 16q19 7 27 15t8 19q0 20 -49 20q-29 0 -63 -8q-9 17 -9 32t11.5 22.5t48.5 7.5q60 0 94.5 -18t34.5 -52q0 -48 -58 -66q-17 -5 -22 -11t-5 -15h-51q-5 12 -5 18z" />
    <glyph glyph-name="uni1EC3" unicode="&#x1ec3;" horiz-adv-x="459" 
d="M25 0zM80 59q-55 68 -55 174q0 79 28.5 140.5t79.5 96t115 34.5q82 0 123 -53t41 -129q0 -53 -10 -71t-38 -18h-251q0 -76 37.5 -124t119.5 -48q35 0 61.5 5.5t41 11t17.5 7.5l14 -28q0 -2 -22.5 -19.5t-59 -32t-82.5 -14.5q-105 0 -160 68zM328 287q3 18 3 40
q0 60 -21.5 89.5t-76.5 29.5q-60 0 -89 -42t-30 -125zM177 683q27 27 46 27q17 0 38 -21l106 -110l-35 -35l-118 84l-115 -83l-28 32zM313 691q0 13 9 22t29 18q20 10 27.5 17.5t7.5 18.5q0 26 -49 26q-29 0 -63 -8q-9 17 -9 32t11.5 22.5t48.5 7.5q60 0 94.5 -21t34.5 -61
q0 -22 -14.5 -36.5t-43.5 -27.5q-18 -8 -22.5 -14t-4.5 -17v-5l-47 -6q-9 20 -9 32z" />
    <glyph glyph-name="uni1EC4" unicode="&#x1ec4;" horiz-adv-x="572" 
d="M55 0zM138 60v528l-83 17v43h458v-164h-49l-21 109h-121l-98 -6v-229h158l15 59h42v-171h-42l-15 59h-158v-238q19 -4 49 -7t58 -3h120l22 107h49v-164h-467v43zM244 780l29 23q16 14 28 22.5t19 8.5q9 0 20 -7.5t35 -28.5q8 -6 22 -18l74 -61l-33 -41l-122 65l-126 -63
l-25 36zM327 869l-79 25l-80 -36l-23 26l37 49q21 29 61 29q23 0 70 -15l79 -25l80 36l23 -26l-37 -49q-21 -29 -61 -29q-23 0 -70 15z" />
    <glyph glyph-name="uni1EC5" unicode="&#x1ec5;" horiz-adv-x="459" 
d="M25 0zM80 59q-55 68 -55 174q0 79 28.5 140.5t79.5 96t115 34.5q82 0 123 -53t41 -129q0 -53 -10 -71t-38 -18h-251q0 -76 37.5 -124t119.5 -48q35 0 61.5 5.5t41 11t17.5 7.5l14 -28q0 -2 -22.5 -19.5t-59 -32t-82.5 -14.5q-105 0 -160 68zM328 287q3 18 3 40
q0 60 -21.5 89.5t-76.5 29.5q-60 0 -89 -42t-30 -125zM199 683q27 27 46 27q17 0 38 -21l106 -110l-35 -35l-118 84l-115 -83l-28 32zM130 829.5q17 9.5 36 9.5q18 0 42.5 -7t28.5 -8l84 -25l68 34l22 -20l-28 -47q-10 -17 -27 -26.5t-36 -9.5q-18 0 -42.5 7t-28.5 8l-84 25
l-68 -34l-22 20l28 47q10 17 27 26.5z" />
    <glyph glyph-name="uni1EC6" unicode="&#x1ec6;" horiz-adv-x="572" 
d="M55 0zM138 60v528l-83 17v43h458v-164h-49l-21 109h-121l-98 -6v-229h158l15 59h42v-171h-42l-15 59h-158v-238q19 -4 49 -7t58 -3h120l22 107h49v-164h-467v43zM242.5 -155q-15.5 17 -15.5 45q0 27 17.5 46.5t43.5 19.5t41 -16t15 -44t-16.5 -48t-44.5 -20
q-25 0 -40.5 17zM246 780l29 23q16 14 28 22.5t19 8.5q9 0 20 -7.5t35 -28.5q8 -6 22 -18l74 -61l-33 -41l-122 65l-126 -63l-25 36z" />
    <glyph glyph-name="uni1EC7" unicode="&#x1ec7;" horiz-adv-x="459" 
d="M25 0zM80 59q-55 68 -55 174q0 79 28.5 140.5t79.5 96t115 34.5q82 0 123 -53t41 -129q0 -53 -10 -71t-38 -18h-251q0 -76 37.5 -124t119.5 -48q35 0 61.5 5.5t41 11t17.5 7.5l14 -28q0 -2 -22.5 -19.5t-59 -32t-82.5 -14.5q-105 0 -160 68zM328 287q3 18 3 40
q0 60 -21.5 89.5t-76.5 29.5q-60 0 -89 -42t-30 -125zM199.5 -155q-15.5 17 -15.5 45q0 27 17.5 46.5t43.5 19.5t41 -16t15 -44t-16.5 -48t-44.5 -20q-25 0 -40.5 17zM201 683q27 27 46 27q17 0 38 -21l106 -110l-35 -35l-118 84l-115 -83l-28 32z" />
    <glyph glyph-name="uni1EC8" unicode="&#x1ec8;" horiz-adv-x="369" 
d="M59 0zM59 44l82 15v530l-82 15v44h251v-44l-82 -15v-530l82 -15v-44h-251v44zM151 695q0 11 9 20t29 16q19 7 27 15t8 19q0 20 -49 20q-29 0 -63 -8q-9 17 -9 32t11.5 22.5t48.5 7.5q60 0 94.5 -18t34.5 -52q0 -48 -58 -66q-17 -5 -22 -11t-5 -15h-51q-5 12 -5 18z" />
    <glyph glyph-name="uni1EC9" unicode="&#x1ec9;" horiz-adv-x="293" 
d="M28 0zM28 41l80 14v356l-80 14v41l139 28l23 -9v-430l78 -14v-41h-240v41zM115 568q0 13 9 22t29 18q20 10 27.5 17.5t7.5 18.5q0 26 -49 26q-29 0 -63 -8q-9 17 -9 32t11.5 22.5t48.5 7.5q60 0 94.5 -21t34.5 -61q0 -22 -14.5 -36.5t-43.5 -27.5q-18 -8 -22.5 -14
t-4.5 -17v-5l-47 -6q-9 20 -9 32z" />
    <glyph glyph-name="uni1ECA" unicode="&#x1eca;" horiz-adv-x="369" 
d="M59 0zM59 44l82 15v530l-82 15v44h251v-44l-82 -15v-530l82 -15v-44h-251v44zM141.5 -155q-15.5 17 -15.5 45q0 27 17.5 46.5t43.5 19.5t41 -16t15 -44t-16.5 -48t-44.5 -20q-25 0 -40.5 17z" />
    <glyph glyph-name="uni1ECB" unicode="&#x1ecb;" horiz-adv-x="293" 
d="M28 0zM98.5 585q-15.5 17 -15.5 45q0 27 17.5 46.5t43.5 19.5t41 -16t15 -44t-16.5 -48t-44.5 -20q-25 0 -40.5 17zM28 41l80 14v356l-80 14v41l139 28l23 -9v-430l78 -14v-41h-240v41zM105.5 -155q-15.5 17 -15.5 45q0 27 17.5 46.5t43.5 19.5t41 -16t15 -44t-16.5 -48
t-44.5 -20q-25 0 -40.5 17z" />
    <glyph glyph-name="uni1ECC" unicode="&#x1ecc;" horiz-adv-x="696" 
d="M45 0zM122 73.5q-77 86.5 -77 239.5q0 97 38 176t110.5 125t172.5 46q89 0 153 -40t98 -112.5t34 -169.5q0 -101 -32.5 -180t-101.5 -125t-173 -46q-145 0 -222 86.5zM505.5 114.5q44.5 70.5 44.5 204.5q0 112 -24.5 173.5t-67.5 84.5t-106 23q-67 0 -110 -18.5
t-69.5 -79.5t-26.5 -183q0 -147 54 -211t164 -64q97 0 141.5 70.5zM304.5 -155q-15.5 17 -15.5 45q0 27 17.5 46.5t43.5 19.5t41 -16t15 -44t-16.5 -48t-44.5 -20q-25 0 -40.5 17z" />
    <glyph glyph-name="uni1ECD" unicode="&#x1ecd;" horiz-adv-x="497" 
d="M25 0zM79.5 58q-54.5 67 -54.5 182q0 71 28 131.5t80 96.5t121 36q105 0 160 -64.5t55 -176.5q0 -77 -27 -139t-79.5 -97.5t-126.5 -35.5q-102 0 -156.5 67zM351 98q28 49 28 147q0 105 -29.5 153t-101.5 48q-54 0 -83 -23t-39.5 -65.5t-10.5 -112.5q0 -96 31.5 -146
t108.5 -50q68 0 96 49zM205.5 -155q-15.5 17 -15.5 45q0 27 17.5 46.5t43.5 19.5t41 -16t15 -44t-16.5 -48t-44.5 -20q-25 0 -40.5 17z" />
    <glyph glyph-name="uni1ECE" unicode="&#x1ece;" horiz-adv-x="696" 
d="M45 0zM122 73.5q-77 86.5 -77 239.5q0 97 38 176t110.5 125t172.5 46q89 0 153 -40t98 -112.5t34 -169.5q0 -101 -32.5 -180t-101.5 -125t-173 -46q-145 0 -222 86.5zM505.5 114.5q44.5 70.5 44.5 204.5q0 112 -24.5 173.5t-67.5 84.5t-106 23q-67 0 -110 -18.5
t-69.5 -79.5t-26.5 -183q0 -147 54 -211t164 -64q97 0 141.5 70.5zM314 695q0 11 9 20t29 16q19 7 27 15t8 19q0 20 -49 20q-29 0 -63 -8q-9 17 -9 32t11.5 22.5t48.5 7.5q60 0 94.5 -18t34.5 -52q0 -48 -58 -66q-17 -5 -22 -11t-5 -15h-51q-5 12 -5 18z" />
    <glyph glyph-name="uni1ECF" unicode="&#x1ecf;" horiz-adv-x="497" 
d="M25 0zM79.5 58q-54.5 67 -54.5 182q0 71 28 131.5t80 96.5t121 36q105 0 160 -64.5t55 -176.5q0 -77 -27 -139t-79.5 -97.5t-126.5 -35.5q-102 0 -156.5 67zM351 98q28 49 28 147q0 105 -29.5 153t-101.5 48q-54 0 -83 -23t-39.5 -65.5t-10.5 -112.5q0 -96 31.5 -146
t108.5 -50q68 0 96 49zM215 568q0 13 9 22t29 18q20 10 27.5 17.5t7.5 18.5q0 26 -49 26q-29 0 -63 -8q-9 17 -9 32t11.5 22.5t48.5 7.5q60 0 94.5 -21t34.5 -61q0 -22 -14.5 -36.5t-43.5 -27.5q-18 -8 -22.5 -14t-4.5 -17v-5l-47 -6q-9 20 -9 32z" />
    <glyph glyph-name="uni1ED0" unicode="&#x1ed0;" horiz-adv-x="696" 
d="M45 0zM122 73.5q-77 86.5 -77 239.5q0 97 38 176t110.5 125t172.5 46q89 0 153 -40t98 -112.5t34 -169.5q0 -101 -32.5 -180t-101.5 -125t-173 -46q-145 0 -222 86.5zM505.5 114.5q44.5 70.5 44.5 204.5q0 112 -24.5 173.5t-67.5 84.5t-106 23q-67 0 -110 -18.5
t-69.5 -79.5t-26.5 -183q0 -147 54 -211t164 -64q97 0 141.5 70.5zM271 780l29 23q16 14 28 22.5t19 8.5q9 0 20 -7.5t35 -28.5q8 -6 22 -18l74 -61l-33 -41l-122 65l-126 -63l-25 36zM388 844l131 98q12 9 23.5 15.5t18.5 6.5q15 0 27 -18t15 -51l-193 -86z" />
    <glyph glyph-name="uni1ED1" unicode="&#x1ed1;" horiz-adv-x="497" 
d="M25 0zM79.5 58q-54.5 67 -54.5 182q0 71 28 131.5t80 96.5t121 36q105 0 160 -64.5t55 -176.5q0 -77 -27 -139t-79.5 -97.5t-126.5 -35.5q-102 0 -156.5 67zM351 98q28 49 28 147q0 105 -29.5 153t-101.5 48q-54 0 -83 -23t-39.5 -65.5t-10.5 -112.5q0 -96 31.5 -146
t108.5 -50q68 0 96 49zM178 683q27 27 46 27q17 0 38 -21l106 -110l-35 -35l-118 84l-115 -83l-28 32zM412 809q15 16 23.5 23.5t18.5 7.5q14 0 28 -16.5t23 -45.5l-174 -120l-28 30z" />
    <glyph glyph-name="uni1ED2" unicode="&#x1ed2;" horiz-adv-x="696" 
d="M45 0zM122 73.5q-77 86.5 -77 239.5q0 97 38 176t110.5 125t172.5 46q89 0 153 -40t98 -112.5t34 -169.5q0 -101 -32.5 -180t-101.5 -125t-173 -46q-145 0 -222 86.5zM505.5 114.5q44.5 70.5 44.5 204.5q0 112 -24.5 173.5t-67.5 84.5t-106 23q-67 0 -110 -18.5
t-69.5 -79.5t-26.5 -183q0 -147 54 -211t164 -64q97 0 141.5 70.5zM273 780l29 23q16 14 28 22.5t19 8.5q9 0 20 -7.5t35 -28.5q8 -6 22 -18l74 -61l-33 -41l-122 65l-126 -63l-25 36zM340 895q3 33 15 51t27 18q7 0 18.5 -6.5t23.5 -15.5l131 -98l-22 -35z" />
    <glyph glyph-name="uni1ED3" unicode="&#x1ed3;" horiz-adv-x="497" 
d="M25 0zM79.5 58q-54.5 67 -54.5 182q0 71 28 131.5t80 96.5t121 36q105 0 160 -64.5t55 -176.5q0 -77 -27 -139t-79.5 -97.5t-126.5 -35.5q-102 0 -156.5 67zM351 98q28 49 28 147q0 105 -29.5 153t-101.5 48q-54 0 -83 -23t-39.5 -65.5t-10.5 -112.5q0 -96 31.5 -146
t108.5 -50q68 0 96 49zM194 683q27 27 46 27q17 0 38 -21l106 -110l-35 -35l-118 84l-115 -83l-28 32zM230 823.5q14 16.5 28 16.5q10 0 18.5 -7.5t23.5 -23.5l109 -121l-28 -30l-174 120q9 29 23 45.5z" />
    <glyph glyph-name="uni1ED4" unicode="&#x1ed4;" horiz-adv-x="696" 
d="M45 0zM122 73.5q-77 86.5 -77 239.5q0 97 38 176t110.5 125t172.5 46q89 0 153 -40t98 -112.5t34 -169.5q0 -101 -32.5 -180t-101.5 -125t-173 -46q-145 0 -222 86.5zM505.5 114.5q44.5 70.5 44.5 204.5q0 112 -24.5 173.5t-67.5 84.5t-106 23q-67 0 -110 -18.5
t-69.5 -79.5t-26.5 -183q0 -147 54 -211t164 -64q97 0 141.5 70.5zM265 780l29 23q16 14 28 22.5t19 8.5q9 0 20 -7.5t35 -28.5q8 -6 22 -18l74 -61l-33 -41l-122 65l-126 -63l-25 36zM428 812q0 11 9 20t29 16q19 7 27 15t8 19q0 20 -49 20q-29 0 -63 -8q-9 17 -9 32
t11.5 22.5t48.5 7.5q60 0 94.5 -18t34.5 -52q0 -48 -58 -66q-17 -5 -22 -11t-5 -15h-51q-5 12 -5 18z" />
    <glyph glyph-name="uni1ED5" unicode="&#x1ed5;" horiz-adv-x="497" 
d="M25 0zM79.5 58q-54.5 67 -54.5 182q0 71 28 131.5t80 96.5t121 36q105 0 160 -64.5t55 -176.5q0 -77 -27 -139t-79.5 -97.5t-126.5 -35.5q-102 0 -156.5 67zM351 98q28 49 28 147q0 105 -29.5 153t-101.5 48q-54 0 -83 -23t-39.5 -65.5t-10.5 -112.5q0 -96 31.5 -146
t108.5 -50q68 0 96 49zM183 683q27 27 46 27q17 0 38 -21l106 -110l-35 -35l-118 84l-115 -83l-28 32zM319 691q0 13 9 22t29 18q20 10 27.5 17.5t7.5 18.5q0 26 -49 26q-29 0 -63 -8q-9 17 -9 32t11.5 22.5t48.5 7.5q60 0 94.5 -21t34.5 -61q0 -22 -14.5 -36.5t-43.5 -27.5
q-18 -8 -22.5 -14t-4.5 -17v-5l-47 -6q-9 20 -9 32z" />
    <glyph glyph-name="uni1ED6" unicode="&#x1ed6;" horiz-adv-x="696" 
d="M45 0zM122 73.5q-77 86.5 -77 239.5q0 97 38 176t110.5 125t172.5 46q89 0 153 -40t98 -112.5t34 -169.5q0 -101 -32.5 -180t-101.5 -125t-173 -46q-145 0 -222 86.5zM505.5 114.5q44.5 70.5 44.5 204.5q0 112 -24.5 173.5t-67.5 84.5t-106 23q-67 0 -110 -18.5
t-69.5 -79.5t-26.5 -183q0 -147 54 -211t164 -64q97 0 141.5 70.5zM272 780l29 23q16 14 28 22.5t19 8.5q9 0 20 -7.5t35 -28.5q8 -6 22 -18l74 -61l-33 -41l-122 65l-126 -63l-25 36zM355 869l-79 25l-80 -36l-23 26l37 49q21 29 61 29q23 0 70 -15l79 -25l80 36l23 -26
l-37 -49q-21 -29 -61 -29q-23 0 -70 15z" />
    <glyph glyph-name="uni1ED7" unicode="&#x1ed7;" horiz-adv-x="497" 
d="M25 0zM79.5 58q-54.5 67 -54.5 182q0 71 28 131.5t80 96.5t121 36q105 0 160 -64.5t55 -176.5q0 -77 -27 -139t-79.5 -97.5t-126.5 -35.5q-102 0 -156.5 67zM351 98q28 49 28 147q0 105 -29.5 153t-101.5 48q-54 0 -83 -23t-39.5 -65.5t-10.5 -112.5q0 -96 31.5 -146
t108.5 -50q68 0 96 49zM205 683q27 27 46 27q17 0 38 -21l106 -110l-35 -35l-118 84l-115 -83l-28 32zM136 829.5q17 9.5 36 9.5q18 0 42.5 -7t28.5 -8l84 -25l68 34l22 -20l-28 -47q-10 -17 -27 -26.5t-36 -9.5q-18 0 -42.5 7t-28.5 8l-84 25l-68 -34l-22 20l28 47
q10 17 27 26.5z" />
    <glyph glyph-name="uni1ED8" unicode="&#x1ed8;" horiz-adv-x="696" 
d="M45 0zM122 73.5q-77 86.5 -77 239.5q0 97 38 176t110.5 125t172.5 46q89 0 153 -40t98 -112.5t34 -169.5q0 -101 -32.5 -180t-101.5 -125t-173 -46q-145 0 -222 86.5zM505.5 114.5q44.5 70.5 44.5 204.5q0 112 -24.5 173.5t-67.5 84.5t-106 23q-67 0 -110 -18.5
t-69.5 -79.5t-26.5 -183q0 -147 54 -211t164 -64q97 0 141.5 70.5zM304.5 -155q-15.5 17 -15.5 45q0 27 17.5 46.5t43.5 19.5t41 -16t15 -44t-16.5 -48t-44.5 -20q-25 0 -40.5 17zM274 780l29 23q16 14 28 22.5t19 8.5q9 0 20 -7.5t35 -28.5q8 -6 22 -18l74 -61l-33 -41
l-122 65l-126 -63l-25 36z" />
    <glyph glyph-name="uni1ED9" unicode="&#x1ed9;" horiz-adv-x="497" 
d="M25 0zM79.5 58q-54.5 67 -54.5 182q0 71 28 131.5t80 96.5t121 36q105 0 160 -64.5t55 -176.5q0 -77 -27 -139t-79.5 -97.5t-126.5 -35.5q-102 0 -156.5 67zM351 98q28 49 28 147q0 105 -29.5 153t-101.5 48q-54 0 -83 -23t-39.5 -65.5t-10.5 -112.5q0 -96 31.5 -146
t108.5 -50q68 0 96 49zM205.5 -155q-15.5 17 -15.5 45q0 27 17.5 46.5t43.5 19.5t41 -16t15 -44t-16.5 -48t-44.5 -20q-25 0 -40.5 17zM207 683q27 27 46 27q17 0 38 -21l106 -110l-35 -35l-118 84l-115 -83l-28 32z" />
    <glyph glyph-name="uni1EDA" unicode="&#x1eda;" horiz-adv-x="696" 
d="M45 0zM702.5 586q-26.5 -38 -85.5 -79q34 -74 34 -169q0 -101 -32.5 -180t-101.5 -125t-173 -46q-145 0 -222 86.5t-77 239.5q0 97 38 176t110.5 125t172.5 46q80 0 140.5 -33t96.5 -93q60 49 60 94q0 12 -5 19t-16 15v15l55 39q16 -12 24 -23.5t8 -38.5q0 -30 -26.5 -68
zM505.5 114.5q44.5 70.5 44.5 204.5q0 112 -24.5 173.5t-67.5 84.5t-106 23q-67 0 -110 -18.5t-69.5 -79.5t-26.5 -183q0 -147 54 -211t164 -64q97 0 141.5 70.5zM290 716l131 98q12 9 23.5 15.5t18.5 6.5q15 0 27 -18t15 -51l-193 -86z" />
    <glyph glyph-name="uni1EDB" unicode="&#x1edb;" horiz-adv-x="497" 
d="M25 0zM523.5 439q-21.5 -34 -69.5 -71q15 -46 15 -105q0 -77 -27 -139t-79.5 -97.5t-126.5 -35.5q-102 0 -156.5 67t-54.5 182q0 71 28 131.5t80 96.5t121 36q67 0 114 -27t73 -77q38 40 38 74q0 12 -5 19t-16 15v15l55 39q16 -12 24 -23.5t8 -38.5t-21.5 -61zM351 98
q28 49 28 147q0 105 -29.5 153t-101.5 48q-54 0 -83 -23t-39.5 -65.5t-10.5 -112.5q0 -96 31.5 -146t108.5 -50q68 0 96 49zM307 686q15 16 23.5 23.5t18.5 7.5q14 0 28 -16.5t23 -45.5l-174 -120l-28 30z" />
    <glyph glyph-name="uni1EDC" unicode="&#x1edc;" horiz-adv-x="696" 
d="M45 0zM702.5 586q-26.5 -38 -85.5 -79q34 -74 34 -169q0 -101 -32.5 -180t-101.5 -125t-173 -46q-145 0 -222 86.5t-77 239.5q0 97 38 176t110.5 125t172.5 46q80 0 140.5 -33t96.5 -93q60 49 60 94q0 12 -5 19t-16 15v15l55 39q16 -12 24 -23.5t8 -38.5q0 -30 -26.5 -68
zM505.5 114.5q44.5 70.5 44.5 204.5q0 112 -24.5 173.5t-67.5 84.5t-106 23q-67 0 -110 -18.5t-69.5 -79.5t-26.5 -183q0 -147 54 -211t164 -64q97 0 141.5 70.5zM205 767q3 33 15 51t27 18q7 0 18.5 -6.5t23.5 -15.5l131 -98l-22 -35z" />
    <glyph glyph-name="uni1EDD" unicode="&#x1edd;" horiz-adv-x="497" 
d="M25 0zM523.5 439q-21.5 -34 -69.5 -71q15 -46 15 -105q0 -77 -27 -139t-79.5 -97.5t-126.5 -35.5q-102 0 -156.5 67t-54.5 182q0 71 28 131.5t80 96.5t121 36q67 0 114 -27t73 -77q38 40 38 74q0 12 -5 19t-16 15v15l55 39q16 -12 24 -23.5t8 -38.5t-21.5 -61zM351 98
q28 49 28 147q0 105 -29.5 153t-101.5 48q-54 0 -83 -23t-39.5 -65.5t-10.5 -112.5q0 -96 31.5 -146t108.5 -50q68 0 96 49zM131 700.5q14 16.5 28 16.5q10 0 18.5 -7.5t23.5 -23.5l109 -121l-28 -30l-174 120q9 29 23 45.5z" />
    <glyph glyph-name="uni1EDE" unicode="&#x1ede;" horiz-adv-x="696" 
d="M45 0zM702.5 586q-26.5 -38 -85.5 -79q34 -74 34 -169q0 -101 -32.5 -180t-101.5 -125t-173 -46q-145 0 -222 86.5t-77 239.5q0 97 38 176t110.5 125t172.5 46q80 0 140.5 -33t96.5 -93q60 49 60 94q0 12 -5 19t-16 15v15l55 39q16 -12 24 -23.5t8 -38.5q0 -30 -26.5 -68
zM505.5 114.5q44.5 70.5 44.5 204.5q0 112 -24.5 173.5t-67.5 84.5t-106 23q-67 0 -110 -18.5t-69.5 -79.5t-26.5 -183q0 -147 54 -211t164 -64q97 0 141.5 70.5zM314 695q0 11 9 20t29 16q19 7 27 15t8 19q0 20 -49 20q-29 0 -63 -8q-9 17 -9 32t11.5 22.5t48.5 7.5
q60 0 94.5 -18t34.5 -52q0 -48 -58 -66q-17 -5 -22 -11t-5 -15h-51q-5 12 -5 18z" />
    <glyph glyph-name="uni1EDF" unicode="&#x1edf;" horiz-adv-x="497" 
d="M25 0zM523.5 439q-21.5 -34 -69.5 -71q15 -46 15 -105q0 -77 -27 -139t-79.5 -97.5t-126.5 -35.5q-102 0 -156.5 67t-54.5 182q0 71 28 131.5t80 96.5t121 36q67 0 114 -27t73 -77q38 40 38 74q0 12 -5 19t-16 15v15l55 39q16 -12 24 -23.5t8 -38.5t-21.5 -61zM351 98
q28 49 28 147q0 105 -29.5 153t-101.5 48q-54 0 -83 -23t-39.5 -65.5t-10.5 -112.5q0 -96 31.5 -146t108.5 -50q68 0 96 49zM215 568q0 13 9 22t29 18q20 10 27.5 17.5t7.5 18.5q0 26 -49 26q-29 0 -63 -8q-9 17 -9 32t11.5 22.5t48.5 7.5q60 0 94.5 -21t34.5 -61
q0 -22 -14.5 -36.5t-43.5 -27.5q-18 -8 -22.5 -14t-4.5 -17v-5l-47 -6q-9 20 -9 32z" />
    </font>
</defs>
</svg>
